<svg width="1440" height="670" viewBox="0 0 1440 670" fill="none" xmlns="http://www.w3.org/2000/svg">
<g clip-path="url(#clip0_1306_186)">
<rect width="1440" height="670" fill="white"/>
<rect width="1440" height="670" fill="#70C9CD"/>
<path d="M664.064 162.664L657.824 185H652.544L648.352 169.096L643.968 185L638.72 185.032L632.704 162.664H637.504L641.44 180.008L645.984 162.664H650.976L655.264 179.912L659.232 162.664H664.064ZM683.469 175.752C683.469 176.392 683.427 176.968 683.341 177.48H670.381C670.488 178.76 670.936 179.763 671.725 180.488C672.515 181.213 673.485 181.576 674.637 181.576C676.301 181.576 677.485 180.861 678.189 179.432H683.021C682.509 181.139 681.528 182.547 680.077 183.656C678.627 184.744 676.845 185.288 674.733 185.288C673.027 185.288 671.491 184.915 670.125 184.168C668.781 183.4 667.725 182.323 666.957 180.936C666.211 179.549 665.837 177.949 665.837 176.136C665.837 174.301 666.211 172.691 666.957 171.304C667.704 169.917 668.749 168.851 670.093 168.104C671.437 167.357 672.984 166.984 674.733 166.984C676.419 166.984 677.923 167.347 679.245 168.072C680.589 168.797 681.624 169.832 682.349 171.176C683.096 172.499 683.469 174.024 683.469 175.752ZM678.829 174.472C678.808 173.32 678.392 172.403 677.581 171.72C676.771 171.016 675.779 170.664 674.605 170.664C673.496 170.664 672.557 171.005 671.789 171.688C671.043 172.349 670.584 173.277 670.413 174.472H678.829ZM691.219 161.32V185H686.739V161.32H691.219ZM700.126 161.32V185H695.646V161.32H700.126ZM718.248 180.744H709.352L707.88 185H703.176L711.208 162.632H716.424L724.456 185H719.72L718.248 180.744ZM717.032 177.16L713.8 167.816L710.568 177.16H717.032ZM752.034 167.272L746.85 185H742.018L738.786 172.616L735.554 185H730.69L725.474 167.272H730.018L733.154 180.776L736.546 167.272H741.282L744.61 180.744L747.746 167.272H752.034ZM753.306 176.072C753.306 174.28 753.658 172.691 754.362 171.304C755.087 169.917 756.058 168.851 757.274 168.104C758.511 167.357 759.887 166.984 761.402 166.984C762.725 166.984 763.877 167.251 764.858 167.784C765.861 168.317 766.661 168.989 767.258 169.8V167.272H771.77V185H767.258V182.408C766.682 183.24 765.882 183.933 764.858 184.488C763.855 185.021 762.693 185.288 761.37 185.288C759.877 185.288 758.511 184.904 757.274 184.136C756.058 183.368 755.087 182.291 754.362 180.904C753.658 179.496 753.306 177.885 753.306 176.072ZM767.258 176.136C767.258 175.048 767.045 174.12 766.618 173.352C766.191 172.563 765.615 171.965 764.89 171.56C764.165 171.133 763.386 170.92 762.554 170.92C761.722 170.92 760.954 171.123 760.25 171.528C759.546 171.933 758.97 172.531 758.522 173.32C758.095 174.088 757.882 175.005 757.882 176.072C757.882 177.139 758.095 178.077 758.522 178.888C758.97 179.677 759.546 180.285 760.25 180.712C760.975 181.139 761.743 181.352 762.554 181.352C763.386 181.352 764.165 181.149 764.89 180.744C765.615 180.317 766.191 179.72 766.618 178.952C767.045 178.163 767.258 177.224 767.258 176.136ZM780.626 170.024C781.202 169.085 781.948 168.349 782.866 167.816C783.804 167.283 784.871 167.016 786.066 167.016V171.72H784.882C783.474 171.72 782.407 172.051 781.682 172.712C780.978 173.373 780.626 174.525 780.626 176.168V185H776.146V167.272H780.626V170.024ZM805.563 175.752C805.563 176.392 805.52 176.968 805.435 177.48H792.475C792.582 178.76 793.03 179.763 793.819 180.488C794.608 181.213 795.579 181.576 796.731 181.576C798.395 181.576 799.579 180.861 800.283 179.432H805.115C804.603 181.139 803.622 182.547 802.171 183.656C800.72 184.744 798.939 185.288 796.827 185.288C795.12 185.288 793.584 184.915 792.219 184.168C790.875 183.4 789.819 182.323 789.051 180.936C788.304 179.549 787.931 177.949 787.931 176.136C787.931 174.301 788.304 172.691 789.051 171.304C789.798 169.917 790.843 168.851 792.187 168.104C793.531 167.357 795.078 166.984 796.827 166.984C798.512 166.984 800.016 167.347 801.339 168.072C802.683 168.797 803.718 169.832 804.443 171.176C805.19 172.499 805.563 174.024 805.563 175.752ZM800.923 174.472C800.902 173.32 800.486 172.403 799.675 171.72C798.864 171.016 797.872 170.664 796.699 170.664C795.59 170.664 794.651 171.005 793.883 171.688C793.136 172.349 792.678 173.277 792.507 174.472H800.923Z" fill="white"/>
<path d="M640.184 514.168C640.184 512.355 640.547 510.765 641.272 509.4C642.019 508.013 643.043 506.947 644.344 506.2C645.645 505.453 647.139 505.08 648.824 505.08C650.957 505.08 652.717 505.592 654.104 506.616C655.512 507.619 656.461 509.059 656.952 510.936H653.016C652.696 510.061 652.184 509.379 651.48 508.888C650.776 508.397 649.891 508.152 648.824 508.152C647.331 508.152 646.136 508.685 645.24 509.752C644.365 510.797 643.928 512.269 643.928 514.168C643.928 516.067 644.365 517.549 645.24 518.616C646.136 519.683 647.331 520.216 648.824 520.216C650.936 520.216 652.333 519.288 653.016 517.432H656.952C656.44 519.224 655.48 520.653 654.072 521.72C652.664 522.765 650.915 523.288 648.824 523.288C647.139 523.288 645.645 522.915 644.344 522.168C643.043 521.4 642.019 520.333 641.272 518.968C640.547 517.581 640.184 515.981 640.184 514.168ZM668.236 523.288C666.572 523.288 665.068 522.915 663.724 522.168C662.38 521.4 661.324 520.333 660.556 518.968C659.788 517.581 659.404 515.981 659.404 514.168C659.404 512.376 659.798 510.787 660.588 509.4C661.377 508.013 662.454 506.947 663.82 506.2C665.185 505.453 666.71 505.08 668.396 505.08C670.081 505.08 671.606 505.453 672.972 506.2C674.337 506.947 675.414 508.013 676.204 509.4C676.993 510.787 677.388 512.376 677.388 514.168C677.388 515.96 676.982 517.549 676.172 518.936C675.361 520.323 674.252 521.4 672.844 522.168C671.457 522.915 669.921 523.288 668.236 523.288ZM668.236 520.12C669.174 520.12 670.049 519.896 670.86 519.448C671.692 519 672.364 518.328 672.876 517.432C673.388 516.536 673.644 515.448 673.644 514.168C673.644 512.888 673.398 511.811 672.908 510.936C672.417 510.04 671.766 509.368 670.956 508.92C670.145 508.472 669.27 508.248 668.332 508.248C667.393 508.248 666.518 508.472 665.708 508.92C664.918 509.368 664.289 510.04 663.82 510.936C663.35 511.811 663.116 512.888 663.116 514.168C663.116 516.067 663.596 517.539 664.556 518.584C665.537 519.608 666.764 520.12 668.236 520.12ZM684.642 507.96C685.26 507.149 686.103 506.467 687.17 505.912C688.236 505.357 689.442 505.08 690.786 505.08C692.322 505.08 693.719 505.464 694.978 506.232C696.258 506.979 697.26 508.035 697.986 509.4C698.711 510.765 699.074 512.333 699.074 514.104C699.074 515.875 698.711 517.464 697.986 518.872C697.26 520.259 696.258 521.347 694.978 522.136C693.719 522.904 692.322 523.288 690.786 523.288C689.442 523.288 688.247 523.021 687.202 522.488C686.156 521.933 685.303 521.251 684.642 520.44V531.384H680.994V505.368H684.642V507.96ZM695.362 514.104C695.362 512.888 695.106 511.843 694.594 510.968C694.103 510.072 693.442 509.4 692.61 508.952C691.799 508.483 690.924 508.248 689.986 508.248C689.068 508.248 688.194 508.483 687.362 508.952C686.551 509.421 685.89 510.104 685.378 511C684.887 511.896 684.642 512.952 684.642 514.168C684.642 515.384 684.887 516.451 685.378 517.368C685.89 518.264 686.551 518.947 687.362 519.416C688.194 519.885 689.068 520.12 689.986 520.12C690.924 520.12 691.799 519.885 692.61 519.416C693.442 518.925 694.103 518.221 694.594 517.304C695.106 516.387 695.362 515.32 695.362 514.104ZM718.553 505.368L707.737 531.288H703.961L707.545 522.712L700.601 505.368H704.665L709.625 518.808L714.777 505.368H718.553ZM724.954 507.928C725.488 507.032 726.192 506.339 727.066 505.848C727.962 505.336 729.018 505.08 730.234 505.08V508.856H729.306C727.877 508.856 726.789 509.219 726.042 509.944C725.317 510.669 724.954 511.928 724.954 513.72V523H721.306V505.368H724.954V507.928ZM735.444 503.032C734.782 503.032 734.228 502.808 733.78 502.36C733.332 501.912 733.108 501.357 733.108 500.696C733.108 500.035 733.332 499.48 733.78 499.032C734.228 498.584 734.782 498.36 735.444 498.36C736.084 498.36 736.628 498.584 737.076 499.032C737.524 499.48 737.748 500.035 737.748 500.696C737.748 501.357 737.524 501.912 737.076 502.36C736.628 502.808 736.084 503.032 735.444 503.032ZM737.236 505.368V523H733.588V505.368H737.236ZM749.129 505.08C750.494 505.08 751.7 505.357 752.745 505.912C753.812 506.445 754.644 507.117 755.241 507.928V505.368H758.921V523.288C758.921 524.909 758.58 526.349 757.897 527.608C757.214 528.888 756.222 529.891 754.921 530.616C753.641 531.341 752.105 531.704 750.313 531.704C747.924 531.704 745.94 531.139 744.361 530.008C742.782 528.899 741.886 527.384 741.673 525.464H745.289C745.566 526.381 746.153 527.117 747.049 527.672C747.966 528.248 749.054 528.536 750.313 528.536C751.785 528.536 752.969 528.088 753.865 527.192C754.782 526.296 755.241 524.995 755.241 523.288V520.344C754.622 521.176 753.78 521.88 752.713 522.456C751.668 523.011 750.473 523.288 749.129 523.288C747.593 523.288 746.185 522.904 744.905 522.136C743.646 521.347 742.644 520.259 741.897 518.872C741.172 517.464 740.809 515.875 740.809 514.104C740.809 512.333 741.172 510.765 741.897 509.4C742.644 508.035 743.646 506.979 744.905 506.232C746.185 505.464 747.593 505.08 749.129 505.08ZM755.241 514.168C755.241 512.952 754.985 511.896 754.473 511C753.982 510.104 753.332 509.421 752.521 508.952C751.71 508.483 750.836 508.248 749.897 508.248C748.958 508.248 748.084 508.483 747.273 508.952C746.462 509.4 745.801 510.072 745.289 510.968C744.798 511.843 744.553 512.888 744.553 514.104C744.553 515.32 744.798 516.387 745.289 517.304C745.801 518.221 746.462 518.925 747.273 519.416C748.105 519.885 748.98 520.12 749.897 520.12C750.836 520.12 751.71 519.885 752.521 519.416C753.332 518.947 753.982 518.264 754.473 517.368C754.985 516.451 755.241 515.384 755.241 514.168ZM772.833 505.08C774.177 505.08 775.371 505.368 776.417 505.944C777.483 506.52 778.315 507.373 778.913 508.504C779.531 509.635 779.841 511 779.841 512.6V523H776.225V513.144C776.225 511.565 775.83 510.36 775.041 509.528C774.251 508.675 773.174 508.248 771.809 508.248C770.443 508.248 769.355 508.675 768.545 509.528C767.755 510.36 767.361 511.565 767.361 513.144V523H763.713V499.32H767.361V507.416C767.979 506.669 768.758 506.093 769.697 505.688C770.657 505.283 771.702 505.08 772.833 505.08ZM788.75 508.344V518.104C788.75 518.765 788.899 519.245 789.198 519.544C789.518 519.821 790.051 519.96 790.798 519.96H793.038V523H790.158C788.515 523 787.256 522.616 786.382 521.848C785.507 521.08 785.07 519.832 785.07 518.104V508.344H782.99V505.368H785.07V500.984H788.75V505.368H793.038V508.344H788.75ZM797.872 523.224C797.211 523.224 796.656 523 796.208 522.552C795.76 522.104 795.536 521.549 795.536 520.888C795.536 520.227 795.76 519.672 796.208 519.224C796.656 518.776 797.211 518.552 797.872 518.552C798.512 518.552 799.056 518.776 799.504 519.224C799.952 519.672 800.176 520.227 800.176 520.888C800.176 521.549 799.952 522.104 799.504 522.552C799.056 523 798.512 523.224 797.872 523.224Z" fill="white"/>
<path d="M609 300H609.02M588 291H608C613.523 291 618 295.477 618 301V321C618 326.523 613.523 331 608 331H588C582.477 331 578 326.523 578 321V301C578 295.477 582.477 291 588 291ZM606 309.74C606.247 311.404 605.963 313.104 605.188 314.598C604.413 316.092 603.186 317.303 601.683 318.059C600.18 318.816 598.477 319.079 596.816 318.812C595.154 318.545 593.62 317.76 592.43 316.57C591.24 315.38 590.455 313.846 590.188 312.184C589.921 310.523 590.184 308.82 590.941 307.317C591.697 305.814 592.908 304.587 594.402 303.812C595.896 303.037 597.596 302.753 599.26 303C600.958 303.252 602.53 304.043 603.743 305.257C604.957 306.47 605.748 308.042 606 309.74Z" stroke="#757575" stroke-width="4" stroke-linecap="round" stroke-linejoin="round"/>
<path d="M732 287H726C723.348 287 720.804 288.054 718.929 289.929C717.054 291.804 716 294.348 716 297V303H710V311H716V327H724V311H730L732 303H724V297C724 296.47 724.211 295.961 724.586 295.586C724.961 295.211 725.47 295 726 295H732V287Z" stroke="#757575" stroke-width="4" stroke-linecap="round" stroke-linejoin="round"/>
<path d="M864 297C862.085 298.351 859.964 299.384 857.72 300.06C856.515 298.675 854.915 297.693 853.134 297.248C851.353 296.802 849.479 296.914 847.764 297.569C846.049 298.223 844.577 299.389 843.546 300.907C842.515 302.426 841.975 304.225 842 306.06V308.06C838.485 308.151 835.003 307.372 831.862 305.791C828.721 304.21 826.021 301.877 824 299C824 299 816 317 834 325C829.881 327.796 824.974 329.198 820 329C838 339 860 329 860 306C859.998 305.443 859.945 304.887 859.84 304.34C861.881 302.327 863.322 299.785 864 297Z" stroke="#757575" stroke-width="4" stroke-linecap="round" stroke-linejoin="round"/>
</g>
<defs>
<clipPath id="clip0_1306_186">
<rect width="1440" height="670" fill="white"/>
</clipPath>
</defs>
</svg>
