<svg width="400" height="423" viewBox="0 0 400 423" fill="none" xmlns="http://www.w3.org/2000/svg">
<g filter="url(#filter0_d_2_259)">
<rect x="26" y="20" width="340" height="363" rx="30" fill="white"/>
</g>
<g filter="url(#filter1_d_2_259)">
<circle cx="196" cy="125" r="45" fill="#4361EE"/>
</g>
<path d="M214.633 136.976L207.876 130.219L202.679 128.072C204.409 125.611 205.337 122.675 205.333 119.667C205.333 111.579 198.754 105 190.667 105C182.579 105 176 111.579 176 119.667C176 127.754 182.579 134.333 190.667 134.333C193.701 134.337 196.662 133.394 199.135 131.635L201.277 136.819L208.033 143.576C208.467 144.009 208.981 144.353 209.547 144.587C210.113 144.822 210.72 144.943 211.333 144.943C211.946 144.943 212.553 144.822 213.119 144.588C213.685 144.353 214.2 144.009 214.633 143.576C215.066 143.143 215.41 142.628 215.645 142.062C215.879 141.496 216 140.889 216 140.276C216 139.663 215.879 139.056 215.645 138.49C215.41 137.924 215.067 137.41 214.633 136.976ZM178.667 119.667C178.667 113.05 184.05 107.667 190.667 107.667C197.283 107.667 202.667 113.05 202.667 119.667C202.667 126.283 197.283 131.667 190.667 131.667C184.05 131.667 178.667 126.283 178.667 119.667ZM212.748 141.69C212.372 142.065 211.864 142.275 211.333 142.275C210.803 142.275 210.294 142.065 209.919 141.69L203.538 135.309L201.547 130.49L206.367 132.481L212.748 138.862C213.122 139.237 213.332 139.746 213.332 140.276C213.332 140.806 213.122 141.315 212.748 141.69Z" fill="white" stroke="white" stroke-width="0.6"/>
<path d="M67.9999 200.517C69.4355 200.517 70.69 200.795 71.7635 201.351C72.8499 201.894 73.6841 202.683 74.2661 203.718C74.861 204.74 75.1585 205.936 75.1585 207.307C75.1585 208.678 74.861 209.868 74.2661 210.877C73.6841 211.885 72.8499 212.661 71.7635 213.205C70.69 213.735 69.4355 214 67.9999 214H63.5961V200.517H67.9999ZM67.9999 212.196C69.5778 212.196 70.787 211.769 71.6277 210.915C72.4684 210.062 72.8887 208.859 72.8887 207.307C72.8887 205.742 72.4684 204.52 71.6277 203.64C70.787 202.761 69.5778 202.321 67.9999 202.321H65.8077V212.196H67.9999ZM76.6132 208.607C76.6132 207.533 76.8331 206.583 77.2728 205.755C77.7255 204.927 78.3333 204.287 79.0964 203.834C79.8724 203.369 80.726 203.136 81.6572 203.136C82.4979 203.136 83.2286 203.304 83.8494 203.64C84.4831 203.964 84.9875 204.371 85.3626 204.863V203.311H87.5936V214H85.3626V212.409C84.9875 212.914 84.4767 213.334 83.83 213.67C83.1833 214.006 82.4461 214.175 81.6184 214.175C80.7001 214.175 79.8595 213.942 79.0964 213.476C78.3333 212.998 77.7255 212.338 77.2728 211.497C76.8331 210.644 76.6132 209.68 76.6132 208.607ZM85.3626 208.646C85.3626 207.908 85.2074 207.268 84.897 206.725C84.5995 206.182 84.2051 205.768 83.7136 205.483C83.2221 205.199 82.6919 205.057 82.1228 205.057C81.5537 205.057 81.0235 205.199 80.532 205.483C80.0405 205.755 79.6396 206.162 79.3292 206.706C79.0317 207.236 78.883 207.87 78.883 208.607C78.883 209.344 79.0317 209.991 79.3292 210.547C79.6396 211.103 80.0405 211.53 80.532 211.827C81.0364 212.112 81.5667 212.254 82.1228 212.254C82.6919 212.254 83.2221 212.112 83.7136 211.827C84.2051 211.543 84.5995 211.129 84.897 210.586C85.2074 210.029 85.3626 209.383 85.3626 208.646ZM92.7101 204.882C93.0851 204.391 93.596 203.977 94.2427 203.64C94.8893 203.304 95.6201 203.136 96.4349 203.136C97.3661 203.136 98.2132 203.369 98.9763 203.834C99.7523 204.287 100.36 204.927 100.8 205.755C101.24 206.583 101.459 207.533 101.459 208.607C101.459 209.68 101.24 210.644 100.8 211.497C100.36 212.338 99.7523 212.998 98.9763 213.476C98.2132 213.942 97.3661 214.175 96.4349 214.175C95.6201 214.175 94.8958 214.013 94.2621 213.69C93.6283 213.353 93.111 212.939 92.7101 212.448V219.083H90.4985V203.311H92.7101V204.882ZM99.2091 208.607C99.2091 207.87 99.0539 207.236 98.7435 206.706C98.446 206.162 98.0451 205.755 97.5407 205.483C97.0492 205.199 96.5189 205.057 95.9499 205.057C95.3937 205.057 94.8635 205.199 94.3591 205.483C93.8676 205.768 93.4667 206.182 93.1563 206.725C92.8588 207.268 92.7101 207.908 92.7101 208.646C92.7101 209.383 92.8588 210.029 93.1563 210.586C93.4667 211.129 93.8676 211.543 94.3591 211.827C94.8635 212.112 95.3937 212.254 95.9499 212.254C96.5189 212.254 97.0492 212.112 97.5407 211.827C98.0451 211.53 98.446 211.103 98.7435 210.547C99.0539 209.991 99.2091 209.344 99.2091 208.607ZM102.909 208.607C102.909 207.533 103.129 206.583 103.569 205.755C104.022 204.927 104.629 204.287 105.393 203.834C106.169 203.369 107.022 203.136 107.953 203.136C108.794 203.136 109.525 203.304 110.146 203.64C110.779 203.964 111.284 204.371 111.659 204.863V203.311H113.89V214H111.659V212.409C111.284 212.914 110.773 213.334 110.126 213.67C109.479 214.006 108.742 214.175 107.915 214.175C106.996 214.175 106.156 213.942 105.393 213.476C104.629 212.998 104.022 212.338 103.569 211.497C103.129 210.644 102.909 209.68 102.909 208.607ZM111.659 208.646C111.659 207.908 111.504 207.268 111.193 206.725C110.896 206.182 110.501 205.768 110.01 205.483C109.518 205.199 108.988 205.057 108.419 205.057C107.85 205.057 107.32 205.199 106.828 205.483C106.337 205.755 105.936 206.162 105.625 206.706C105.328 207.236 105.179 207.87 105.179 208.607C105.179 209.344 105.328 209.991 105.625 210.547C105.936 211.103 106.337 211.53 106.828 211.827C107.333 212.112 107.863 212.254 108.419 212.254C108.988 212.254 109.518 212.112 110.01 211.827C110.501 211.543 110.896 211.129 111.193 210.586C111.504 210.029 111.659 209.383 111.659 208.646ZM119.375 205.115V211.032C119.375 211.433 119.465 211.724 119.646 211.905C119.84 212.073 120.164 212.157 120.616 212.157H121.974V214H120.228C119.232 214 118.469 213.767 117.939 213.302C117.409 212.836 117.144 212.079 117.144 211.032V205.115H115.883V203.311H117.144V200.653H119.375V203.311H121.974V205.115H119.375ZM128.242 208.665L133.17 214H130.182L126.224 209.402V214H124.013V199.644H126.224V207.986L130.104 203.311H133.17L128.242 208.665ZM134.018 208.607C134.018 207.533 134.237 206.583 134.677 205.755C135.13 204.927 135.738 204.287 136.501 203.834C137.277 203.369 138.13 203.136 139.062 203.136C139.902 203.136 140.633 203.304 141.254 203.64C141.887 203.964 142.392 204.371 142.767 204.863V203.311H144.998V214H142.767V212.409C142.392 212.914 141.881 213.334 141.234 213.67C140.588 214.006 139.85 214.175 139.023 214.175C138.104 214.175 137.264 213.942 136.501 213.476C135.738 212.998 135.13 212.338 134.677 211.497C134.237 210.644 134.018 209.68 134.018 208.607ZM142.767 208.646C142.767 207.908 142.612 207.268 142.301 206.725C142.004 206.182 141.609 205.768 141.118 205.483C140.626 205.199 140.096 205.057 139.527 205.057C138.958 205.057 138.428 205.199 137.936 205.483C137.445 205.755 137.044 206.162 136.734 206.706C136.436 207.236 136.287 207.87 136.287 208.607C136.287 209.344 136.436 209.991 136.734 210.547C137.044 211.103 137.445 211.53 137.936 211.827C138.441 212.112 138.971 212.254 139.527 212.254C140.096 212.254 140.626 212.112 141.118 211.827C141.609 211.543 142.004 211.129 142.301 210.586C142.612 210.029 142.767 209.383 142.767 208.646ZM153.296 203.136C154.137 203.136 154.887 203.311 155.546 203.66C156.219 204.009 156.743 204.526 157.118 205.212C157.493 205.897 157.68 206.725 157.68 207.695V214H155.488V208.025C155.488 207.068 155.249 206.337 154.77 205.833C154.292 205.315 153.639 205.057 152.811 205.057C151.983 205.057 151.324 205.315 150.832 205.833C150.354 206.337 150.114 207.068 150.114 208.025V214H147.903V203.311H150.114V204.533C150.476 204.093 150.936 203.75 151.492 203.505C152.061 203.259 152.662 203.136 153.296 203.136ZM166.666 201.894C166.265 201.894 165.929 201.759 165.657 201.487C165.386 201.215 165.25 200.879 165.25 200.478C165.25 200.077 165.386 199.741 165.657 199.469C165.929 199.198 166.265 199.062 166.666 199.062C167.054 199.062 167.384 199.198 167.655 199.469C167.927 199.741 168.063 200.077 168.063 200.478C168.063 200.879 167.927 201.215 167.655 201.487C167.384 201.759 167.054 201.894 166.666 201.894ZM167.752 203.311V214H165.541V203.311H167.752ZM176.049 203.136C176.89 203.136 177.64 203.311 178.3 203.66C178.972 204.009 179.496 204.526 179.871 205.212C180.246 205.897 180.434 206.725 180.434 207.695V214H178.241V208.025C178.241 207.068 178.002 206.337 177.524 205.833C177.045 205.315 176.392 205.057 175.564 205.057C174.737 205.057 174.077 205.315 173.585 205.833C173.107 206.337 172.868 207.068 172.868 208.025V214H170.656V203.311H172.868V204.533C173.23 204.093 173.689 203.75 174.245 203.505C174.814 203.259 175.416 203.136 176.049 203.136ZM187.736 205.115H185.757V214H183.526V205.115H182.265V203.311H183.526V202.554C183.526 201.325 183.85 200.433 184.496 199.877C185.156 199.308 186.184 199.023 187.581 199.023V200.866C186.908 200.866 186.436 200.996 186.165 201.254C185.893 201.5 185.757 201.933 185.757 202.554V203.311H187.736V205.115ZM194.333 214.175C193.324 214.175 192.412 213.948 191.597 213.496C190.783 213.03 190.142 212.383 189.677 211.556C189.211 210.715 188.978 209.745 188.978 208.646C188.978 207.559 189.218 206.596 189.696 205.755C190.175 204.914 190.828 204.268 191.656 203.815C192.483 203.362 193.408 203.136 194.43 203.136C195.451 203.136 196.376 203.362 197.204 203.815C198.032 204.268 198.685 204.914 199.163 205.755C199.642 206.596 199.881 207.559 199.881 208.646C199.881 209.732 199.635 210.696 199.144 211.536C198.652 212.377 197.98 213.03 197.126 213.496C196.286 213.948 195.354 214.175 194.333 214.175ZM194.333 212.254C194.902 212.254 195.432 212.118 195.924 211.847C196.428 211.575 196.835 211.168 197.146 210.624C197.456 210.081 197.611 209.422 197.611 208.646C197.611 207.87 197.463 207.216 197.165 206.686C196.868 206.143 196.473 205.736 195.982 205.464C195.49 205.192 194.96 205.057 194.391 205.057C193.822 205.057 193.292 205.192 192.8 205.464C192.322 205.736 191.94 206.143 191.656 206.686C191.371 207.216 191.229 207.87 191.229 208.646C191.229 209.797 191.52 210.689 192.102 211.323C192.697 211.944 193.44 212.254 194.333 212.254ZM204.279 204.863C204.602 204.319 205.029 203.899 205.559 203.602C206.103 203.291 206.743 203.136 207.48 203.136V205.425H206.917C206.051 205.425 205.391 205.645 204.939 206.085C204.499 206.525 204.279 207.288 204.279 208.374V214H202.067V203.311H204.279V204.863ZM222.453 203.136C223.293 203.136 224.044 203.311 224.703 203.66C225.376 204.009 225.899 204.526 226.275 205.212C226.663 205.897 226.857 206.725 226.857 207.695V214H224.664V208.025C224.664 207.068 224.425 206.337 223.947 205.833C223.468 205.315 222.815 205.057 221.987 205.057C221.159 205.057 220.5 205.315 220.008 205.833C219.53 206.337 219.291 207.068 219.291 208.025V214H217.098V208.025C217.098 207.068 216.859 206.337 216.381 205.833C215.902 205.315 215.249 205.057 214.421 205.057C213.593 205.057 212.934 205.315 212.442 205.833C211.964 206.337 211.725 207.068 211.725 208.025V214H209.513V203.311H211.725V204.533C212.087 204.093 212.546 203.75 213.102 203.505C213.658 203.259 214.253 203.136 214.887 203.136C215.74 203.136 216.503 203.317 217.176 203.679C217.848 204.041 218.366 204.565 218.728 205.251C219.051 204.604 219.556 204.093 220.241 203.718C220.927 203.33 221.664 203.136 222.453 203.136ZM228.934 208.607C228.934 207.533 229.153 206.583 229.593 205.755C230.046 204.927 230.654 204.287 231.417 203.834C232.193 203.369 233.046 203.136 233.978 203.136C234.818 203.136 235.549 203.304 236.17 203.64C236.803 203.964 237.308 204.371 237.683 204.863V203.311H239.914V214H237.683V212.409C237.308 212.914 236.797 213.334 236.15 213.67C235.504 214.006 234.766 214.175 233.939 214.175C233.02 214.175 232.18 213.942 231.417 213.476C230.654 212.998 230.046 212.338 229.593 211.497C229.153 210.644 228.934 209.68 228.934 208.607ZM237.683 208.646C237.683 207.908 237.528 207.268 237.217 206.725C236.92 206.182 236.525 205.768 236.034 205.483C235.542 205.199 235.012 205.057 234.443 205.057C233.874 205.057 233.344 205.199 232.852 205.483C232.361 205.755 231.96 206.162 231.65 206.706C231.352 207.236 231.203 207.87 231.203 208.607C231.203 209.344 231.352 209.991 231.65 210.547C231.96 211.103 232.361 211.53 232.852 211.827C233.357 212.112 233.887 212.254 234.443 212.254C235.012 212.254 235.542 212.112 236.034 211.827C236.525 211.543 236.92 211.129 237.217 210.586C237.528 210.029 237.683 209.383 237.683 208.646ZM246.699 214.175C245.858 214.175 245.102 214.026 244.429 213.728C243.769 213.418 243.246 213.004 242.858 212.487C242.47 211.957 242.263 211.368 242.237 210.721H244.526C244.565 211.174 244.778 211.556 245.166 211.866C245.567 212.163 246.065 212.312 246.66 212.312C247.281 212.312 247.759 212.196 248.096 211.963C248.445 211.717 248.619 211.407 248.619 211.032C248.619 210.631 248.425 210.333 248.037 210.139C247.662 209.945 247.061 209.732 246.233 209.499C245.431 209.279 244.778 209.066 244.274 208.859C243.769 208.652 243.33 208.335 242.955 207.908C242.592 207.482 242.411 206.919 242.411 206.221C242.411 205.652 242.58 205.134 242.916 204.669C243.252 204.19 243.731 203.815 244.351 203.543C244.985 203.272 245.709 203.136 246.524 203.136C247.74 203.136 248.716 203.446 249.454 204.067C250.204 204.675 250.605 205.509 250.656 206.57H248.445C248.406 206.091 248.212 205.71 247.863 205.425C247.514 205.141 247.042 204.998 246.447 204.998C245.865 204.998 245.418 205.108 245.108 205.328C244.798 205.548 244.642 205.839 244.642 206.201C244.642 206.486 244.746 206.725 244.953 206.919C245.16 207.113 245.412 207.268 245.709 207.385C246.007 207.488 246.447 207.624 247.029 207.792C247.805 207.999 248.438 208.212 248.93 208.432C249.434 208.639 249.867 208.95 250.23 209.363C250.592 209.777 250.779 210.327 250.792 211.012C250.792 211.62 250.624 212.163 250.288 212.642C249.952 213.121 249.473 213.496 248.852 213.767C248.244 214.039 247.527 214.175 246.699 214.175ZM254.307 201.894C253.906 201.894 253.57 201.759 253.298 201.487C253.027 201.215 252.891 200.879 252.891 200.478C252.891 200.077 253.027 199.741 253.298 199.469C253.57 199.198 253.906 199.062 254.307 199.062C254.695 199.062 255.025 199.198 255.296 199.469C255.568 199.741 255.704 200.077 255.704 200.478C255.704 200.879 255.568 201.215 255.296 201.487C255.025 201.759 254.695 201.894 254.307 201.894ZM255.393 203.311V214H253.182V203.311H255.393ZM265.917 205.115V211.032C265.917 211.433 266.007 211.724 266.188 211.905C266.382 212.073 266.706 212.157 267.158 212.157H268.516V214H266.77C265.774 214 265.011 213.767 264.481 213.302C263.951 212.836 263.686 212.079 263.686 211.032V205.115H262.425V203.311H263.686V200.653H265.917V203.311H268.516V205.115H265.917ZM280.352 208.393C280.352 208.794 280.326 209.156 280.274 209.48H272.107C272.171 210.333 272.488 211.019 273.057 211.536C273.626 212.054 274.325 212.312 275.153 212.312C276.342 212.312 277.183 211.814 277.675 210.818H280.061C279.737 211.801 279.149 212.61 278.295 213.243C277.455 213.864 276.407 214.175 275.153 214.175C274.131 214.175 273.213 213.948 272.398 213.496C271.596 213.03 270.962 212.383 270.497 211.556C270.044 210.715 269.818 209.745 269.818 208.646C269.818 207.546 270.037 206.583 270.477 205.755C270.93 204.914 271.557 204.268 272.359 203.815C273.174 203.362 274.105 203.136 275.153 203.136C276.161 203.136 277.06 203.356 277.849 203.796C278.638 204.235 279.252 204.856 279.692 205.658C280.132 206.447 280.352 207.359 280.352 208.393ZM278.043 207.695C278.03 206.88 277.739 206.227 277.17 205.736C276.601 205.244 275.896 204.998 275.056 204.998C274.292 204.998 273.639 205.244 273.096 205.736C272.553 206.214 272.23 206.867 272.126 207.695H278.043ZM284.74 204.863C285.063 204.319 285.49 203.899 286.02 203.602C286.563 203.291 287.204 203.136 287.941 203.136V205.425H287.378C286.512 205.425 285.852 205.645 285.399 206.085C284.96 206.525 284.74 207.288 284.74 208.374V214H282.528V203.311H284.74V204.863ZM292.185 204.901C292.56 204.384 293.071 203.964 293.718 203.64C294.377 203.304 295.108 203.136 295.91 203.136C296.854 203.136 297.708 203.362 298.471 203.815C299.234 204.268 299.835 204.914 300.275 205.755C300.715 206.583 300.935 207.533 300.935 208.607C300.935 209.68 300.715 210.644 300.275 211.497C299.835 212.338 299.227 212.998 298.451 213.476C297.688 213.942 296.841 214.175 295.91 214.175C295.082 214.175 294.345 214.013 293.698 213.69C293.065 213.366 292.56 212.952 292.185 212.448V214H289.974V199.644H292.185V204.901ZM298.684 208.607C298.684 207.87 298.529 207.236 298.219 206.706C297.921 206.162 297.52 205.755 297.016 205.483C296.524 205.199 295.994 205.057 295.425 205.057C294.869 205.057 294.339 205.199 293.834 205.483C293.343 205.768 292.942 206.182 292.631 206.725C292.334 207.268 292.185 207.908 292.185 208.646C292.185 209.383 292.334 210.029 292.631 210.586C292.942 211.129 293.343 211.543 293.834 211.827C294.339 212.112 294.869 212.254 295.425 212.254C295.994 212.254 296.524 212.112 297.016 211.827C297.52 211.53 297.921 211.103 298.219 210.547C298.529 209.991 298.684 209.344 298.684 208.607ZM302.384 208.607C302.384 207.533 302.604 206.583 303.044 205.755C303.497 204.927 304.105 204.287 304.868 203.834C305.644 203.369 306.497 203.136 307.428 203.136C308.269 203.136 309 203.304 309.621 203.64C310.254 203.964 310.759 204.371 311.134 204.863V203.311H313.365V214H311.134V212.409C310.759 212.914 310.248 213.334 309.601 213.67C308.955 214.006 308.217 214.175 307.39 214.175C306.471 214.175 305.631 213.942 304.868 213.476C304.105 212.998 303.497 212.338 303.044 211.497C302.604 210.644 302.384 209.68 302.384 208.607ZM311.134 208.646C311.134 207.908 310.979 207.268 310.668 206.725C310.371 206.182 309.976 205.768 309.485 205.483C308.993 205.199 308.463 205.057 307.894 205.057C307.325 205.057 306.795 205.199 306.303 205.483C305.812 205.755 305.411 206.162 305.1 206.706C304.803 207.236 304.654 207.87 304.654 208.607C304.654 209.344 304.803 209.991 305.1 210.547C305.411 211.103 305.812 211.53 306.303 211.827C306.808 212.112 307.338 212.254 307.894 212.254C308.463 212.254 308.993 212.112 309.485 211.827C309.976 211.543 310.371 211.129 310.668 210.586C310.979 210.029 311.134 209.383 311.134 208.646ZM318.481 204.863C318.805 204.319 319.231 203.899 319.762 203.602C320.305 203.291 320.945 203.136 321.682 203.136V205.425H321.12C320.253 205.425 319.594 205.645 319.141 206.085C318.701 206.525 318.481 207.288 318.481 208.374V214H316.27V203.311H318.481V204.863ZM333.396 203.311V214H331.184V212.739C330.835 213.179 330.376 213.528 329.807 213.787C329.251 214.032 328.656 214.155 328.022 214.155C327.181 214.155 326.425 213.981 325.752 213.631C325.093 213.282 324.569 212.765 324.181 212.079C323.806 211.394 323.618 210.566 323.618 209.596V203.311H325.81V209.266C325.81 210.223 326.05 210.961 326.528 211.478C327.007 211.982 327.66 212.235 328.488 212.235C329.315 212.235 329.969 211.982 330.447 211.478C330.939 210.961 331.184 210.223 331.184 209.266V203.311H333.396ZM82.7894 237.607C82.7894 236.533 83.0093 235.583 83.449 234.755C83.9017 233.927 84.5095 233.287 85.2726 232.834C86.0486 232.369 86.9087 232.136 87.8528 232.136C88.5512 232.136 89.2367 232.291 89.9092 232.602C90.5947 232.899 91.1379 233.3 91.5388 233.804V228.644H93.7698V243H91.5388V241.39C91.1767 241.907 90.6723 242.334 90.0256 242.67C89.3919 243.006 88.6611 243.175 87.8334 243.175C86.9022 243.175 86.0486 242.942 85.2726 242.476C84.5095 241.998 83.9017 241.338 83.449 240.497C83.0093 239.644 82.7894 238.68 82.7894 237.607ZM91.5388 237.646C91.5388 236.908 91.3836 236.268 91.0732 235.725C90.7757 235.182 90.3813 234.768 89.8898 234.483C89.3983 234.199 88.8681 234.057 88.299 234.057C87.7299 234.057 87.1997 234.199 86.7082 234.483C86.2167 234.755 85.8158 235.162 85.5054 235.706C85.2079 236.236 85.0592 236.87 85.0592 237.607C85.0592 238.344 85.2079 238.991 85.5054 239.547C85.8158 240.103 86.2167 240.53 86.7082 240.827C87.2126 241.112 87.7429 241.254 88.299 241.254C88.8681 241.254 89.3983 241.112 89.8898 240.827C90.3813 240.543 90.7757 240.129 91.0732 239.586C91.3836 239.029 91.5388 238.383 91.5388 237.646ZM95.9374 237.607C95.9374 236.533 96.1573 235.583 96.597 234.755C97.0497 233.927 97.6576 233.287 98.4206 232.834C99.1966 232.369 100.05 232.136 100.981 232.136C101.822 232.136 102.553 232.304 103.174 232.64C103.807 232.964 104.312 233.371 104.687 233.863V232.311H106.918V243H104.687V241.409C104.312 241.914 103.801 242.334 103.154 242.67C102.508 243.006 101.77 243.175 100.943 243.175C100.024 243.175 99.1837 242.942 98.4206 242.476C97.6576 241.998 97.0497 241.338 96.597 240.497C96.1573 239.644 95.9374 238.68 95.9374 237.607ZM104.687 237.646C104.687 236.908 104.532 236.268 104.221 235.725C103.924 235.182 103.529 234.768 103.038 234.483C102.546 234.199 102.016 234.057 101.447 234.057C100.878 234.057 100.348 234.199 99.8562 234.483C99.3648 234.755 98.9638 235.162 98.6534 235.706C98.356 236.236 98.2072 236.87 98.2072 237.607C98.2072 238.344 98.356 238.991 98.6534 239.547C98.9638 240.103 99.3648 240.53 99.8562 240.827C100.361 241.112 100.891 241.254 101.447 241.254C102.016 241.254 102.546 241.112 103.038 240.827C103.529 240.543 103.924 240.129 104.221 239.586C104.532 239.029 104.687 238.383 104.687 237.646ZM115.216 232.136C116.057 232.136 116.807 232.311 117.466 232.66C118.139 233.009 118.663 233.526 119.038 234.212C119.413 234.897 119.6 235.725 119.6 236.695V243H117.408V237.025C117.408 236.068 117.169 235.337 116.69 234.833C116.212 234.315 115.559 234.057 114.731 234.057C113.903 234.057 113.244 234.315 112.752 234.833C112.274 235.337 112.034 236.068 112.034 237.025V243H109.823V232.311H112.034V233.533C112.396 233.093 112.856 232.75 113.412 232.505C113.981 232.259 114.582 232.136 115.216 232.136ZM126.724 237.607C126.724 236.533 126.943 235.583 127.383 234.755C127.836 233.927 128.444 233.287 129.207 232.834C129.983 232.369 130.836 232.136 131.768 232.136C132.608 232.136 133.339 232.304 133.96 232.64C134.594 232.964 135.098 233.371 135.473 233.863V232.311H137.704V243H135.473V241.409C135.098 241.914 134.587 242.334 133.94 242.67C133.294 243.006 132.557 243.175 131.729 243.175C130.811 243.175 129.97 242.942 129.207 242.476C128.444 241.998 127.836 241.338 127.383 240.497C126.943 239.644 126.724 238.68 126.724 237.607ZM135.473 237.646C135.473 236.908 135.318 236.268 135.007 235.725C134.71 235.182 134.315 234.768 133.824 234.483C133.333 234.199 132.802 234.057 132.233 234.057C131.664 234.057 131.134 234.199 130.642 234.483C130.151 234.755 129.75 235.162 129.44 235.706C129.142 236.236 128.993 236.87 128.993 237.607C128.993 238.344 129.142 238.991 129.44 239.547C129.75 240.103 130.151 240.53 130.642 240.827C131.147 241.112 131.677 241.254 132.233 241.254C132.802 241.254 133.333 241.112 133.824 240.827C134.315 240.543 134.71 240.129 135.007 239.586C135.318 239.029 135.473 238.383 135.473 237.646ZM144.838 237.665L149.766 243H146.778L142.82 238.402V243H140.609V228.644H142.82V236.986L146.7 232.311H149.766L144.838 237.665ZM161.031 232.311V243H158.82V241.739C158.471 242.179 158.011 242.528 157.442 242.787C156.886 243.032 156.291 243.155 155.658 243.155C154.817 243.155 154.06 242.981 153.388 242.631C152.728 242.282 152.204 241.765 151.816 241.079C151.441 240.394 151.254 239.566 151.254 238.596V232.311H153.446V238.266C153.446 239.223 153.685 239.961 154.164 240.478C154.642 240.982 155.295 241.235 156.123 241.235C156.951 241.235 157.604 240.982 158.083 240.478C158.574 239.961 158.82 239.223 158.82 238.266V232.311H161.031ZM166.161 233.863C166.484 233.319 166.911 232.899 167.441 232.602C167.985 232.291 168.625 232.136 169.362 232.136V234.425H168.799C167.933 234.425 167.273 234.645 166.821 235.085C166.381 235.525 166.161 236.288 166.161 237.374V243H163.949V232.311H166.161V233.863ZM170.658 237.607C170.658 236.533 170.878 235.583 171.317 234.755C171.77 233.927 172.378 233.287 173.141 232.834C173.917 232.369 174.771 232.136 175.702 232.136C176.542 232.136 177.273 232.304 177.894 232.64C178.528 232.964 179.032 233.371 179.407 233.863V232.311H181.638V243H179.407V241.409C179.032 241.914 178.521 242.334 177.875 242.67C177.228 243.006 176.491 243.175 175.663 243.175C174.745 243.175 173.904 242.942 173.141 242.476C172.378 241.998 171.77 241.338 171.317 240.497C170.878 239.644 170.658 238.68 170.658 237.607ZM179.407 237.646C179.407 236.908 179.252 236.268 178.942 235.725C178.644 235.182 178.25 234.768 177.758 234.483C177.267 234.199 176.736 234.057 176.167 234.057C175.598 234.057 175.068 234.199 174.577 234.483C174.085 234.755 173.684 235.162 173.374 235.706C173.076 236.236 172.928 236.87 172.928 237.607C172.928 238.344 173.076 238.991 173.374 239.547C173.684 240.103 174.085 240.53 174.577 240.827C175.081 241.112 175.611 241.254 176.167 241.254C176.736 241.254 177.267 241.112 177.758 240.827C178.25 240.543 178.644 240.129 178.942 239.586C179.252 239.029 179.407 238.383 179.407 237.646ZM187.123 234.115V240.032C187.123 240.433 187.214 240.724 187.395 240.905C187.589 241.073 187.912 241.157 188.365 241.157H189.723V243H187.977C186.981 243 186.218 242.767 185.688 242.302C185.157 241.836 184.892 241.079 184.892 240.032V234.115H183.631V232.311H184.892V229.653H187.123V232.311H189.723V234.115H187.123ZM196.063 237.607C196.063 236.533 196.283 235.583 196.723 234.755C197.176 233.927 197.784 233.287 198.547 232.834C199.323 232.369 200.183 232.136 201.127 232.136C201.825 232.136 202.511 232.291 203.183 232.602C203.869 232.899 204.412 233.3 204.813 233.804V228.644H207.044V243H204.813V241.39C204.451 241.907 203.946 242.334 203.3 242.67C202.666 243.006 201.935 243.175 201.107 243.175C200.176 243.175 199.323 242.942 198.547 242.476C197.784 241.998 197.176 241.338 196.723 240.497C196.283 239.644 196.063 238.68 196.063 237.607ZM204.813 237.646C204.813 236.908 204.658 236.268 204.347 235.725C204.05 235.182 203.655 234.768 203.164 234.483C202.672 234.199 202.142 234.057 201.573 234.057C201.004 234.057 200.474 234.199 199.982 234.483C199.491 234.755 199.09 235.162 198.779 235.706C198.482 236.236 198.333 236.87 198.333 237.607C198.333 238.344 198.482 238.991 198.779 239.547C199.09 240.103 199.491 240.53 199.982 240.827C200.487 241.112 201.017 241.254 201.573 241.254C202.142 241.254 202.672 241.112 203.164 240.827C203.655 240.543 204.05 240.129 204.347 239.586C204.658 239.029 204.813 238.383 204.813 237.646ZM209.211 237.607C209.211 236.533 209.431 235.583 209.871 234.755C210.324 233.927 210.932 233.287 211.695 232.834C212.471 232.369 213.324 232.136 214.255 232.136C215.096 232.136 215.827 232.304 216.448 232.64C217.081 232.964 217.586 233.371 217.961 233.863V232.311H220.192V243H217.961V241.409C217.586 241.914 217.075 242.334 216.428 242.67C215.782 243.006 215.044 243.175 214.217 243.175C213.298 243.175 212.458 242.942 211.695 242.476C210.932 241.998 210.324 241.338 209.871 240.497C209.431 239.644 209.211 238.68 209.211 237.607ZM217.961 237.646C217.961 236.908 217.806 236.268 217.495 235.725C217.198 235.182 216.803 234.768 216.312 234.483C215.82 234.199 215.29 234.057 214.721 234.057C214.152 234.057 213.622 234.199 213.13 234.483C212.639 234.755 212.238 235.162 211.927 235.706C211.63 236.236 211.481 236.87 211.481 237.607C211.481 238.344 211.63 238.991 211.927 239.547C212.238 240.103 212.639 240.53 213.13 240.827C213.635 241.112 214.165 241.254 214.721 241.254C215.29 241.254 215.82 241.112 216.312 240.827C216.803 240.543 217.198 240.129 217.495 239.586C217.806 239.029 217.961 238.383 217.961 237.646ZM225.308 233.863C225.632 233.319 226.058 232.899 226.589 232.602C227.132 232.291 227.772 232.136 228.509 232.136V234.425H227.947C227.08 234.425 226.421 234.645 225.968 235.085C225.528 235.525 225.308 236.288 225.308 237.374V243H223.097V232.311H225.308V233.863ZM231.667 230.894C231.266 230.894 230.93 230.759 230.659 230.487C230.387 230.215 230.251 229.879 230.251 229.478C230.251 229.077 230.387 228.741 230.659 228.469C230.93 228.198 231.266 228.062 231.667 228.062C232.055 228.062 232.385 228.198 232.657 228.469C232.928 228.741 233.064 229.077 233.064 229.478C233.064 229.879 232.928 230.215 232.657 230.487C232.385 230.759 232.055 230.894 231.667 230.894ZM232.754 232.311V243H230.542V232.311H232.754ZM244.577 243.175C243.736 243.175 242.98 243.026 242.307 242.728C241.647 242.418 241.124 242.004 240.736 241.487C240.348 240.957 240.141 240.368 240.115 239.721H242.404C242.443 240.174 242.656 240.556 243.044 240.866C243.445 241.163 243.943 241.312 244.538 241.312C245.159 241.312 245.637 241.196 245.974 240.963C246.323 240.717 246.497 240.407 246.497 240.032C246.497 239.631 246.303 239.333 245.915 239.139C245.54 238.945 244.939 238.732 244.111 238.499C243.309 238.279 242.656 238.066 242.152 237.859C241.647 237.652 241.208 237.335 240.833 236.908C240.471 236.482 240.289 235.919 240.289 235.221C240.289 234.652 240.458 234.134 240.794 233.669C241.13 233.19 241.609 232.815 242.229 232.543C242.863 232.272 243.587 232.136 244.402 232.136C245.618 232.136 246.594 232.446 247.332 233.067C248.082 233.675 248.483 234.509 248.534 235.57H246.323C246.284 235.091 246.09 234.71 245.741 234.425C245.392 234.141 244.92 233.998 244.325 233.998C243.743 233.998 243.296 234.108 242.986 234.328C242.676 234.548 242.52 234.839 242.52 235.201C242.52 235.486 242.624 235.725 242.831 235.919C243.038 236.113 243.29 236.268 243.587 236.385C243.885 236.488 244.325 236.624 244.907 236.792C245.683 236.999 246.316 237.212 246.808 237.432C247.312 237.639 247.746 237.95 248.108 238.363C248.47 238.777 248.657 239.327 248.67 240.012C248.67 240.62 248.502 241.163 248.166 241.642C247.83 242.121 247.351 242.496 246.73 242.767C246.122 243.039 245.405 243.175 244.577 243.175ZM260.741 232.311V243H258.529V241.739C258.18 242.179 257.721 242.528 257.152 242.787C256.595 243.032 256.001 243.155 255.367 243.155C254.526 243.155 253.77 242.981 253.097 242.631C252.437 242.282 251.914 241.765 251.526 241.079C251.151 240.394 250.963 239.566 250.963 238.596V232.311H253.155V238.266C253.155 239.223 253.394 239.961 253.873 240.478C254.352 240.982 255.005 241.235 255.832 241.235C256.66 241.235 257.313 240.982 257.792 240.478C258.283 239.961 258.529 239.223 258.529 238.266V232.311H260.741ZM276.598 232.136C277.439 232.136 278.189 232.311 278.849 232.66C279.521 233.009 280.045 233.526 280.42 234.212C280.808 234.897 281.002 235.725 281.002 236.695V243H278.81V237.025C278.81 236.068 278.571 235.337 278.092 234.833C277.614 234.315 276.961 234.057 276.133 234.057C275.305 234.057 274.645 234.315 274.154 234.833C273.675 235.337 273.436 236.068 273.436 237.025V243H271.244V237.025C271.244 236.068 271.005 235.337 270.526 234.833C270.048 234.315 269.395 234.057 268.567 234.057C267.739 234.057 267.079 234.315 266.588 234.833C266.109 235.337 265.87 236.068 265.87 237.025V243H263.659V232.311H265.87V233.533C266.232 233.093 266.691 232.75 267.248 232.505C267.804 232.259 268.399 232.136 269.032 232.136C269.886 232.136 270.649 232.317 271.322 232.679C271.994 233.041 272.511 233.565 272.874 234.251C273.197 233.604 273.701 233.093 274.387 232.718C275.072 232.33 275.809 232.136 276.598 232.136ZM286.028 233.901C286.403 233.384 286.914 232.964 287.561 232.64C288.22 232.304 288.951 232.136 289.753 232.136C290.697 232.136 291.551 232.362 292.314 232.815C293.077 233.268 293.678 233.914 294.118 234.755C294.558 235.583 294.777 236.533 294.777 237.607C294.777 238.68 294.558 239.644 294.118 240.497C293.678 241.338 293.07 241.998 292.294 242.476C291.531 242.942 290.684 243.175 289.753 243.175C288.925 243.175 288.188 243.013 287.541 242.69C286.907 242.366 286.403 241.952 286.028 241.448V243H283.816V228.644H286.028V233.901ZM292.527 237.607C292.527 236.87 292.372 236.236 292.061 235.706C291.764 235.162 291.363 234.755 290.859 234.483C290.367 234.199 289.837 234.057 289.268 234.057C288.712 234.057 288.181 234.199 287.677 234.483C287.186 234.768 286.785 235.182 286.474 235.725C286.177 236.268 286.028 236.908 286.028 237.646C286.028 238.383 286.177 239.029 286.474 239.586C286.785 240.129 287.186 240.543 287.677 240.827C288.181 241.112 288.712 241.254 289.268 241.254C289.837 241.254 290.367 241.112 290.859 240.827C291.363 240.53 291.764 240.103 292.061 239.547C292.372 238.991 292.527 238.344 292.527 237.607ZM306.761 237.393C306.761 237.794 306.736 238.156 306.684 238.48H298.516C298.581 239.333 298.898 240.019 299.467 240.536C300.036 241.054 300.735 241.312 301.562 241.312C302.752 241.312 303.593 240.814 304.084 239.818H306.47C306.147 240.801 305.559 241.61 304.705 242.243C303.864 242.864 302.817 243.175 301.562 243.175C300.541 243.175 299.622 242.948 298.807 242.496C298.006 242.03 297.372 241.383 296.906 240.556C296.454 239.715 296.227 238.745 296.227 237.646C296.227 236.546 296.447 235.583 296.887 234.755C297.34 233.914 297.967 233.268 298.769 232.815C299.583 232.362 300.515 232.136 301.562 232.136C302.571 232.136 303.47 232.356 304.259 232.796C305.048 233.235 305.662 233.856 306.102 234.658C306.542 235.447 306.761 236.359 306.761 237.393ZM304.453 236.695C304.44 235.88 304.149 235.227 303.58 234.736C303.011 234.244 302.306 233.998 301.465 233.998C300.702 233.998 300.049 234.244 299.506 234.736C298.963 235.214 298.639 235.867 298.536 236.695H304.453ZM311.15 233.863C311.473 233.319 311.9 232.899 312.43 232.602C312.973 232.291 313.613 232.136 314.351 232.136V234.425H313.788C312.921 234.425 312.262 234.645 311.809 235.085C311.369 235.525 311.15 236.288 311.15 237.374V243H308.938V232.311H311.15V233.863ZM100.287 263.115V269.032C100.287 269.433 100.378 269.724 100.559 269.905C100.753 270.073 101.076 270.157 101.529 270.157H102.887V272H101.141C100.145 272 99.382 271.767 98.8518 271.302C98.3215 270.836 98.0564 270.079 98.0564 269.032V263.115H96.7954V261.311H98.0564V258.653H100.287V261.311H102.887V263.115H100.287ZM114.722 266.393C114.722 266.794 114.696 267.156 114.645 267.48H106.477C106.542 268.333 106.859 269.019 107.428 269.536C107.997 270.054 108.695 270.312 109.523 270.312C110.713 270.312 111.554 269.814 112.045 268.818H114.431C114.108 269.801 113.52 270.61 112.666 271.243C111.825 271.864 110.778 272.175 109.523 272.175C108.501 272.175 107.583 271.948 106.768 271.496C105.966 271.03 105.333 270.383 104.867 269.556C104.414 268.715 104.188 267.745 104.188 266.646C104.188 265.546 104.408 264.583 104.848 263.755C105.3 262.914 105.928 262.268 106.73 261.815C107.544 261.362 108.476 261.136 109.523 261.136C110.532 261.136 111.431 261.356 112.22 261.796C113.009 262.235 113.623 262.856 114.063 263.658C114.502 264.447 114.722 265.359 114.722 266.393ZM112.414 265.695C112.401 264.88 112.11 264.227 111.541 263.736C110.972 263.244 110.267 262.998 109.426 262.998C108.663 262.998 108.01 263.244 107.467 263.736C106.924 264.214 106.6 264.867 106.497 265.695H112.414ZM119.11 262.863C119.434 262.319 119.86 261.899 120.391 261.602C120.934 261.291 121.574 261.136 122.311 261.136V263.425H121.749C120.882 263.425 120.223 263.645 119.77 264.085C119.33 264.525 119.11 265.288 119.11 266.374V272H116.899V261.311H119.11V262.863ZM126.556 262.882C126.931 262.391 127.442 261.977 128.088 261.64C128.735 261.304 129.466 261.136 130.281 261.136C131.212 261.136 132.059 261.369 132.822 261.834C133.598 262.287 134.206 262.927 134.646 263.755C135.085 264.583 135.305 265.533 135.305 266.607C135.305 267.68 135.085 268.644 134.646 269.497C134.206 270.338 133.598 270.998 132.822 271.476C132.059 271.942 131.212 272.175 130.281 272.175C129.466 272.175 128.742 272.013 128.108 271.69C127.474 271.353 126.957 270.939 126.556 270.448V277.083H124.344V261.311H126.556V262.882ZM133.055 266.607C133.055 265.87 132.9 265.236 132.589 264.706C132.292 264.162 131.891 263.755 131.386 263.483C130.895 263.199 130.365 263.057 129.796 263.057C129.24 263.057 128.709 263.199 128.205 263.483C127.713 263.768 127.312 264.182 127.002 264.725C126.705 265.268 126.556 265.908 126.556 266.646C126.556 267.383 126.705 268.029 127.002 268.586C127.312 269.129 127.713 269.543 128.205 269.827C128.709 270.112 129.24 270.254 129.796 270.254C130.365 270.254 130.895 270.112 131.386 269.827C131.891 269.53 132.292 269.103 132.589 268.547C132.9 267.991 133.055 267.344 133.055 266.607ZM147.289 266.393C147.289 266.794 147.263 267.156 147.212 267.48H139.044C139.109 268.333 139.426 269.019 139.995 269.536C140.564 270.054 141.262 270.312 142.09 270.312C143.28 270.312 144.121 269.814 144.612 268.818H146.998C146.675 269.801 146.087 270.61 145.233 271.243C144.392 271.864 143.345 272.175 142.09 272.175C141.068 272.175 140.15 271.948 139.335 271.496C138.533 271.03 137.9 270.383 137.434 269.556C136.981 268.715 136.755 267.745 136.755 266.646C136.755 265.546 136.975 264.583 137.415 263.755C137.867 262.914 138.495 262.268 139.297 261.815C140.111 261.362 141.043 261.136 142.09 261.136C143.099 261.136 143.998 261.356 144.787 261.796C145.576 262.235 146.19 262.856 146.63 263.658C147.069 264.447 147.289 265.359 147.289 266.393ZM144.981 265.695C144.968 264.88 144.677 264.227 144.108 263.736C143.539 263.244 142.834 262.998 141.993 262.998C141.23 262.998 140.577 263.244 140.034 263.736C139.491 264.214 139.167 264.867 139.064 265.695H144.981ZM151.677 262.863C152.001 262.319 152.427 261.899 152.958 261.602C153.501 261.291 154.141 261.136 154.878 261.136V263.425H154.316C153.449 263.425 152.79 263.645 152.337 264.085C151.897 264.525 151.677 265.288 151.677 266.374V272H149.466V261.311H151.677V262.863ZM156.174 266.646C156.174 265.546 156.394 264.583 156.834 263.755C157.286 262.914 157.907 262.268 158.696 261.815C159.485 261.362 160.39 261.136 161.412 261.136C162.705 261.136 163.772 261.446 164.613 262.067C165.467 262.675 166.042 263.548 166.34 264.686H163.953C163.759 264.156 163.449 263.742 163.022 263.445C162.595 263.147 162.059 262.998 161.412 262.998C160.507 262.998 159.782 263.322 159.239 263.968C158.709 264.602 158.444 265.495 158.444 266.646C158.444 267.797 158.709 268.696 159.239 269.342C159.782 269.989 160.507 270.312 161.412 270.312C162.692 270.312 163.54 269.75 163.953 268.624H166.34C166.029 269.711 165.447 270.577 164.594 271.224C163.74 271.858 162.68 272.175 161.412 272.175C160.39 272.175 159.485 271.948 158.696 271.496C157.907 271.03 157.286 270.383 156.834 269.556C156.394 268.715 156.174 267.745 156.174 266.646ZM167.806 266.607C167.806 265.533 168.026 264.583 168.466 263.755C168.919 262.927 169.527 262.287 170.29 261.834C171.066 261.369 171.919 261.136 172.85 261.136C173.691 261.136 174.422 261.304 175.043 261.64C175.676 261.964 176.181 262.371 176.556 262.863V261.311H178.787V272H176.556V270.409C176.181 270.914 175.67 271.334 175.023 271.67C174.377 272.006 173.639 272.175 172.812 272.175C171.893 272.175 171.053 271.942 170.29 271.476C169.527 270.998 168.919 270.338 168.466 269.497C168.026 268.644 167.806 267.68 167.806 266.607ZM176.556 266.646C176.556 265.908 176.401 265.268 176.09 264.725C175.793 264.182 175.398 263.768 174.907 263.483C174.415 263.199 173.885 263.057 173.316 263.057C172.747 263.057 172.217 263.199 171.725 263.483C171.234 263.755 170.833 264.162 170.522 264.706C170.225 265.236 170.076 265.87 170.076 266.607C170.076 267.344 170.225 267.991 170.522 268.547C170.833 269.103 171.234 269.53 171.725 269.827C172.23 270.112 172.76 270.254 173.316 270.254C173.885 270.254 174.415 270.112 174.907 269.827C175.398 269.543 175.793 269.129 176.09 268.586C176.401 268.029 176.556 267.383 176.556 266.646ZM191.314 261.311L184.757 277.025H182.468L184.641 271.825L180.431 261.311H182.895L185.902 269.459L189.025 261.311H191.314ZM192.246 266.607C192.246 265.533 192.466 264.583 192.906 263.755C193.358 262.927 193.966 262.287 194.729 261.834C195.505 261.369 196.359 261.136 197.29 261.136C198.131 261.136 198.861 261.304 199.482 261.64C200.116 261.964 200.62 262.371 200.995 262.863V261.311H203.226V272H200.995V270.409C200.62 270.914 200.109 271.334 199.463 271.67C198.816 272.006 198.079 272.175 197.251 272.175C196.333 272.175 195.492 271.942 194.729 271.476C193.966 270.998 193.358 270.338 192.906 269.497C192.466 268.644 192.246 267.68 192.246 266.607ZM200.995 266.646C200.995 265.908 200.84 265.268 200.53 264.725C200.232 264.182 199.838 263.768 199.346 263.483C198.855 263.199 198.325 263.057 197.756 263.057C197.186 263.057 196.656 263.199 196.165 263.483C195.673 263.755 195.272 264.162 194.962 264.706C194.664 265.236 194.516 265.87 194.516 266.607C194.516 267.344 194.664 267.991 194.962 268.547C195.272 269.103 195.673 269.53 196.165 269.827C196.669 270.112 197.199 270.254 197.756 270.254C198.325 270.254 198.855 270.112 199.346 269.827C199.838 269.543 200.232 269.129 200.53 268.586C200.84 268.029 200.995 267.383 200.995 266.646ZM215.051 272.175C214.21 272.175 213.453 272.026 212.781 271.728C212.121 271.418 211.597 271.004 211.209 270.487C210.821 269.957 210.614 269.368 210.589 268.721H212.878C212.917 269.174 213.13 269.556 213.518 269.866C213.919 270.163 214.417 270.312 215.012 270.312C215.633 270.312 216.111 270.196 216.447 269.963C216.797 269.717 216.971 269.407 216.971 269.032C216.971 268.631 216.777 268.333 216.389 268.139C216.014 267.945 215.413 267.732 214.585 267.499C213.783 267.279 213.13 267.066 212.626 266.859C212.121 266.652 211.681 266.335 211.306 265.908C210.944 265.482 210.763 264.919 210.763 264.221C210.763 263.652 210.931 263.134 211.268 262.669C211.604 262.19 212.082 261.815 212.703 261.543C213.337 261.272 214.061 261.136 214.876 261.136C216.092 261.136 217.068 261.446 217.805 262.067C218.556 262.675 218.956 263.509 219.008 264.57H216.797C216.758 264.091 216.564 263.71 216.215 263.425C215.865 263.141 215.393 262.998 214.798 262.998C214.216 262.998 213.77 263.108 213.46 263.328C213.149 263.548 212.994 263.839 212.994 264.201C212.994 264.486 213.098 264.725 213.305 264.919C213.512 265.113 213.764 265.268 214.061 265.385C214.359 265.488 214.798 265.624 215.38 265.792C216.156 265.999 216.79 266.212 217.282 266.432C217.786 266.639 218.219 266.95 218.581 267.363C218.944 267.777 219.131 268.327 219.144 269.012C219.144 269.62 218.976 270.163 218.64 270.642C218.303 271.121 217.825 271.496 217.204 271.767C216.596 272.039 215.878 272.175 215.051 272.175ZM231.331 266.393C231.331 266.794 231.305 267.156 231.253 267.48H223.086C223.15 268.333 223.467 269.019 224.036 269.536C224.605 270.054 225.304 270.312 226.132 270.312C227.321 270.312 228.162 269.814 228.654 268.818H231.04C230.716 269.801 230.128 270.61 229.274 271.243C228.434 271.864 227.386 272.175 226.132 272.175C225.11 272.175 224.192 271.948 223.377 271.496C222.575 271.03 221.941 270.383 221.476 269.556C221.023 268.715 220.797 267.745 220.797 266.646C220.797 265.546 221.016 264.583 221.456 263.755C221.909 262.914 222.536 262.268 223.338 261.815C224.153 261.362 225.084 261.136 226.132 261.136C227.14 261.136 228.039 261.356 228.828 261.796C229.617 262.235 230.231 262.856 230.671 263.658C231.111 264.447 231.331 265.359 231.331 266.393ZM229.022 265.695C229.009 264.88 228.718 264.227 228.149 263.736C227.58 263.244 226.875 262.998 226.035 262.998C225.271 262.998 224.618 263.244 224.075 263.736C223.532 264.214 223.209 264.867 223.105 265.695H229.022ZM235.719 262.863C236.042 262.319 236.469 261.899 236.999 261.602C237.542 261.291 238.183 261.136 238.92 261.136V263.425H238.357C237.491 263.425 236.831 263.645 236.378 264.085C235.939 264.525 235.719 265.288 235.719 266.374V272H233.507V261.311H235.719V262.863ZM243.533 263.115V269.032C243.533 269.433 243.623 269.724 243.804 269.905C243.998 270.073 244.322 270.157 244.774 270.157H246.132V272H244.386C243.391 272 242.628 271.767 242.097 271.302C241.567 270.836 241.302 270.079 241.302 269.032V263.115H240.041V261.311H241.302V258.653H243.533V261.311H246.132V263.115H243.533ZM247.434 266.607C247.434 265.533 247.653 264.583 248.093 263.755C248.546 262.927 249.154 262.287 249.917 261.834C250.693 261.369 251.546 261.136 252.478 261.136C253.318 261.136 254.049 261.304 254.67 261.64C255.304 261.964 255.808 262.371 256.183 262.863V261.311H258.414V272H256.183V270.409C255.808 270.914 255.297 271.334 254.65 271.67C254.004 272.006 253.267 272.175 252.439 272.175C251.521 272.175 250.68 271.942 249.917 271.476C249.154 270.998 248.546 270.338 248.093 269.497C247.653 268.644 247.434 267.68 247.434 266.607ZM256.183 266.646C256.183 265.908 256.028 265.268 255.717 264.725C255.42 264.182 255.025 263.768 254.534 263.483C254.043 263.199 253.512 263.057 252.943 263.057C252.374 263.057 251.844 263.199 251.352 263.483C250.861 263.755 250.46 264.162 250.15 264.706C249.852 265.236 249.703 265.87 249.703 266.607C249.703 267.344 249.852 267.991 250.15 268.547C250.46 269.103 250.861 269.53 251.352 269.827C251.857 270.112 252.387 270.254 252.943 270.254C253.512 270.254 254.043 270.112 254.534 269.827C255.025 269.543 255.42 269.129 255.717 268.586C256.028 268.029 256.183 267.383 256.183 266.646ZM268.939 263.115V269.032C268.939 269.433 269.029 269.724 269.21 269.905C269.404 270.073 269.727 270.157 270.18 270.157H271.538V272H269.792C268.796 272 268.033 271.767 267.503 271.302C266.973 270.836 266.708 270.079 266.708 269.032V263.115H265.447V261.311H266.708V258.653H268.939V261.311H271.538V263.115H268.939ZM274.702 259.894C274.301 259.894 273.964 259.759 273.693 259.487C273.421 259.215 273.285 258.879 273.285 258.478C273.285 258.077 273.421 257.741 273.693 257.469C273.964 257.198 274.301 257.062 274.702 257.062C275.09 257.062 275.419 257.198 275.691 257.469C275.963 257.741 276.098 258.077 276.098 258.478C276.098 258.879 275.963 259.215 275.691 259.487C275.419 259.759 275.09 259.894 274.702 259.894ZM275.788 261.311V272H273.576V261.311H275.788ZM280.903 262.882C281.278 262.391 281.789 261.977 282.436 261.64C283.083 261.304 283.813 261.136 284.628 261.136C285.559 261.136 286.406 261.369 287.17 261.834C287.946 262.287 288.553 262.927 288.993 263.755C289.433 264.583 289.653 265.533 289.653 266.607C289.653 267.68 289.433 268.644 288.993 269.497C288.553 270.338 287.946 270.998 287.17 271.476C286.406 271.942 285.559 272.175 284.628 272.175C283.813 272.175 283.089 272.013 282.455 271.69C281.822 271.353 281.304 270.939 280.903 270.448V277.083H278.692V261.311H280.903V262.882ZM287.402 266.607C287.402 265.87 287.247 265.236 286.937 264.706C286.639 264.162 286.238 263.755 285.734 263.483C285.242 263.199 284.712 263.057 284.143 263.057C283.587 263.057 283.057 263.199 282.552 263.483C282.061 263.768 281.66 264.182 281.35 264.725C281.052 265.268 280.903 265.908 280.903 266.646C280.903 267.383 281.052 268.029 281.35 268.586C281.66 269.129 282.061 269.543 282.552 269.827C283.057 270.112 283.587 270.254 284.143 270.254C284.712 270.254 285.242 270.112 285.734 269.827C286.238 269.53 286.639 269.103 286.937 268.547C287.247 267.991 287.402 267.344 287.402 266.607ZM295.72 272.175C294.879 272.175 294.122 272.026 293.45 271.728C292.79 271.418 292.267 271.004 291.879 270.487C291.491 269.957 291.284 269.368 291.258 268.721H293.547C293.586 269.174 293.799 269.556 294.187 269.866C294.588 270.163 295.086 270.312 295.681 270.312C296.302 270.312 296.78 270.196 297.117 269.963C297.466 269.717 297.64 269.407 297.64 269.032C297.64 268.631 297.446 268.333 297.058 268.139C296.683 267.945 296.082 267.732 295.254 267.499C294.452 267.279 293.799 267.066 293.295 266.859C292.79 266.652 292.351 266.335 291.976 265.908C291.613 265.482 291.432 264.919 291.432 264.221C291.432 263.652 291.6 263.134 291.937 262.669C292.273 262.19 292.752 261.815 293.372 261.543C294.006 261.272 294.73 261.136 295.545 261.136C296.761 261.136 297.737 261.446 298.475 262.067C299.225 262.675 299.626 263.509 299.677 264.57H297.466C297.427 264.091 297.233 263.71 296.884 263.425C296.535 263.141 296.062 262.998 295.468 262.998C294.886 262.998 294.439 263.108 294.129 263.328C293.819 263.548 293.663 263.839 293.663 264.201C293.663 264.486 293.767 264.725 293.974 264.919C294.181 265.113 294.433 265.268 294.73 265.385C295.028 265.488 295.468 265.624 296.05 265.792C296.826 265.999 297.459 266.212 297.951 266.432C298.455 266.639 298.888 266.95 299.251 267.363C299.613 267.777 299.8 268.327 299.813 269.012C299.813 269.62 299.645 270.163 299.309 270.642C298.972 271.121 298.494 271.496 297.873 271.767C297.265 272.039 296.547 272.175 295.72 272.175ZM120.664 291.882C121.039 291.391 121.55 290.977 122.196 290.64C122.843 290.304 123.574 290.136 124.389 290.136C125.32 290.136 126.167 290.369 126.93 290.834C127.706 291.287 128.314 291.927 128.754 292.755C129.193 293.583 129.413 294.533 129.413 295.607C129.413 296.68 129.193 297.644 128.754 298.497C128.314 299.338 127.706 299.998 126.93 300.476C126.167 300.942 125.32 301.175 124.389 301.175C123.574 301.175 122.85 301.013 122.216 300.69C121.582 300.353 121.065 299.939 120.664 299.448V306.083H118.452V290.311H120.664V291.882ZM127.163 295.607C127.163 294.87 127.008 294.236 126.697 293.706C126.4 293.162 125.999 292.755 125.494 292.483C125.003 292.199 124.473 292.057 123.904 292.057C123.348 292.057 122.817 292.199 122.313 292.483C121.821 292.768 121.42 293.182 121.11 293.725C120.813 294.268 120.664 294.908 120.664 295.646C120.664 296.383 120.813 297.029 121.11 297.586C121.42 298.129 121.821 298.543 122.313 298.827C122.817 299.112 123.348 299.254 123.904 299.254C124.473 299.254 125.003 299.112 125.494 298.827C125.999 298.53 126.4 298.103 126.697 297.547C127.008 296.991 127.163 296.344 127.163 295.607ZM141.397 295.393C141.397 295.794 141.371 296.156 141.32 296.48H133.152C133.217 297.333 133.534 298.019 134.103 298.536C134.672 299.054 135.37 299.312 136.198 299.312C137.388 299.312 138.229 298.814 138.72 297.818H141.106C140.783 298.801 140.195 299.61 139.341 300.243C138.5 300.864 137.453 301.175 136.198 301.175C135.176 301.175 134.258 300.948 133.443 300.496C132.641 300.03 132.008 299.383 131.542 298.556C131.089 297.715 130.863 296.745 130.863 295.646C130.863 294.546 131.083 293.583 131.523 292.755C131.975 291.914 132.603 291.268 133.405 290.815C134.219 290.362 135.151 290.136 136.198 290.136C137.207 290.136 138.106 290.356 138.895 290.796C139.684 291.235 140.298 291.856 140.738 292.658C141.177 293.447 141.397 294.359 141.397 295.393ZM139.089 294.695C139.076 293.88 138.785 293.227 138.216 292.736C137.647 292.244 136.942 291.998 136.101 291.998C135.338 291.998 134.685 292.244 134.142 292.736C133.599 293.214 133.275 293.867 133.172 294.695H139.089ZM148.967 290.136C149.808 290.136 150.558 290.311 151.217 290.66C151.89 291.009 152.414 291.526 152.789 292.212C153.164 292.897 153.351 293.725 153.351 294.695V301H151.159V295.025C151.159 294.068 150.92 293.337 150.441 292.833C149.963 292.315 149.31 292.057 148.482 292.057C147.654 292.057 146.995 292.315 146.503 292.833C146.025 293.337 145.785 294.068 145.785 295.025V301H143.574V290.311H145.785V291.533C146.147 291.093 146.607 290.75 147.163 290.505C147.732 290.259 148.333 290.136 148.967 290.136ZM155.435 295.646C155.435 294.546 155.655 293.583 156.095 292.755C156.547 291.914 157.168 291.268 157.957 290.815C158.746 290.362 159.651 290.136 160.673 290.136C161.967 290.136 163.034 290.446 163.874 291.067C164.728 291.675 165.303 292.548 165.601 293.686H163.215C163.021 293.156 162.71 292.742 162.283 292.445C161.857 292.147 161.32 291.998 160.673 291.998C159.768 291.998 159.044 292.322 158.5 292.968C157.97 293.602 157.705 294.495 157.705 295.646C157.705 296.797 157.97 297.696 158.5 298.342C159.044 298.989 159.768 299.312 160.673 299.312C161.954 299.312 162.801 298.75 163.215 297.624H165.601C165.29 298.711 164.708 299.577 163.855 300.224C163.001 300.858 161.941 301.175 160.673 301.175C159.651 301.175 158.746 300.948 157.957 300.496C157.168 300.03 156.547 299.383 156.095 298.556C155.655 297.715 155.435 296.745 155.435 295.646ZM177.602 295.393C177.602 295.794 177.576 296.156 177.524 296.48H169.357C169.421 297.333 169.738 298.019 170.307 298.536C170.876 299.054 171.575 299.312 172.403 299.312C173.592 299.312 174.433 298.814 174.925 297.818H177.311C176.987 298.801 176.399 299.61 175.545 300.243C174.705 300.864 173.657 301.175 172.403 301.175C171.381 301.175 170.463 300.948 169.648 300.496C168.846 300.03 168.212 299.383 167.747 298.556C167.294 297.715 167.068 296.745 167.068 295.646C167.068 294.546 167.287 293.583 167.727 292.755C168.18 291.914 168.807 291.268 169.609 290.815C170.424 290.362 171.355 290.136 172.403 290.136C173.411 290.136 174.31 290.356 175.099 290.796C175.888 291.235 176.502 291.856 176.942 292.658C177.382 293.447 177.602 294.359 177.602 295.393ZM175.293 294.695C175.28 293.88 174.989 293.227 174.42 292.736C173.851 292.244 173.146 291.998 172.306 291.998C171.543 291.998 170.889 292.244 170.346 292.736C169.803 293.214 169.48 293.867 169.376 294.695H175.293ZM184.085 290.136C184.913 290.136 185.644 290.304 186.277 290.64C186.924 290.964 187.428 291.371 187.79 291.863V290.311H190.021V301.175C190.021 302.158 189.815 303.031 189.401 303.794C188.987 304.57 188.385 305.177 187.596 305.617C186.82 306.057 185.889 306.277 184.803 306.277C183.354 306.277 182.152 305.934 181.194 305.249C180.237 304.576 179.694 303.658 179.565 302.494H181.757C181.925 303.05 182.281 303.496 182.824 303.832C183.38 304.182 184.04 304.356 184.803 304.356C185.695 304.356 186.413 304.085 186.956 303.541C187.512 302.998 187.79 302.209 187.79 301.175V299.39C187.415 299.894 186.905 300.321 186.258 300.67C185.624 301.006 184.9 301.175 184.085 301.175C183.154 301.175 182.3 300.942 181.524 300.476C180.761 299.998 180.153 299.338 179.701 298.497C179.261 297.644 179.041 296.68 179.041 295.607C179.041 294.533 179.261 293.583 179.701 292.755C180.153 291.927 180.761 291.287 181.524 290.834C182.3 290.369 183.154 290.136 184.085 290.136ZM187.79 295.646C187.79 294.908 187.635 294.268 187.325 293.725C187.027 293.182 186.633 292.768 186.141 292.483C185.65 292.199 185.12 292.057 184.551 292.057C183.982 292.057 183.451 292.199 182.96 292.483C182.468 292.755 182.067 293.162 181.757 293.706C181.46 294.236 181.311 294.87 181.311 295.607C181.311 296.344 181.46 296.991 181.757 297.547C182.067 298.103 182.468 298.53 182.96 298.827C183.464 299.112 183.995 299.254 184.551 299.254C185.12 299.254 185.65 299.112 186.141 298.827C186.633 298.543 187.027 298.129 187.325 297.586C187.635 297.029 187.79 296.383 187.79 295.646ZM192.189 295.607C192.189 294.533 192.409 293.583 192.849 292.755C193.301 291.927 193.909 291.287 194.672 290.834C195.448 290.369 196.302 290.136 197.233 290.136C198.074 290.136 198.804 290.304 199.425 290.64C200.059 290.964 200.563 291.371 200.938 291.863V290.311H203.169V301H200.938V299.409C200.563 299.914 200.053 300.334 199.406 300.67C198.759 301.006 198.022 301.175 197.194 301.175C196.276 301.175 195.435 300.942 194.672 300.476C193.909 299.998 193.301 299.338 192.849 298.497C192.409 297.644 192.189 296.68 192.189 295.607ZM200.938 295.646C200.938 294.908 200.783 294.268 200.473 293.725C200.175 293.182 199.781 292.768 199.289 292.483C198.798 292.199 198.268 292.057 197.699 292.057C197.13 292.057 196.599 292.199 196.108 292.483C195.616 292.755 195.215 293.162 194.905 293.706C194.608 294.236 194.459 294.87 194.459 295.607C194.459 296.344 194.608 296.991 194.905 297.547C195.215 298.103 195.616 298.53 196.108 298.827C196.612 299.112 197.143 299.254 197.699 299.254C198.268 299.254 198.798 299.112 199.289 298.827C199.781 298.543 200.175 298.129 200.473 297.586C200.783 297.029 200.938 296.383 200.938 295.646ZM211.603 290.136C212.418 290.136 213.142 290.311 213.776 290.66C214.423 291.009 214.927 291.526 215.289 292.212C215.664 292.897 215.852 293.725 215.852 294.695V301H213.66V295.025C213.66 294.068 213.42 293.337 212.942 292.833C212.463 292.315 211.81 292.057 210.983 292.057C210.155 292.057 209.495 292.315 209.004 292.833C208.525 293.337 208.286 294.068 208.286 295.025V301H206.074V286.644H208.286V291.552C208.661 291.1 209.133 290.75 209.702 290.505C210.284 290.259 210.918 290.136 211.603 290.136ZM217.936 295.607C217.936 294.533 218.156 293.583 218.595 292.755C219.048 291.927 219.656 291.287 220.419 290.834C221.195 290.369 222.049 290.136 222.98 290.136C223.82 290.136 224.551 290.304 225.172 290.64C225.806 290.964 226.31 291.371 226.685 291.863V290.311H228.916V301H226.685V299.409C226.31 299.914 225.799 300.334 225.153 300.67C224.506 301.006 223.769 301.175 222.941 301.175C222.023 301.175 221.182 300.942 220.419 300.476C219.656 299.998 219.048 299.338 218.595 298.497C218.156 297.644 217.936 296.68 217.936 295.607ZM226.685 295.646C226.685 294.908 226.53 294.268 226.22 293.725C225.922 293.182 225.528 292.768 225.036 292.483C224.545 292.199 224.014 292.057 223.445 292.057C222.876 292.057 222.346 292.199 221.855 292.483C221.363 292.755 220.962 293.162 220.652 293.706C220.354 294.236 220.206 294.87 220.206 295.607C220.206 296.344 220.354 296.991 220.652 297.547C220.962 298.103 221.363 298.53 221.855 298.827C222.359 299.112 222.889 299.254 223.445 299.254C224.014 299.254 224.545 299.112 225.036 298.827C225.528 298.543 225.922 298.129 226.22 297.586C226.53 297.029 226.685 296.383 226.685 295.646ZM237.214 290.136C238.055 290.136 238.805 290.311 239.465 290.66C240.137 291.009 240.661 291.526 241.036 292.212C241.411 292.897 241.599 293.725 241.599 294.695V301H239.406V295.025C239.406 294.068 239.167 293.337 238.689 292.833C238.21 292.315 237.557 292.057 236.729 292.057C235.901 292.057 235.242 292.315 234.75 292.833C234.272 293.337 234.033 294.068 234.033 295.025V301H231.821V290.311H234.033V291.533C234.395 291.093 234.854 290.75 235.41 290.505C235.979 290.259 236.58 290.136 237.214 290.136ZM249.813 290.136C250.654 290.136 251.404 290.311 252.063 290.66C252.736 291.009 253.26 291.526 253.635 292.212C254.01 292.897 254.197 293.725 254.197 294.695V301H252.005V295.025C252.005 294.068 251.766 293.337 251.287 292.833C250.809 292.315 250.156 292.057 249.328 292.057C248.5 292.057 247.841 292.315 247.349 292.833C246.871 293.337 246.631 294.068 246.631 295.025V301H244.42V290.311H246.631V291.533C246.993 291.093 247.453 290.75 248.009 290.505C248.578 290.259 249.179 290.136 249.813 290.136ZM266.641 290.311L260.083 306.025H257.794L259.967 300.825L255.757 290.311H258.221L261.228 298.459L264.351 290.311H266.641ZM267.572 295.607C267.572 294.533 267.792 293.583 268.232 292.755C268.685 291.927 269.293 291.287 270.056 290.834C270.832 290.369 271.685 290.136 272.616 290.136C273.457 290.136 274.188 290.304 274.809 290.64C275.442 290.964 275.947 291.371 276.322 291.863V290.311H278.553V301H276.322V299.409C275.947 299.914 275.436 300.334 274.789 300.67C274.143 301.006 273.405 301.175 272.578 301.175C271.659 301.175 270.819 300.942 270.056 300.476C269.293 299.998 268.685 299.338 268.232 298.497C267.792 297.644 267.572 296.68 267.572 295.607ZM276.322 295.646C276.322 294.908 276.167 294.268 275.856 293.725C275.559 293.182 275.164 292.768 274.673 292.483C274.181 292.199 273.651 292.057 273.082 292.057C272.513 292.057 271.983 292.199 271.491 292.483C271 292.755 270.599 293.162 270.288 293.706C269.991 294.236 269.842 294.87 269.842 295.607C269.842 296.344 269.991 296.991 270.288 297.547C270.599 298.103 271 298.53 271.491 298.827C271.996 299.112 272.526 299.254 273.082 299.254C273.651 299.254 274.181 299.112 274.673 298.827C275.164 298.543 275.559 298.129 275.856 297.586C276.167 297.029 276.322 296.383 276.322 295.646Z" fill="#2B2B2B"/>
<defs>
<filter id="filter0_d_2_259" x="0" y="0" width="400" height="423" filterUnits="userSpaceOnUse" color-interpolation-filters="sRGB">
<feFlood flood-opacity="0" result="BackgroundImageFix"/>
<feColorMatrix in="SourceAlpha" type="matrix" values="0 0 0 0 0 0 0 0 0 0 0 0 0 0 0 0 0 0 127 0" result="hardAlpha"/>
<feOffset dx="4" dy="10"/>
<feGaussianBlur stdDeviation="15"/>
<feComposite in2="hardAlpha" operator="out"/>
<feColorMatrix type="matrix" values="0 0 0 0 0 0 0 0 0 0 0 0 0 0 0 0 0 0 0.03 0"/>
<feBlend mode="normal" in2="BackgroundImageFix" result="effect1_dropShadow_2_259"/>
<feBlend mode="normal" in="SourceGraphic" in2="effect1_dropShadow_2_259" result="shape"/>
</filter>
<filter id="filter1_d_2_259" x="125" y="60" width="150" height="150" filterUnits="userSpaceOnUse" color-interpolation-filters="sRGB">
<feFlood flood-opacity="0" result="BackgroundImageFix"/>
<feColorMatrix in="SourceAlpha" type="matrix" values="0 0 0 0 0 0 0 0 0 0 0 0 0 0 0 0 0 0 127 0" result="hardAlpha"/>
<feOffset dx="4" dy="10"/>
<feGaussianBlur stdDeviation="15"/>
<feComposite in2="hardAlpha" operator="out"/>
<feColorMatrix type="matrix" values="0 0 0 0 0.262745 0 0 0 0 0.380392 0 0 0 0 0.933333 0 0 0 0.4 0"/>
<feBlend mode="normal" in2="BackgroundImageFix" result="effect1_dropShadow_2_259"/>
<feBlend mode="normal" in="SourceGraphic" in2="effect1_dropShadow_2_259" result="shape"/>
</filter>
</defs>
</svg>
