<svg width="400" height="423" viewBox="0 0 400 423" fill="none" xmlns="http://www.w3.org/2000/svg">
<g filter="url(#filter0_d_2_273)">
<rect x="26" y="20" width="340" height="363" rx="30" fill="white"/>
</g>
<g filter="url(#filter1_d_2_273)">
<circle cx="196" cy="125" r="45" fill="#4361EE"/>
</g>
<path d="M62.2859 214L57.0673 207.967V214H54.8557V200.517H57.0673V206.667L62.3053 200.517H65.0795L59.2207 207.268L65.1765 214H62.2859ZM76.8128 203.311V214H74.6012V212.739C74.252 213.179 73.7929 213.528 73.2238 213.787C72.6677 214.032 72.0728 214.155 71.439 214.155C70.5984 214.155 69.8418 213.981 69.1692 213.631C68.5096 213.282 67.9858 212.765 67.5978 212.079C67.2228 211.394 67.0352 210.566 67.0352 209.596V203.311H69.2274V209.266C69.2274 210.223 69.4667 210.961 69.9452 211.478C70.4238 211.982 71.0769 212.235 71.9046 212.235C72.7324 212.235 73.3855 211.982 73.864 211.478C74.3555 210.961 74.6012 210.223 74.6012 209.266V203.311H76.8128ZM80.8561 201.894C80.4551 201.894 80.1189 201.759 79.8473 201.487C79.5757 201.215 79.4399 200.879 79.4399 200.478C79.4399 200.077 79.5757 199.741 79.8473 199.469C80.1189 199.198 80.4551 199.062 80.8561 199.062C81.2441 199.062 81.5739 199.198 81.8455 199.469C82.1171 199.741 82.2529 200.077 82.2529 200.478C82.2529 200.879 82.1171 201.215 81.8455 201.487C81.5739 201.759 81.2441 201.894 80.8561 201.894ZM81.9425 203.311V214H79.7309V203.311H81.9425ZM88.7261 214.175C87.8854 214.175 87.1288 214.026 86.4563 213.728C85.7967 213.418 85.2729 213.004 84.8849 212.487C84.4969 211.957 84.29 211.368 84.2641 210.721H86.5533C86.5921 211.174 86.8055 211.556 87.1935 211.866C87.5944 212.163 88.0924 212.312 88.6873 212.312C89.3081 212.312 89.7866 212.196 90.1229 211.963C90.4721 211.717 90.6467 211.407 90.6467 211.032C90.6467 210.631 90.4527 210.333 90.0647 210.139C89.6896 209.945 89.0882 209.732 88.2605 209.499C87.4586 209.279 86.8055 209.066 86.3011 208.859C85.7967 208.652 85.357 208.335 84.9819 207.908C84.6198 207.482 84.4387 206.919 84.4387 206.221C84.4387 205.652 84.6068 205.134 84.9431 204.669C85.2794 204.19 85.7579 203.815 86.3787 203.543C87.0124 203.272 87.7367 203.136 88.5515 203.136C89.7672 203.136 90.7437 203.446 91.4809 204.067C92.231 204.675 92.632 205.509 92.6837 206.57H90.4721C90.4333 206.091 90.2393 205.71 89.8901 205.425C89.5409 205.141 89.0688 204.998 88.4739 204.998C87.8919 204.998 87.4457 205.108 87.1353 205.328C86.8249 205.548 86.6697 205.839 86.6697 206.201C86.6697 206.486 86.7732 206.725 86.9801 206.919C87.187 207.113 87.4392 207.268 87.7367 207.385C88.0342 207.488 88.4739 207.624 89.0559 207.792C89.8319 207.999 90.4656 208.212 90.9571 208.432C91.4615 208.639 91.8948 208.95 92.2569 209.363C92.619 209.777 92.8066 210.327 92.8195 211.012C92.8195 211.62 92.6514 212.163 92.3151 212.642C91.9788 213.121 91.5003 213.496 90.8795 213.767C90.2716 214.039 89.5538 214.175 88.7261 214.175ZM109.677 204.533C109.677 205.218 109.515 205.865 109.192 206.473C108.869 207.081 108.351 207.579 107.64 207.967C106.929 208.342 106.017 208.529 104.905 208.529H102.46V214H100.249V200.517H104.905C105.939 200.517 106.812 200.698 107.524 201.06C108.248 201.409 108.785 201.888 109.134 202.496C109.496 203.104 109.677 203.783 109.677 204.533ZM104.905 206.725C105.745 206.725 106.373 206.537 106.786 206.162C107.2 205.774 107.407 205.231 107.407 204.533C107.407 203.058 106.573 202.321 104.905 202.321H102.46V206.725H104.905ZM121.583 208.393C121.583 208.794 121.557 209.156 121.506 209.48H113.338C113.403 210.333 113.72 211.019 114.289 211.536C114.858 212.054 115.556 212.312 116.384 212.312C117.574 212.312 118.415 211.814 118.906 210.818H121.292C120.969 211.801 120.381 212.61 119.527 213.243C118.686 213.864 117.639 214.175 116.384 214.175C115.362 214.175 114.444 213.948 113.629 213.496C112.827 213.03 112.194 212.383 111.728 211.556C111.275 210.715 111.049 209.745 111.049 208.646C111.049 207.546 111.269 206.583 111.709 205.755C112.161 204.914 112.789 204.268 113.591 203.815C114.405 203.362 115.337 203.136 116.384 203.136C117.393 203.136 118.292 203.356 119.081 203.796C119.87 204.235 120.484 204.856 120.924 205.658C121.363 206.447 121.583 207.359 121.583 208.393ZM119.275 207.695C119.262 206.88 118.971 206.227 118.402 205.736C117.833 205.244 117.128 204.998 116.287 204.998C115.524 204.998 114.871 205.244 114.328 205.736C113.785 206.214 113.461 206.867 113.358 207.695H119.275ZM136.7 203.136C137.54 203.136 138.29 203.311 138.95 203.66C139.623 204.009 140.146 204.526 140.521 205.212C140.909 205.897 141.103 206.725 141.103 207.695V214H138.911V208.025C138.911 207.068 138.672 206.337 138.193 205.833C137.715 205.315 137.062 205.057 136.234 205.057C135.406 205.057 134.747 205.315 134.255 205.833C133.777 206.337 133.537 207.068 133.537 208.025V214H131.345V208.025C131.345 207.068 131.106 206.337 130.627 205.833C130.149 205.315 129.496 205.057 128.668 205.057C127.84 205.057 127.181 205.315 126.689 205.833C126.211 206.337 125.971 207.068 125.971 208.025V214H123.76V203.311H125.971V204.533C126.334 204.093 126.793 203.75 127.349 203.505C127.905 203.259 128.5 203.136 129.134 203.136C129.987 203.136 130.75 203.317 131.423 203.679C132.095 204.041 132.613 204.565 132.975 205.251C133.298 204.604 133.803 204.093 134.488 203.718C135.173 203.33 135.911 203.136 136.7 203.136ZM143.18 208.607C143.18 207.533 143.4 206.583 143.84 205.755C144.293 204.927 144.901 204.287 145.664 203.834C146.44 203.369 147.293 203.136 148.224 203.136C149.065 203.136 149.796 203.304 150.417 203.64C151.05 203.964 151.555 204.371 151.93 204.863V203.311H154.161V214H151.93V212.409C151.555 212.914 151.044 213.334 150.397 213.67C149.751 214.006 149.013 214.175 148.186 214.175C147.267 214.175 146.427 213.942 145.664 213.476C144.901 212.998 144.293 212.338 143.84 211.497C143.4 210.644 143.18 209.68 143.18 208.607ZM151.93 208.646C151.93 207.908 151.775 207.268 151.464 206.725C151.167 206.182 150.772 205.768 150.281 205.483C149.789 205.199 149.259 205.057 148.69 205.057C148.121 205.057 147.591 205.199 147.099 205.483C146.608 205.755 146.207 206.162 145.896 206.706C145.599 207.236 145.45 207.87 145.45 208.607C145.45 209.344 145.599 209.991 145.896 210.547C146.207 211.103 146.608 211.53 147.099 211.827C147.604 212.112 148.134 212.254 148.69 212.254C149.259 212.254 149.789 212.112 150.281 211.827C150.772 211.543 151.167 211.129 151.464 210.586C151.775 210.029 151.93 209.383 151.93 208.646ZM162.595 203.136C163.409 203.136 164.134 203.311 164.767 203.66C165.414 204.009 165.919 204.526 166.281 205.212C166.656 205.897 166.843 206.725 166.843 207.695V214H164.651V208.025C164.651 207.068 164.412 206.337 163.933 205.833C163.455 205.315 162.802 205.057 161.974 205.057C161.146 205.057 160.487 205.315 159.995 205.833C159.517 206.337 159.277 207.068 159.277 208.025V214H157.066V199.644H159.277V204.552C159.652 204.1 160.124 203.75 160.693 203.505C161.275 203.259 161.909 203.136 162.595 203.136ZM168.927 208.607C168.927 207.533 169.147 206.583 169.587 205.755C170.039 204.927 170.647 204.287 171.41 203.834C172.186 203.369 173.04 203.136 173.971 203.136C174.812 203.136 175.542 203.304 176.163 203.64C176.797 203.964 177.301 204.371 177.676 204.863V203.311H179.907V214H177.676V212.409C177.301 212.914 176.791 213.334 176.144 213.67C175.497 214.006 174.76 214.175 173.932 214.175C173.014 214.175 172.173 213.942 171.41 213.476C170.647 212.998 170.039 212.338 169.587 211.497C169.147 210.644 168.927 209.68 168.927 208.607ZM177.676 208.646C177.676 207.908 177.521 207.268 177.211 206.725C176.913 206.182 176.519 205.768 176.027 205.483C175.536 205.199 175.006 205.057 174.437 205.057C173.868 205.057 173.337 205.199 172.846 205.483C172.354 205.755 171.953 206.162 171.643 206.706C171.346 207.236 171.197 207.87 171.197 208.607C171.197 209.344 171.346 209.991 171.643 210.547C171.953 211.103 172.354 211.53 172.846 211.827C173.35 212.112 173.881 212.254 174.437 212.254C175.006 212.254 175.536 212.112 176.027 211.827C176.519 211.543 176.913 211.129 177.211 210.586C177.521 210.029 177.676 209.383 177.676 208.646ZM195.752 203.136C196.593 203.136 197.343 203.311 198.003 203.66C198.675 204.009 199.199 204.526 199.574 205.212C199.962 205.897 200.156 206.725 200.156 207.695V214H197.964V208.025C197.964 207.068 197.724 206.337 197.246 205.833C196.767 205.315 196.114 205.057 195.287 205.057C194.459 205.057 193.799 205.315 193.308 205.833C192.829 206.337 192.59 207.068 192.59 208.025V214H190.398V208.025C190.398 207.068 190.158 206.337 189.68 205.833C189.201 205.315 188.548 205.057 187.721 205.057C186.893 205.057 186.233 205.315 185.742 205.833C185.263 206.337 185.024 207.068 185.024 208.025V214H182.812V203.311H185.024V204.533C185.386 204.093 185.845 203.75 186.401 203.505C186.957 203.259 187.552 203.136 188.186 203.136C189.04 203.136 189.803 203.317 190.475 203.679C191.148 204.041 191.665 204.565 192.027 205.251C192.351 204.604 192.855 204.093 193.541 203.718C194.226 203.33 194.963 203.136 195.752 203.136ZM202.233 208.607C202.233 207.533 202.453 206.583 202.893 205.755C203.345 204.927 203.953 204.287 204.716 203.834C205.492 203.369 206.346 203.136 207.277 203.136C208.118 203.136 208.848 203.304 209.469 203.64C210.103 203.964 210.607 204.371 210.982 204.863V203.311H213.213V214H210.982V212.409C210.607 212.914 210.096 213.334 209.45 213.67C208.803 214.006 208.066 214.175 207.238 214.175C206.32 214.175 205.479 213.942 204.716 213.476C203.953 212.998 203.345 212.338 202.893 211.497C202.453 210.644 202.233 209.68 202.233 208.607ZM210.982 208.646C210.982 207.908 210.827 207.268 210.517 206.725C210.219 206.182 209.825 205.768 209.333 205.483C208.842 205.199 208.312 205.057 207.743 205.057C207.173 205.057 206.643 205.199 206.152 205.483C205.66 205.755 205.259 206.162 204.949 206.706C204.651 207.236 204.503 207.87 204.503 208.607C204.503 209.344 204.651 209.991 204.949 210.547C205.259 211.103 205.66 211.53 206.152 211.827C206.656 212.112 207.186 212.254 207.743 212.254C208.312 212.254 208.842 212.112 209.333 211.827C209.825 211.543 210.219 211.129 210.517 210.586C210.827 210.029 210.982 209.383 210.982 208.646ZM221.511 203.136C222.352 203.136 223.102 203.311 223.762 203.66C224.434 204.009 224.958 204.526 225.333 205.212C225.708 205.897 225.896 206.725 225.896 207.695V214H223.704V208.025C223.704 207.068 223.464 206.337 222.986 205.833C222.507 205.315 221.854 205.057 221.026 205.057C220.199 205.057 219.539 205.315 219.048 205.833C218.569 206.337 218.33 207.068 218.33 208.025V214H216.118V203.311H218.33V204.533C218.692 204.093 219.151 203.75 219.707 203.505C220.276 203.259 220.878 203.136 221.511 203.136ZM241.186 214L235.968 207.967V214H233.756V200.517H235.968V206.667L241.206 200.517H243.98L238.121 207.268L244.077 214H241.186ZM255.83 208.393C255.83 208.794 255.804 209.156 255.752 209.48H247.585C247.649 210.333 247.966 211.019 248.535 211.536C249.104 212.054 249.803 212.312 250.631 212.312C251.82 212.312 252.661 211.814 253.153 210.818H255.539C255.215 211.801 254.627 212.61 253.773 213.243C252.933 213.864 251.885 214.175 250.631 214.175C249.609 214.175 248.691 213.948 247.876 213.496C247.074 213.03 246.44 212.383 245.975 211.556C245.522 210.715 245.296 209.745 245.296 208.646C245.296 207.546 245.515 206.583 245.955 205.755C246.408 204.914 247.035 204.268 247.837 203.815C248.652 203.362 249.583 203.136 250.631 203.136C251.639 203.136 252.538 203.356 253.327 203.796C254.116 204.235 254.73 204.856 255.17 205.658C255.61 206.447 255.83 207.359 255.83 208.393ZM253.521 207.695C253.508 206.88 253.217 206.227 252.648 205.736C252.079 205.244 251.374 204.998 250.534 204.998C249.771 204.998 249.117 205.244 248.574 205.736C248.031 206.214 247.708 206.867 247.604 207.695H253.521ZM261.886 214.175C261.046 214.175 260.289 214.026 259.616 213.728C258.957 213.418 258.433 213.004 258.045 212.487C257.657 211.957 257.45 211.368 257.424 210.721H259.713C259.752 211.174 259.966 211.556 260.354 211.866C260.755 212.163 261.253 212.312 261.847 212.312C262.468 212.312 262.947 212.196 263.283 211.963C263.632 211.717 263.807 211.407 263.807 211.032C263.807 210.631 263.613 210.333 263.225 210.139C262.85 209.945 262.248 209.732 261.421 209.499C260.619 209.279 259.966 209.066 259.461 208.859C258.957 208.652 258.517 208.335 258.142 207.908C257.78 207.482 257.599 206.919 257.599 206.221C257.599 205.652 257.767 205.134 258.103 204.669C258.44 204.19 258.918 203.815 259.539 203.543C260.173 203.272 260.897 203.136 261.712 203.136C262.927 203.136 263.904 203.446 264.641 204.067C265.391 204.675 265.792 205.509 265.844 206.57H263.632C263.593 206.091 263.399 205.71 263.05 205.425C262.701 205.141 262.229 204.998 261.634 204.998C261.052 204.998 260.606 205.108 260.295 205.328C259.985 205.548 259.83 205.839 259.83 206.201C259.83 206.486 259.933 206.725 260.14 206.919C260.347 207.113 260.599 207.268 260.897 207.385C261.194 207.488 261.634 207.624 262.216 207.792C262.992 207.999 263.626 208.212 264.117 208.432C264.622 208.639 265.055 208.95 265.417 209.363C265.779 209.777 265.967 210.327 265.98 211.012C265.98 211.62 265.812 212.163 265.475 212.642C265.139 213.121 264.66 213.496 264.04 213.767C263.432 214.039 262.714 214.175 261.886 214.175ZM278.166 208.393C278.166 208.794 278.14 209.156 278.089 209.48H269.921C269.986 210.333 270.303 211.019 270.872 211.536C271.441 212.054 272.139 212.312 272.967 212.312C274.157 212.312 274.998 211.814 275.489 210.818H277.875C277.552 211.801 276.964 212.61 276.11 213.243C275.269 213.864 274.222 214.175 272.967 214.175C271.945 214.175 271.027 213.948 270.212 213.496C269.41 213.03 268.777 212.383 268.311 211.556C267.858 210.715 267.632 209.745 267.632 208.646C267.632 207.546 267.852 206.583 268.292 205.755C268.744 204.914 269.372 204.268 270.174 203.815C270.988 203.362 271.92 203.136 272.967 203.136C273.976 203.136 274.875 203.356 275.664 203.796C276.453 204.235 277.067 204.856 277.507 205.658C277.946 206.447 278.166 207.359 278.166 208.393ZM275.858 207.695C275.845 206.88 275.554 206.227 274.985 205.736C274.416 205.244 273.711 204.998 272.87 204.998C272.107 204.998 271.454 205.244 270.911 205.736C270.368 206.214 270.044 206.867 269.941 207.695H275.858ZM285.872 203.136C286.687 203.136 287.411 203.311 288.045 203.66C288.691 204.009 289.196 204.526 289.558 205.212C289.933 205.897 290.12 206.725 290.12 207.695V214H287.928V208.025C287.928 207.068 287.689 206.337 287.21 205.833C286.732 205.315 286.079 205.057 285.251 205.057C284.423 205.057 283.764 205.315 283.272 205.833C282.794 206.337 282.554 207.068 282.554 208.025V214H280.343V199.644H282.554V204.552C282.929 204.1 283.402 203.75 283.971 203.505C284.553 203.259 285.186 203.136 285.872 203.136ZM292.204 208.607C292.204 207.533 292.424 206.583 292.864 205.755C293.316 204.927 293.924 204.287 294.687 203.834C295.463 203.369 296.317 203.136 297.248 203.136C298.089 203.136 298.82 203.304 299.44 203.64C300.074 203.964 300.579 204.371 300.954 204.863V203.311H303.185V214H300.954V212.409C300.579 212.914 300.068 213.334 299.421 213.67C298.774 214.006 298.037 214.175 297.209 214.175C296.291 214.175 295.45 213.942 294.687 213.476C293.924 212.998 293.316 212.338 292.864 211.497C292.424 210.644 292.204 209.68 292.204 208.607ZM300.954 208.646C300.954 207.908 300.798 207.268 300.488 206.725C300.191 206.182 299.796 205.768 299.305 205.483C298.813 205.199 298.283 205.057 297.714 205.057C297.145 205.057 296.614 205.199 296.123 205.483C295.632 205.755 295.231 206.162 294.92 206.706C294.623 207.236 294.474 207.87 294.474 208.607C294.474 209.344 294.623 209.991 294.92 210.547C295.231 211.103 295.632 211.53 296.123 211.827C296.627 212.112 297.158 212.254 297.714 212.254C298.283 212.254 298.813 212.112 299.305 211.827C299.796 211.543 300.191 211.129 300.488 210.586C300.798 210.029 300.954 209.383 300.954 208.646ZM308.67 205.115V211.032C308.67 211.433 308.76 211.724 308.941 211.905C309.135 212.073 309.459 212.157 309.911 212.157H311.269V214H309.523C308.527 214 307.764 213.767 307.234 213.302C306.704 212.836 306.439 212.079 306.439 211.032V205.115H305.178V203.311H306.439V200.653H308.67V203.311H311.269V205.115H308.67ZM312.57 208.607C312.57 207.533 312.79 206.583 313.23 205.755C313.683 204.927 314.291 204.287 315.054 203.834C315.83 203.369 316.683 203.136 317.614 203.136C318.455 203.136 319.186 203.304 319.807 203.64C320.44 203.964 320.945 204.371 321.32 204.863V203.311H323.551V214H321.32V212.409C320.945 212.914 320.434 213.334 319.787 213.67C319.141 214.006 318.403 214.175 317.576 214.175C316.657 214.175 315.817 213.942 315.054 213.476C314.291 212.998 313.683 212.338 313.23 211.497C312.79 210.644 312.57 209.68 312.57 208.607ZM321.32 208.646C321.32 207.908 321.165 207.268 320.854 206.725C320.557 206.182 320.162 205.768 319.671 205.483C319.179 205.199 318.649 205.057 318.08 205.057C317.511 205.057 316.981 205.199 316.489 205.483C315.998 205.755 315.597 206.162 315.286 206.706C314.989 207.236 314.84 207.87 314.84 208.607C314.84 209.344 314.989 209.991 315.286 210.547C315.597 211.103 315.998 211.53 316.489 211.827C316.994 212.112 317.524 212.254 318.08 212.254C318.649 212.254 319.179 212.112 319.671 211.827C320.162 211.543 320.557 211.129 320.854 210.586C321.165 210.029 321.32 209.383 321.32 208.646ZM331.849 203.136C332.69 203.136 333.44 203.311 334.099 203.66C334.772 204.009 335.296 204.526 335.671 205.212C336.046 205.897 336.233 206.725 336.233 207.695V214H334.041V208.025C334.041 207.068 333.802 206.337 333.323 205.833C332.845 205.315 332.192 205.057 331.364 205.057C330.536 205.057 329.877 205.315 329.385 205.833C328.907 206.337 328.667 207.068 328.667 208.025V214H326.456V203.311H328.667V204.533C329.029 204.093 329.489 203.75 330.045 203.505C330.614 203.259 331.215 203.136 331.849 203.136Z" fill="#2B2B2B"/>
<path d="M98.2732 233.848V240.904C98.2732 241.896 98.5132 242.632 98.9932 243.112C99.4839 243.592 100.161 243.832 101.025 243.832C101.879 243.832 102.545 243.592 103.025 243.112C103.516 242.632 103.761 241.896 103.761 240.904V233.848H105.217V240.888C105.217 241.816 105.031 242.6 104.657 243.24C104.284 243.869 103.777 244.339 103.137 244.648C102.508 244.957 101.799 245.112 101.009 245.112C100.22 245.112 99.5052 244.957 98.8652 244.648C98.2359 244.339 97.7345 243.869 97.3612 243.24C96.9985 242.6 96.8172 241.816 96.8172 240.888V233.848H98.2732ZM108.43 234.808C108.153 234.808 107.918 234.712 107.726 234.52C107.545 234.328 107.454 234.093 107.454 233.816C107.454 233.539 107.545 233.304 107.726 233.112C107.918 232.92 108.153 232.824 108.43 232.824C108.707 232.824 108.937 232.92 109.118 233.112C109.31 233.304 109.406 233.539 109.406 233.816C109.406 234.093 109.31 234.328 109.118 234.52C108.937 234.712 108.707 234.808 108.43 234.808ZM109.15 246.904C109.15 247.683 108.953 248.253 108.558 248.616C108.163 248.979 107.587 249.16 106.83 249.16H105.982V247.928H106.59C106.995 247.928 107.278 247.848 107.438 247.688C107.609 247.528 107.694 247.256 107.694 246.872V236.232H109.15V246.904ZM112.367 234.808C112.089 234.808 111.855 234.712 111.663 234.52C111.471 234.328 111.375 234.093 111.375 233.816C111.375 233.539 111.471 233.304 111.663 233.112C111.855 232.92 112.089 232.824 112.367 232.824C112.633 232.824 112.857 232.92 113.039 233.112C113.231 233.304 113.327 233.539 113.327 233.816C113.327 234.093 113.231 234.328 113.039 234.52C112.857 234.712 112.633 234.808 112.367 234.808ZM113.071 236.232V245H111.615V236.232H113.071ZM121.274 237.848C121.562 237.347 121.989 236.931 122.554 236.6C123.13 236.259 123.797 236.088 124.554 236.088C125.333 236.088 126.037 236.275 126.666 236.648C127.306 237.021 127.807 237.549 128.17 238.232C128.533 238.904 128.714 239.688 128.714 240.584C128.714 241.469 128.533 242.259 128.17 242.952C127.807 243.645 127.306 244.184 126.666 244.568C126.037 244.952 125.333 245.144 124.554 245.144C123.807 245.144 123.146 244.979 122.57 244.648C122.005 244.307 121.573 243.885 121.274 243.384V249.16H119.818V236.232H121.274V237.848ZM127.226 240.584C127.226 239.923 127.093 239.347 126.826 238.856C126.559 238.365 126.197 237.992 125.738 237.736C125.29 237.48 124.794 237.352 124.25 237.352C123.717 237.352 123.221 237.485 122.762 237.752C122.314 238.008 121.951 238.387 121.674 238.888C121.407 239.379 121.274 239.949 121.274 240.6C121.274 241.261 121.407 241.843 121.674 242.344C121.951 242.835 122.314 243.213 122.762 243.48C123.221 243.736 123.717 243.864 124.25 243.864C124.794 243.864 125.29 243.736 125.738 243.48C126.197 243.213 126.559 242.835 126.826 242.344C127.093 241.843 127.226 241.256 127.226 240.584ZM138.63 240.28C138.63 240.557 138.614 240.851 138.582 241.16H131.574C131.628 242.024 131.921 242.701 132.454 243.192C132.998 243.672 133.654 243.912 134.422 243.912C135.052 243.912 135.574 243.768 135.99 243.48C136.417 243.181 136.716 242.787 136.886 242.296H138.454C138.22 243.139 137.75 243.827 137.046 244.36C136.342 244.883 135.468 245.144 134.422 245.144C133.59 245.144 132.844 244.957 132.182 244.584C131.532 244.211 131.02 243.683 130.646 243C130.273 242.307 130.086 241.507 130.086 240.6C130.086 239.693 130.268 238.899 130.63 238.216C130.993 237.533 131.5 237.011 132.15 236.648C132.812 236.275 133.569 236.088 134.422 236.088C135.254 236.088 135.99 236.269 136.63 236.632C137.27 236.995 137.761 237.496 138.102 238.136C138.454 238.765 138.63 239.48 138.63 240.28ZM137.126 239.976C137.126 239.421 137.004 238.947 136.758 238.552C136.513 238.147 136.177 237.843 135.75 237.64C135.334 237.427 134.87 237.32 134.358 237.32C133.622 237.32 132.993 237.555 132.47 238.024C131.958 238.493 131.665 239.144 131.59 239.976H137.126ZM144.824 236.072C145.891 236.072 146.755 236.397 147.416 237.048C148.078 237.688 148.408 238.616 148.408 239.832V245H146.968V240.04C146.968 239.165 146.75 238.499 146.312 238.04C145.875 237.571 145.278 237.336 144.52 237.336C143.752 237.336 143.139 237.576 142.68 238.056C142.232 238.536 142.008 239.235 142.008 240.152V245H140.552V236.232H142.008V237.48C142.296 237.032 142.686 236.685 143.176 236.44C143.678 236.195 144.227 236.072 144.824 236.072ZM154.403 236.088C155.16 236.088 155.821 236.253 156.387 236.584C156.963 236.915 157.389 237.331 157.667 237.832V236.232H159.139V245.192C159.139 245.992 158.968 246.701 158.627 247.32C158.285 247.949 157.795 248.44 157.155 248.792C156.525 249.144 155.789 249.32 154.947 249.32C153.795 249.32 152.835 249.048 152.067 248.504C151.299 247.96 150.845 247.219 150.707 246.28H152.147C152.307 246.813 152.637 247.24 153.139 247.56C153.64 247.891 154.243 248.056 154.947 248.056C155.747 248.056 156.397 247.805 156.899 247.304C157.411 246.803 157.667 246.099 157.667 245.192V243.352C157.379 243.864 156.952 244.291 156.387 244.632C155.821 244.973 155.16 245.144 154.403 245.144C153.624 245.144 152.915 244.952 152.275 244.568C151.645 244.184 151.149 243.645 150.787 242.952C150.424 242.259 150.243 241.469 150.243 240.584C150.243 239.688 150.424 238.904 150.787 238.232C151.149 237.549 151.645 237.021 152.275 236.648C152.915 236.275 153.624 236.088 154.403 236.088ZM157.667 240.6C157.667 239.939 157.533 239.363 157.267 238.872C157 238.381 156.637 238.008 156.179 237.752C155.731 237.485 155.235 237.352 154.691 237.352C154.147 237.352 153.651 237.48 153.203 237.736C152.755 237.992 152.397 238.365 152.131 238.856C151.864 239.347 151.731 239.923 151.731 240.584C151.731 241.256 151.864 241.843 152.131 242.344C152.397 242.835 152.755 243.213 153.203 243.48C153.651 243.736 154.147 243.864 154.691 243.864C155.235 243.864 155.731 243.736 156.179 243.48C156.637 243.213 157 242.835 157.267 242.344C157.533 241.843 157.667 241.261 157.667 240.6ZM169.599 240.28C169.599 240.557 169.583 240.851 169.551 241.16H162.543C162.597 242.024 162.89 242.701 163.423 243.192C163.967 243.672 164.623 243.912 165.391 243.912C166.021 243.912 166.543 243.768 166.959 243.48C167.386 243.181 167.685 242.787 167.855 242.296H169.423C169.189 243.139 168.719 243.827 168.015 244.36C167.311 244.883 166.437 245.144 165.391 245.144C164.559 245.144 163.813 244.957 163.151 244.584C162.501 244.211 161.989 243.683 161.615 243C161.242 242.307 161.055 241.507 161.055 240.6C161.055 239.693 161.237 238.899 161.599 238.216C161.962 237.533 162.469 237.011 163.119 236.648C163.781 236.275 164.538 236.088 165.391 236.088C166.223 236.088 166.959 236.269 167.599 236.632C168.239 236.995 168.73 237.496 169.071 238.136C169.423 238.765 169.599 239.48 169.599 240.28ZM168.095 239.976C168.095 239.421 167.973 238.947 167.727 238.552C167.482 238.147 167.146 237.843 166.719 237.64C166.303 237.427 165.839 237.32 165.327 237.32C164.591 237.32 163.962 237.555 163.439 238.024C162.927 238.493 162.634 239.144 162.559 239.976H168.095ZM173.297 237.432V242.6C173.297 243.027 173.388 243.331 173.569 243.512C173.75 243.683 174.065 243.768 174.513 243.768H175.585V245H174.273C173.462 245 172.854 244.813 172.449 244.44C172.044 244.067 171.841 243.453 171.841 242.6V237.432H170.705V236.232H171.841V234.024H173.297V236.232H175.585V237.432H173.297ZM176.805 240.584C176.805 239.688 176.987 238.904 177.349 238.232C177.712 237.549 178.208 237.021 178.837 236.648C179.477 236.275 180.187 236.088 180.965 236.088C181.733 236.088 182.4 236.253 182.965 236.584C183.531 236.915 183.952 237.331 184.229 237.832V236.232H185.701V245H184.229V243.368C183.941 243.88 183.509 244.307 182.933 244.648C182.368 244.979 181.707 245.144 180.949 245.144C180.171 245.144 179.467 244.952 178.837 244.568C178.208 244.184 177.712 243.645 177.349 242.952C176.987 242.259 176.805 241.469 176.805 240.584ZM184.229 240.6C184.229 239.939 184.096 239.363 183.829 238.872C183.563 238.381 183.2 238.008 182.741 237.752C182.293 237.485 181.797 237.352 181.253 237.352C180.709 237.352 180.213 237.48 179.765 237.736C179.317 237.992 178.96 238.365 178.693 238.856C178.427 239.347 178.293 239.923 178.293 240.584C178.293 241.256 178.427 241.843 178.693 242.344C178.96 242.835 179.317 243.213 179.765 243.48C180.213 243.736 180.709 243.864 181.253 243.864C181.797 243.864 182.293 243.736 182.741 243.48C183.2 243.213 183.563 242.835 183.829 242.344C184.096 241.843 184.229 241.261 184.229 240.6ZM192.514 236.072C193.175 236.072 193.772 236.216 194.306 236.504C194.839 236.781 195.255 237.203 195.554 237.768C195.863 238.333 196.018 239.021 196.018 239.832V245H194.578V240.04C194.578 239.165 194.359 238.499 193.922 238.04C193.484 237.571 192.887 237.336 192.13 237.336C191.362 237.336 190.748 237.576 190.29 238.056C189.842 238.536 189.618 239.235 189.618 240.152V245H188.162V233.16H189.618V237.48C189.906 237.032 190.3 236.685 190.802 236.44C191.314 236.195 191.884 236.072 192.514 236.072ZM206.172 236.232V245H204.716V243.704C204.439 244.152 204.049 244.504 203.548 244.76C203.057 245.005 202.513 245.128 201.916 245.128C201.233 245.128 200.62 244.989 200.076 244.712C199.532 244.424 199.1 243.997 198.78 243.432C198.471 242.867 198.316 242.179 198.316 241.368V236.232H199.756V241.176C199.756 242.04 199.975 242.707 200.412 243.176C200.849 243.635 201.447 243.864 202.204 243.864C202.983 243.864 203.596 243.624 204.044 243.144C204.492 242.664 204.716 241.965 204.716 241.048V236.232H206.172ZM208.086 240.584C208.086 239.688 208.268 238.904 208.63 238.232C208.993 237.549 209.489 237.021 210.118 236.648C210.758 236.275 211.468 236.088 212.246 236.088C213.014 236.088 213.681 236.253 214.246 236.584C214.812 236.915 215.233 237.331 215.51 237.832V236.232H216.982V245H215.51V243.368C215.222 243.88 214.79 244.307 214.214 244.648C213.649 244.979 212.988 245.144 212.23 245.144C211.452 245.144 210.748 244.952 210.118 244.568C209.489 244.184 208.993 243.645 208.63 242.952C208.268 242.259 208.086 241.469 208.086 240.584ZM215.51 240.6C215.51 239.939 215.377 239.363 215.11 238.872C214.844 238.381 214.481 238.008 214.022 237.752C213.574 237.485 213.078 237.352 212.534 237.352C211.99 237.352 211.494 237.48 211.046 237.736C210.598 237.992 210.241 238.365 209.974 238.856C209.708 239.347 209.574 239.923 209.574 240.584C209.574 241.256 209.708 241.843 209.974 242.344C210.241 242.835 210.598 243.213 211.046 243.48C211.494 243.736 211.99 243.864 212.534 243.864C213.078 243.864 213.574 243.736 214.022 243.48C214.481 243.213 214.844 242.835 215.11 242.344C215.377 241.843 215.51 241.261 215.51 240.6ZM223.715 236.072C224.782 236.072 225.646 236.397 226.307 237.048C226.968 237.688 227.299 238.616 227.299 239.832V245H225.859V240.04C225.859 239.165 225.64 238.499 225.203 238.04C224.766 237.571 224.168 237.336 223.411 237.336C222.643 237.336 222.03 237.576 221.571 238.056C221.123 238.536 220.899 239.235 220.899 240.152V245H219.443V236.232H220.899V237.48C221.187 237.032 221.576 236.685 222.067 236.44C222.568 236.195 223.118 236.072 223.715 236.072ZM235.719 237.432V242.6C235.719 243.027 235.81 243.331 235.991 243.512C236.172 243.683 236.487 243.768 236.935 243.768H238.007V245H236.695C235.884 245 235.276 244.813 234.871 244.44C234.466 244.067 234.263 243.453 234.263 242.6V237.432H233.127V236.232H234.263V234.024H235.719V236.232H238.007V237.432H235.719ZM247.771 240.28C247.771 240.557 247.755 240.851 247.723 241.16H240.715C240.768 242.024 241.062 242.701 241.595 243.192C242.139 243.672 242.795 243.912 243.563 243.912C244.192 243.912 244.715 243.768 245.131 243.48C245.558 243.181 245.856 242.787 246.027 242.296H247.595C247.36 243.139 246.891 243.827 246.187 244.36C245.483 244.883 244.608 245.144 243.563 245.144C242.731 245.144 241.984 244.957 241.323 244.584C240.672 244.211 240.16 243.683 239.787 243C239.414 242.307 239.227 241.507 239.227 240.6C239.227 239.693 239.408 238.899 239.771 238.216C240.134 237.533 240.64 237.011 241.291 236.648C241.952 236.275 242.71 236.088 243.563 236.088C244.395 236.088 245.131 236.269 245.771 236.632C246.411 236.995 246.902 237.496 247.243 238.136C247.595 238.765 247.771 239.48 247.771 240.28ZM246.267 239.976C246.267 239.421 246.144 238.947 245.899 238.552C245.654 238.147 245.318 237.843 244.891 237.64C244.475 237.427 244.011 237.32 243.499 237.32C242.763 237.32 242.134 237.555 241.611 238.024C241.099 238.493 240.806 239.144 240.731 239.976H246.267ZM253.965 236.072C255.032 236.072 255.896 236.397 256.557 237.048C257.218 237.688 257.549 238.616 257.549 239.832V245H256.109V240.04C256.109 239.165 255.89 238.499 255.453 238.04C255.016 237.571 254.418 237.336 253.661 237.336C252.893 237.336 252.28 237.576 251.821 238.056C251.373 238.536 251.149 239.235 251.149 240.152V245H249.693V236.232H251.149V237.48C251.437 237.032 251.826 236.685 252.317 236.44C252.818 236.195 253.368 236.072 253.965 236.072ZM261.703 237.432V242.6C261.703 243.027 261.794 243.331 261.975 243.512C262.157 243.683 262.471 243.768 262.919 243.768H263.991V245H262.679C261.869 245 261.261 244.813 260.855 244.44C260.45 244.067 260.247 243.453 260.247 242.6V237.432H259.111V236.232H260.247V234.024H261.703V236.232H263.991V237.432H261.703ZM265.211 240.584C265.211 239.688 265.393 238.904 265.755 238.232C266.118 237.549 266.614 237.021 267.243 236.648C267.883 236.275 268.593 236.088 269.371 236.088C270.139 236.088 270.806 236.253 271.371 236.584C271.937 236.915 272.358 237.331 272.635 237.832V236.232H274.107V245H272.635V243.368C272.347 243.88 271.915 244.307 271.339 244.648C270.774 244.979 270.113 245.144 269.355 245.144C268.577 245.144 267.873 244.952 267.243 244.568C266.614 244.184 266.118 243.645 265.755 242.952C265.393 242.259 265.211 241.469 265.211 240.584ZM272.635 240.6C272.635 239.939 272.502 239.363 272.235 238.872C271.969 238.381 271.606 238.008 271.147 237.752C270.699 237.485 270.203 237.352 269.659 237.352C269.115 237.352 268.619 237.48 268.171 237.736C267.723 237.992 267.366 238.365 267.099 238.856C266.833 239.347 266.699 239.923 266.699 240.584C266.699 241.256 266.833 241.843 267.099 242.344C267.366 242.835 267.723 243.213 268.171 243.48C268.619 243.736 269.115 243.864 269.659 243.864C270.203 243.864 270.699 243.736 271.147 243.48C271.606 243.213 271.969 242.835 272.235 242.344C272.502 241.843 272.635 241.261 272.635 240.6ZM280.84 236.072C281.907 236.072 282.771 236.397 283.432 237.048C284.093 237.688 284.424 238.616 284.424 239.832V245H282.984V240.04C282.984 239.165 282.765 238.499 282.328 238.04C281.891 237.571 281.293 237.336 280.536 237.336C279.768 237.336 279.155 237.576 278.696 238.056C278.248 238.536 278.024 239.235 278.024 240.152V245H276.568V236.232H278.024V237.48C278.312 237.032 278.701 236.685 279.192 236.44C279.693 236.195 280.243 236.072 280.84 236.072ZM290.418 236.088C291.176 236.088 291.837 236.253 292.402 236.584C292.978 236.915 293.405 237.331 293.682 237.832V236.232H295.154V245.192C295.154 245.992 294.984 246.701 294.642 247.32C294.301 247.949 293.81 248.44 293.17 248.792C292.541 249.144 291.805 249.32 290.962 249.32C289.81 249.32 288.85 249.048 288.082 248.504C287.314 247.96 286.861 247.219 286.722 246.28H288.162C288.322 246.813 288.653 247.24 289.154 247.56C289.656 247.891 290.258 248.056 290.962 248.056C291.762 248.056 292.413 247.805 292.914 247.304C293.426 246.803 293.682 246.099 293.682 245.192V243.352C293.394 243.864 292.968 244.291 292.402 244.632C291.837 244.973 291.176 245.144 290.418 245.144C289.64 245.144 288.93 244.952 288.29 244.568C287.661 244.184 287.165 243.645 286.802 242.952C286.44 242.259 286.258 241.469 286.258 240.584C286.258 239.688 286.44 238.904 286.802 238.232C287.165 237.549 287.661 237.021 288.29 236.648C288.93 236.275 289.64 236.088 290.418 236.088ZM293.682 240.6C293.682 239.939 293.549 239.363 293.282 238.872C293.016 238.381 292.653 238.008 292.194 237.752C291.746 237.485 291.25 237.352 290.706 237.352C290.162 237.352 289.666 237.48 289.218 237.736C288.77 237.992 288.413 238.365 288.146 238.856C287.88 239.347 287.746 239.923 287.746 240.584C287.746 241.256 287.88 241.843 288.146 242.344C288.413 242.835 288.77 243.213 289.218 243.48C289.666 243.736 290.162 243.864 290.706 243.864C291.25 243.864 291.746 243.736 292.194 243.48C292.653 243.213 293.016 242.835 293.282 242.344C293.549 241.843 293.682 241.261 293.682 240.6ZM107.149 263.864C107.448 263.341 107.885 262.915 108.461 262.584C109.037 262.253 109.693 262.088 110.429 262.088C111.218 262.088 111.928 262.275 112.557 262.648C113.186 263.021 113.682 263.549 114.045 264.232C114.408 264.904 114.589 265.688 114.589 266.584C114.589 267.469 114.408 268.259 114.045 268.952C113.682 269.645 113.181 270.184 112.541 270.568C111.912 270.952 111.208 271.144 110.429 271.144C109.672 271.144 109.005 270.979 108.429 270.648C107.864 270.317 107.437 269.896 107.149 269.384V271H105.693V259.16H107.149V263.864ZM113.101 266.584C113.101 265.923 112.968 265.347 112.701 264.856C112.434 264.365 112.072 263.992 111.613 263.736C111.165 263.48 110.669 263.352 110.125 263.352C109.592 263.352 109.096 263.485 108.637 263.752C108.189 264.008 107.826 264.387 107.549 264.888C107.282 265.379 107.149 265.949 107.149 266.6C107.149 267.261 107.282 267.843 107.549 268.344C107.826 268.835 108.189 269.213 108.637 269.48C109.096 269.736 109.592 269.864 110.125 269.864C110.669 269.864 111.165 269.736 111.613 269.48C112.072 269.213 112.434 268.835 112.701 268.344C112.968 267.843 113.101 267.256 113.101 266.584ZM124.505 266.28C124.505 266.557 124.489 266.851 124.457 267.16H117.449C117.503 268.024 117.796 268.701 118.329 269.192C118.873 269.672 119.529 269.912 120.297 269.912C120.927 269.912 121.449 269.768 121.865 269.48C122.292 269.181 122.591 268.787 122.761 268.296H124.329C124.095 269.139 123.625 269.827 122.921 270.36C122.217 270.883 121.343 271.144 120.297 271.144C119.465 271.144 118.719 270.957 118.057 270.584C117.407 270.211 116.895 269.683 116.521 269C116.148 268.307 115.961 267.507 115.961 266.6C115.961 265.693 116.143 264.899 116.505 264.216C116.868 263.533 117.375 263.011 118.025 262.648C118.687 262.275 119.444 262.088 120.297 262.088C121.129 262.088 121.865 262.269 122.505 262.632C123.145 262.995 123.636 263.496 123.977 264.136C124.329 264.765 124.505 265.48 124.505 266.28ZM123.001 265.976C123.001 265.421 122.879 264.947 122.633 264.552C122.388 264.147 122.052 263.843 121.625 263.64C121.209 263.427 120.745 263.32 120.233 263.32C119.497 263.32 118.868 263.555 118.345 264.024C117.833 264.493 117.54 265.144 117.465 265.976H123.001ZM127.883 263.656C128.139 263.155 128.502 262.765 128.971 262.488C129.451 262.211 130.033 262.072 130.715 262.072V263.576H130.331C128.699 263.576 127.883 264.461 127.883 266.232V271H126.427V262.232H127.883V263.656ZM133.852 263.864C134.151 263.341 134.588 262.915 135.164 262.584C135.74 262.253 136.396 262.088 137.132 262.088C137.921 262.088 138.631 262.275 139.26 262.648C139.889 263.021 140.385 263.549 140.748 264.232C141.111 264.904 141.292 265.688 141.292 266.584C141.292 267.469 141.111 268.259 140.748 268.952C140.385 269.645 139.884 270.184 139.244 270.568C138.615 270.952 137.911 271.144 137.132 271.144C136.375 271.144 135.708 270.979 135.132 270.648C134.567 270.317 134.14 269.896 133.852 269.384V271H132.396V259.16H133.852V263.864ZM139.804 266.584C139.804 265.923 139.671 265.347 139.404 264.856C139.137 264.365 138.775 263.992 138.316 263.736C137.868 263.48 137.372 263.352 136.828 263.352C136.295 263.352 135.799 263.485 135.34 263.752C134.892 264.008 134.529 264.387 134.252 264.888C133.985 265.379 133.852 265.949 133.852 266.6C133.852 267.261 133.985 267.843 134.252 268.344C134.529 268.835 134.892 269.213 135.34 269.48C135.799 269.736 136.295 269.864 136.828 269.864C137.372 269.864 137.868 269.736 138.316 269.48C138.775 269.213 139.137 268.835 139.404 268.344C139.671 267.843 139.804 267.256 139.804 266.584ZM142.665 266.584C142.665 265.688 142.846 264.904 143.209 264.232C143.571 263.549 144.067 263.021 144.697 262.648C145.337 262.275 146.046 262.088 146.825 262.088C147.593 262.088 148.259 262.253 148.825 262.584C149.39 262.915 149.811 263.331 150.089 263.832V262.232H151.561V271H150.089V269.368C149.801 269.88 149.369 270.307 148.793 270.648C148.227 270.979 147.566 271.144 146.809 271.144C146.03 271.144 145.326 270.952 144.697 270.568C144.067 270.184 143.571 269.645 143.209 268.952C142.846 268.259 142.665 267.469 142.665 266.584ZM150.089 266.6C150.089 265.939 149.955 265.363 149.689 264.872C149.422 264.381 149.059 264.008 148.601 263.752C148.153 263.485 147.657 263.352 147.113 263.352C146.569 263.352 146.073 263.48 145.625 263.736C145.177 263.992 144.819 264.365 144.553 264.856C144.286 265.347 144.153 265.923 144.153 266.584C144.153 267.256 144.286 267.843 144.553 268.344C144.819 268.835 145.177 269.213 145.625 269.48C146.073 269.736 146.569 269.864 147.113 269.864C147.657 269.864 148.153 269.736 148.601 269.48C149.059 269.213 149.422 268.835 149.689 268.344C149.955 267.843 150.089 267.261 150.089 266.6ZM157.637 262.088C158.394 262.088 159.056 262.253 159.621 262.584C160.197 262.915 160.624 263.331 160.901 263.832V262.232H162.373V271.192C162.373 271.992 162.202 272.701 161.861 273.32C161.52 273.949 161.029 274.44 160.389 274.792C159.76 275.144 159.024 275.32 158.181 275.32C157.029 275.32 156.069 275.048 155.301 274.504C154.533 273.96 154.08 273.219 153.941 272.28H155.381C155.541 272.813 155.872 273.24 156.373 273.56C156.874 273.891 157.477 274.056 158.181 274.056C158.981 274.056 159.632 273.805 160.133 273.304C160.645 272.803 160.901 272.099 160.901 271.192V269.352C160.613 269.864 160.186 270.291 159.621 270.632C159.056 270.973 158.394 271.144 157.637 271.144C156.858 271.144 156.149 270.952 155.509 270.568C154.88 270.184 154.384 269.645 154.021 268.952C153.658 268.259 153.477 267.469 153.477 266.584C153.477 265.688 153.658 264.904 154.021 264.232C154.384 263.549 154.88 263.021 155.509 262.648C156.149 262.275 156.858 262.088 157.637 262.088ZM160.901 266.6C160.901 265.939 160.768 265.363 160.501 264.872C160.234 264.381 159.872 264.008 159.413 263.752C158.965 263.485 158.469 263.352 157.925 263.352C157.381 263.352 156.885 263.48 156.437 263.736C155.989 263.992 155.632 264.365 155.365 264.856C155.098 265.347 154.965 265.923 154.965 266.584C154.965 267.256 155.098 267.843 155.365 268.344C155.632 268.835 155.989 269.213 156.437 269.48C156.885 269.736 157.381 269.864 157.925 269.864C158.469 269.864 158.965 269.736 159.413 269.48C159.872 269.213 160.234 268.835 160.501 268.344C160.768 267.843 160.901 267.261 160.901 266.6ZM164.29 266.584C164.29 265.688 164.471 264.904 164.834 264.232C165.196 263.549 165.692 263.021 166.322 262.648C166.962 262.275 167.671 262.088 168.45 262.088C169.218 262.088 169.884 262.253 170.45 262.584C171.015 262.915 171.436 263.331 171.714 263.832V262.232H173.186V271H171.714V269.368C171.426 269.88 170.994 270.307 170.418 270.648C169.852 270.979 169.191 271.144 168.434 271.144C167.655 271.144 166.951 270.952 166.322 270.568C165.692 270.184 165.196 269.645 164.834 268.952C164.471 268.259 164.29 267.469 164.29 266.584ZM171.714 266.6C171.714 265.939 171.58 265.363 171.314 264.872C171.047 264.381 170.684 264.008 170.226 263.752C169.778 263.485 169.282 263.352 168.738 263.352C168.194 263.352 167.698 263.48 167.25 263.736C166.802 263.992 166.444 264.365 166.178 264.856C165.911 265.347 165.778 265.923 165.778 266.584C165.778 267.256 165.911 267.843 166.178 268.344C166.444 268.835 166.802 269.213 167.25 269.48C167.698 269.736 168.194 269.864 168.738 269.864C169.282 269.864 169.778 269.736 170.226 269.48C170.684 269.213 171.047 268.835 171.314 268.344C171.58 267.843 171.714 267.261 171.714 266.6ZM176.398 260.808C176.121 260.808 175.886 260.712 175.694 260.52C175.502 260.328 175.406 260.093 175.406 259.816C175.406 259.539 175.502 259.304 175.694 259.112C175.886 258.92 176.121 258.824 176.398 258.824C176.665 258.824 176.889 258.92 177.07 259.112C177.262 259.304 177.358 259.539 177.358 259.816C177.358 260.093 177.262 260.328 177.07 260.52C176.889 260.712 176.665 260.808 176.398 260.808ZM177.102 262.232V271H175.646V262.232H177.102ZM185.305 263.848C185.593 263.347 186.02 262.931 186.585 262.6C187.161 262.259 187.828 262.088 188.585 262.088C189.364 262.088 190.068 262.275 190.697 262.648C191.337 263.021 191.839 263.549 192.201 264.232C192.564 264.904 192.745 265.688 192.745 266.584C192.745 267.469 192.564 268.259 192.201 268.952C191.839 269.645 191.337 270.184 190.697 270.568C190.068 270.952 189.364 271.144 188.585 271.144C187.839 271.144 187.177 270.979 186.601 270.648C186.036 270.307 185.604 269.885 185.305 269.384V275.16H183.849V262.232H185.305V263.848ZM191.257 266.584C191.257 265.923 191.124 265.347 190.857 264.856C190.591 264.365 190.228 263.992 189.769 263.736C189.321 263.48 188.825 263.352 188.281 263.352C187.748 263.352 187.252 263.485 186.793 263.752C186.345 264.008 185.983 264.387 185.705 264.888C185.439 265.379 185.305 265.949 185.305 266.6C185.305 267.261 185.439 267.843 185.705 268.344C185.983 268.835 186.345 269.213 186.793 269.48C187.252 269.736 187.748 269.864 188.281 269.864C188.825 269.864 189.321 269.736 189.769 269.48C190.228 269.213 190.591 268.835 190.857 268.344C191.124 267.843 191.257 267.256 191.257 266.584ZM202.662 266.28C202.662 266.557 202.646 266.851 202.614 267.16H195.606C195.659 268.024 195.952 268.701 196.486 269.192C197.03 269.672 197.686 269.912 198.454 269.912C199.083 269.912 199.606 269.768 200.022 269.48C200.448 269.181 200.747 268.787 200.918 268.296H202.486C202.251 269.139 201.782 269.827 201.078 270.36C200.374 270.883 199.499 271.144 198.454 271.144C197.622 271.144 196.875 270.957 196.214 270.584C195.563 270.211 195.051 269.683 194.678 269C194.304 268.307 194.118 267.507 194.118 266.6C194.118 265.693 194.299 264.899 194.662 264.216C195.024 263.533 195.531 263.011 196.182 262.648C196.843 262.275 197.6 262.088 198.454 262.088C199.286 262.088 200.022 262.269 200.662 262.632C201.302 262.995 201.792 263.496 202.134 264.136C202.486 264.765 202.662 265.48 202.662 266.28ZM201.158 265.976C201.158 265.421 201.035 264.947 200.79 264.552C200.544 264.147 200.208 263.843 199.782 263.64C199.366 263.427 198.902 263.32 198.39 263.32C197.654 263.32 197.024 263.555 196.502 264.024C195.99 264.493 195.696 265.144 195.622 265.976H201.158ZM208.856 262.072C209.922 262.072 210.786 262.397 211.448 263.048C212.109 263.688 212.44 264.616 212.44 265.832V271H211V266.04C211 265.165 210.781 264.499 210.344 264.04C209.906 263.571 209.309 263.336 208.552 263.336C207.784 263.336 207.17 263.576 206.712 264.056C206.264 264.536 206.04 265.235 206.04 266.152V271H204.584V262.232H206.04V263.48C206.328 263.032 206.717 262.685 207.208 262.44C207.709 262.195 208.258 262.072 208.856 262.072ZM222.37 262.232L217.09 275.128H215.586L217.314 270.904L213.778 262.232H215.394L218.146 269.336L220.866 262.232H222.37ZM223.29 266.584C223.29 265.688 223.471 264.904 223.834 264.232C224.196 263.549 224.692 263.021 225.322 262.648C225.962 262.275 226.671 262.088 227.45 262.088C228.218 262.088 228.884 262.253 229.45 262.584C230.015 262.915 230.436 263.331 230.714 263.832V262.232H232.186V271H230.714V269.368C230.426 269.88 229.994 270.307 229.418 270.648C228.852 270.979 228.191 271.144 227.434 271.144C226.655 271.144 225.951 270.952 225.322 270.568C224.692 270.184 224.196 269.645 223.834 268.952C223.471 268.259 223.29 267.469 223.29 266.584ZM230.714 266.6C230.714 265.939 230.58 265.363 230.314 264.872C230.047 264.381 229.684 264.008 229.226 263.752C228.778 263.485 228.282 263.352 227.738 263.352C227.194 263.352 226.698 263.48 226.25 263.736C225.802 263.992 225.444 264.365 225.178 264.856C224.911 265.347 224.778 265.923 224.778 266.584C224.778 267.256 224.911 267.843 225.178 268.344C225.444 268.835 225.802 269.213 226.25 269.48C226.698 269.736 227.194 269.864 227.738 269.864C228.282 269.864 228.778 269.736 229.226 269.48C229.684 269.213 230.047 268.835 230.314 268.344C230.58 267.843 230.714 267.261 230.714 266.6ZM239.542 271L236.102 267.128V271H234.646V259.16H236.102V266.12L239.478 262.232H241.51L237.382 266.6L241.526 271H239.542ZM243.632 260.808C243.355 260.808 243.12 260.712 242.928 260.52C242.736 260.328 242.64 260.093 242.64 259.816C242.64 259.539 242.736 259.304 242.928 259.112C243.12 258.92 243.355 258.824 243.632 258.824C243.899 258.824 244.123 258.92 244.304 259.112C244.496 259.304 244.592 259.539 244.592 259.816C244.592 260.093 244.496 260.328 244.304 260.52C244.123 260.712 243.899 260.808 243.632 260.808ZM244.336 262.232V271H242.88V262.232H244.336ZM248.594 263.432V268.6C248.594 269.027 248.685 269.331 248.866 269.512C249.047 269.683 249.362 269.768 249.81 269.768H250.882V271H249.57C248.759 271 248.151 270.813 247.746 270.44C247.341 270.067 247.138 269.453 247.138 268.6V263.432H246.002V262.232H247.138V260.024H248.594V262.232H250.882V263.432H248.594ZM256.368 266.584C256.368 265.688 256.549 264.904 256.912 264.232C257.274 263.549 257.77 263.021 258.4 262.648C259.04 262.275 259.754 262.088 260.544 262.088C261.226 262.088 261.861 262.248 262.448 262.568C263.034 262.877 263.482 263.288 263.792 263.8V259.16H265.264V271H263.792V269.352C263.504 269.875 263.077 270.307 262.512 270.648C261.946 270.979 261.285 271.144 260.528 271.144C259.749 271.144 259.04 270.952 258.4 270.568C257.77 270.184 257.274 269.645 256.912 268.952C256.549 268.259 256.368 267.469 256.368 266.584ZM263.792 266.6C263.792 265.939 263.658 265.363 263.392 264.872C263.125 264.381 262.762 264.008 262.304 263.752C261.856 263.485 261.36 263.352 260.816 263.352C260.272 263.352 259.776 263.48 259.328 263.736C258.88 263.992 258.522 264.365 258.256 264.856C257.989 265.347 257.856 265.923 257.856 266.584C257.856 267.256 257.989 267.843 258.256 268.344C258.522 268.835 258.88 269.213 259.328 269.48C259.776 269.736 260.272 269.864 260.816 269.864C261.36 269.864 261.856 269.736 262.304 269.48C262.762 269.213 263.125 268.835 263.392 268.344C263.658 267.843 263.792 267.261 263.792 266.6ZM267.18 266.584C267.18 265.688 267.362 264.904 267.724 264.232C268.087 263.549 268.583 263.021 269.212 262.648C269.852 262.275 270.562 262.088 271.34 262.088C272.108 262.088 272.775 262.253 273.34 262.584C273.906 262.915 274.327 263.331 274.604 263.832V262.232H276.076V271H274.604V269.368C274.316 269.88 273.884 270.307 273.308 270.648C272.743 270.979 272.082 271.144 271.324 271.144C270.546 271.144 269.842 270.952 269.212 270.568C268.583 270.184 268.087 269.645 267.724 268.952C267.362 268.259 267.18 267.469 267.18 266.584ZM274.604 266.6C274.604 265.939 274.471 265.363 274.204 264.872C273.938 264.381 273.575 264.008 273.116 263.752C272.668 263.485 272.172 263.352 271.628 263.352C271.084 263.352 270.588 263.48 270.14 263.736C269.692 263.992 269.335 264.365 269.068 264.856C268.802 265.347 268.668 265.923 268.668 266.584C268.668 267.256 268.802 267.843 269.068 268.344C269.335 268.835 269.692 269.213 270.14 269.48C270.588 269.736 271.084 269.864 271.628 269.864C272.172 269.864 272.668 269.736 273.116 269.48C273.575 269.213 273.938 268.835 274.204 268.344C274.471 267.843 274.604 267.261 274.604 266.6ZM282.809 262.072C283.875 262.072 284.739 262.397 285.401 263.048C286.062 263.688 286.393 264.616 286.393 265.832V271H284.953V266.04C284.953 265.165 284.734 264.499 284.297 264.04C283.859 263.571 283.262 263.336 282.505 263.336C281.737 263.336 281.123 263.576 280.665 264.056C280.217 264.536 279.993 265.235 279.993 266.152V271H278.537V262.232H279.993V263.48C280.281 263.032 280.67 262.685 281.161 262.44C281.662 262.195 282.211 262.072 282.809 262.072ZM89.2268 289.432V294.6C89.2268 295.027 89.3174 295.331 89.4988 295.512C89.6801 295.683 89.9948 295.768 90.4427 295.768H91.5148V297H90.2028C89.3921 297 88.7841 296.813 88.3788 296.44C87.9734 296.067 87.7708 295.453 87.7708 294.6V289.432H86.6348V288.232H87.7708V286.024H89.2268V288.232H91.5148V289.432H89.2268ZM94.0309 286.808C93.7535 286.808 93.5189 286.712 93.3269 286.52C93.1349 286.328 93.0389 286.093 93.0389 285.816C93.0389 285.539 93.1349 285.304 93.3269 285.112C93.5189 284.92 93.7535 284.824 94.0309 284.824C94.2975 284.824 94.5215 284.92 94.7029 285.112C94.8949 285.304 94.9909 285.539 94.9909 285.816C94.9909 286.093 94.8949 286.328 94.7029 286.52C94.5215 286.712 94.2975 286.808 94.0309 286.808ZM94.7349 288.232V297H93.2789V288.232H94.7349ZM101.488 288.072C102.555 288.072 103.419 288.397 104.08 289.048C104.742 289.688 105.072 290.616 105.072 291.832V297H103.632V292.04C103.632 291.165 103.414 290.499 102.976 290.04C102.539 289.571 101.942 289.336 101.184 289.336C100.416 289.336 99.803 289.576 99.3444 290.056C98.8964 290.536 98.6724 291.235 98.6724 292.152V297H97.2164V288.232H98.6724V289.48C98.9604 289.032 99.3497 288.685 99.8404 288.44C100.342 288.195 100.891 288.072 101.488 288.072ZM111.067 288.088C111.824 288.088 112.485 288.253 113.051 288.584C113.627 288.915 114.053 289.331 114.331 289.832V288.232H115.803V297.192C115.803 297.992 115.632 298.701 115.291 299.32C114.949 299.949 114.459 300.44 113.819 300.792C113.189 301.144 112.453 301.32 111.611 301.32C110.459 301.32 109.499 301.048 108.731 300.504C107.963 299.96 107.509 299.219 107.371 298.28H108.811C108.971 298.813 109.301 299.24 109.803 299.56C110.304 299.891 110.907 300.056 111.611 300.056C112.411 300.056 113.061 299.805 113.563 299.304C114.075 298.803 114.331 298.099 114.331 297.192V295.352C114.043 295.864 113.616 296.291 113.051 296.632C112.485 296.973 111.824 297.144 111.067 297.144C110.288 297.144 109.579 296.952 108.939 296.568C108.309 296.184 107.813 295.645 107.451 294.952C107.088 294.259 106.907 293.469 106.907 292.584C106.907 291.688 107.088 290.904 107.451 290.232C107.813 289.549 108.309 289.021 108.939 288.648C109.579 288.275 110.288 288.088 111.067 288.088ZM114.331 292.6C114.331 291.939 114.197 291.363 113.931 290.872C113.664 290.381 113.301 290.008 112.843 289.752C112.395 289.485 111.899 289.352 111.355 289.352C110.811 289.352 110.315 289.48 109.867 289.736C109.419 289.992 109.061 290.365 108.795 290.856C108.528 291.347 108.395 291.923 108.395 292.584C108.395 293.256 108.528 293.843 108.795 294.344C109.061 294.835 109.419 295.213 109.867 295.48C110.315 295.736 110.811 295.864 111.355 295.864C111.899 295.864 112.395 295.736 112.843 295.48C113.301 295.213 113.664 294.835 113.931 294.344C114.197 293.843 114.331 293.261 114.331 292.6ZM123.159 297L119.719 293.128V297H118.263V285.16H119.719V292.12L123.095 288.232H125.127L120.999 292.6L125.143 297H123.159ZM125.954 292.584C125.954 291.688 126.135 290.904 126.498 290.232C126.86 289.549 127.356 289.021 127.986 288.648C128.626 288.275 129.335 288.088 130.114 288.088C130.882 288.088 131.548 288.253 132.114 288.584C132.679 288.915 133.1 289.331 133.378 289.832V288.232H134.85V297H133.378V295.368C133.09 295.88 132.658 296.307 132.082 296.648C131.516 296.979 130.855 297.144 130.098 297.144C129.319 297.144 128.615 296.952 127.986 296.568C127.356 296.184 126.86 295.645 126.498 294.952C126.135 294.259 125.954 293.469 125.954 292.584ZM133.378 292.6C133.378 291.939 133.244 291.363 132.978 290.872C132.711 290.381 132.348 290.008 131.89 289.752C131.442 289.485 130.946 289.352 130.402 289.352C129.858 289.352 129.362 289.48 128.914 289.736C128.466 289.992 128.108 290.365 127.842 290.856C127.575 291.347 127.442 291.923 127.442 292.584C127.442 293.256 127.575 293.843 127.842 294.344C128.108 294.835 128.466 295.213 128.914 295.48C129.362 295.736 129.858 295.864 130.402 295.864C130.946 295.864 131.442 295.736 131.89 295.48C132.348 295.213 132.711 294.835 132.978 294.344C133.244 293.843 133.378 293.261 133.378 292.6ZM139.086 289.432V294.6C139.086 295.027 139.177 295.331 139.358 295.512C139.539 295.683 139.854 295.768 140.302 295.768H141.374V297H140.062C139.251 297 138.643 296.813 138.238 296.44C137.833 296.067 137.63 295.453 137.63 294.6V289.432H136.494V288.232H137.63V286.024H139.086V288.232H141.374V289.432H139.086ZM148.034 297L144.594 293.128V297H143.138V285.16H144.594V292.12L147.97 288.232H150.002L145.874 292.6L150.018 297H148.034ZM150.829 292.584C150.829 291.688 151.01 290.904 151.373 290.232C151.735 289.549 152.231 289.021 152.861 288.648C153.501 288.275 154.21 288.088 154.989 288.088C155.757 288.088 156.423 288.253 156.989 288.584C157.554 288.915 157.975 289.331 158.253 289.832V288.232H159.725V297H158.253V295.368C157.965 295.88 157.533 296.307 156.957 296.648C156.391 296.979 155.73 297.144 154.973 297.144C154.194 297.144 153.49 296.952 152.861 296.568C152.231 296.184 151.735 295.645 151.373 294.952C151.01 294.259 150.829 293.469 150.829 292.584ZM158.253 292.6C158.253 291.939 158.119 291.363 157.853 290.872C157.586 290.381 157.223 290.008 156.765 289.752C156.317 289.485 155.821 289.352 155.277 289.352C154.733 289.352 154.237 289.48 153.789 289.736C153.341 289.992 152.983 290.365 152.717 290.856C152.45 291.347 152.317 291.923 152.317 292.584C152.317 293.256 152.45 293.843 152.717 294.344C152.983 294.835 153.341 295.213 153.789 295.48C154.237 295.736 154.733 295.864 155.277 295.864C155.821 295.864 156.317 295.736 156.765 295.48C157.223 295.213 157.586 294.835 157.853 294.344C158.119 293.843 158.253 293.261 158.253 292.6ZM166.457 288.072C167.524 288.072 168.388 288.397 169.049 289.048C169.71 289.688 170.041 290.616 170.041 291.832V297H168.601V292.04C168.601 291.165 168.382 290.499 167.945 290.04C167.508 289.571 166.91 289.336 166.153 289.336C165.385 289.336 164.772 289.576 164.313 290.056C163.865 290.536 163.641 291.235 163.641 292.152V297H162.185V288.232H163.641V289.48C163.929 289.032 164.318 288.685 164.809 288.44C165.31 288.195 165.86 288.072 166.457 288.072ZM181.581 297L178.141 293.128V297H176.685V285.16H178.141V292.12L181.517 288.232H183.549L179.421 292.6L183.565 297H181.581ZM192.92 292.28C192.92 292.557 192.904 292.851 192.872 293.16H185.864C185.917 294.024 186.21 294.701 186.744 295.192C187.288 295.672 187.944 295.912 188.712 295.912C189.341 295.912 189.864 295.768 190.28 295.48C190.706 295.181 191.005 294.787 191.176 294.296H192.744C192.509 295.139 192.04 295.827 191.336 296.36C190.632 296.883 189.757 297.144 188.712 297.144C187.88 297.144 187.133 296.957 186.472 296.584C185.821 296.211 185.309 295.683 184.936 295C184.562 294.307 184.376 293.507 184.376 292.6C184.376 291.693 184.557 290.899 184.92 290.216C185.282 289.533 185.789 289.011 186.44 288.648C187.101 288.275 187.858 288.088 188.712 288.088C189.544 288.088 190.28 288.269 190.92 288.632C191.56 288.995 192.05 289.496 192.392 290.136C192.744 290.765 192.92 291.48 192.92 292.28ZM191.416 291.976C191.416 291.421 191.293 290.947 191.048 290.552C190.802 290.147 190.466 289.843 190.04 289.64C189.624 289.427 189.16 289.32 188.648 289.32C187.912 289.32 187.282 289.555 186.76 290.024C186.248 290.493 185.954 291.144 185.88 291.976H191.416ZM197.945 297.144C197.273 297.144 196.671 297.032 196.137 296.808C195.604 296.573 195.183 296.253 194.873 295.848C194.564 295.432 194.393 294.957 194.361 294.424H195.865C195.908 294.861 196.111 295.219 196.473 295.496C196.847 295.773 197.332 295.912 197.929 295.912C198.484 295.912 198.921 295.789 199.241 295.544C199.561 295.299 199.721 294.989 199.721 294.616C199.721 294.232 199.551 293.949 199.209 293.768C198.868 293.576 198.34 293.389 197.625 293.208C196.975 293.037 196.441 292.867 196.025 292.696C195.62 292.515 195.268 292.253 194.969 291.912C194.681 291.56 194.537 291.101 194.537 290.536C194.537 290.088 194.671 289.677 194.937 289.304C195.204 288.931 195.583 288.637 196.073 288.424C196.564 288.2 197.124 288.088 197.753 288.088C198.724 288.088 199.508 288.333 200.105 288.824C200.703 289.315 201.023 289.987 201.065 290.84H199.609C199.577 290.381 199.391 290.013 199.049 289.736C198.719 289.459 198.271 289.32 197.705 289.32C197.183 289.32 196.767 289.432 196.457 289.656C196.148 289.88 195.993 290.173 195.993 290.536C195.993 290.824 196.084 291.064 196.265 291.256C196.457 291.437 196.692 291.587 196.969 291.704C197.257 291.811 197.652 291.933 198.153 292.072C198.783 292.243 199.295 292.413 199.689 292.584C200.084 292.744 200.42 292.989 200.697 293.32C200.985 293.651 201.135 294.083 201.145 294.616C201.145 295.096 201.012 295.528 200.745 295.912C200.479 296.296 200.1 296.6 199.609 296.824C199.129 297.037 198.575 297.144 197.945 297.144ZM202.657 292.584C202.657 291.688 202.838 290.904 203.201 290.232C203.563 289.549 204.059 289.021 204.689 288.648C205.329 288.275 206.038 288.088 206.817 288.088C207.585 288.088 208.251 288.253 208.817 288.584C209.382 288.915 209.803 289.331 210.081 289.832V288.232H211.553V297H210.081V295.368C209.793 295.88 209.361 296.307 208.785 296.648C208.219 296.979 207.558 297.144 206.801 297.144C206.022 297.144 205.318 296.952 204.689 296.568C204.059 296.184 203.563 295.645 203.201 294.952C202.838 294.259 202.657 293.469 202.657 292.584ZM210.081 292.6C210.081 291.939 209.947 291.363 209.681 290.872C209.414 290.381 209.051 290.008 208.593 289.752C208.145 289.485 207.649 289.352 207.105 289.352C206.561 289.352 206.065 289.48 205.617 289.736C205.169 289.992 204.811 290.365 204.545 290.856C204.278 291.347 204.145 291.923 204.145 292.584C204.145 293.256 204.278 293.843 204.545 294.344C204.811 294.835 205.169 295.213 205.617 295.48C206.065 295.736 206.561 295.864 207.105 295.864C207.649 295.864 208.145 295.736 208.593 295.48C209.051 295.213 209.414 294.835 209.681 294.344C209.947 293.843 210.081 293.261 210.081 292.6ZM213.469 292.584C213.469 291.688 213.651 290.904 214.013 290.232C214.376 289.549 214.872 289.021 215.501 288.648C216.141 288.275 216.856 288.088 217.645 288.088C218.328 288.088 218.963 288.248 219.549 288.568C220.136 288.877 220.584 289.288 220.893 289.8V285.16H222.365V297H220.893V295.352C220.605 295.875 220.179 296.307 219.613 296.648C219.048 296.979 218.387 297.144 217.629 297.144C216.851 297.144 216.141 296.952 215.501 296.568C214.872 296.184 214.376 295.645 214.013 294.952C213.651 294.259 213.469 293.469 213.469 292.584ZM220.893 292.6C220.893 291.939 220.76 291.363 220.493 290.872C220.227 290.381 219.864 290.008 219.405 289.752C218.957 289.485 218.461 289.352 217.917 289.352C217.373 289.352 216.877 289.48 216.429 289.736C215.981 289.992 215.624 290.365 215.357 290.856C215.091 291.347 214.957 291.923 214.957 292.584C214.957 293.256 215.091 293.843 215.357 294.344C215.624 294.835 215.981 295.213 216.429 295.48C216.877 295.736 217.373 295.864 217.917 295.864C218.461 295.864 218.957 295.736 219.405 295.48C219.864 295.213 220.227 294.835 220.493 294.344C220.76 293.843 220.893 293.261 220.893 292.6ZM224.282 292.584C224.282 291.688 224.463 290.904 224.826 290.232C225.188 289.549 225.684 289.021 226.314 288.648C226.954 288.275 227.663 288.088 228.442 288.088C229.21 288.088 229.876 288.253 230.442 288.584C231.007 288.915 231.428 289.331 231.706 289.832V288.232H233.178V297H231.706V295.368C231.418 295.88 230.986 296.307 230.41 296.648C229.844 296.979 229.183 297.144 228.426 297.144C227.647 297.144 226.943 296.952 226.314 296.568C225.684 296.184 225.188 295.645 224.826 294.952C224.463 294.259 224.282 293.469 224.282 292.584ZM231.706 292.6C231.706 291.939 231.572 291.363 231.306 290.872C231.039 290.381 230.676 290.008 230.218 289.752C229.77 289.485 229.274 289.352 228.73 289.352C228.186 289.352 227.69 289.48 227.242 289.736C226.794 289.992 226.436 290.365 226.17 290.856C225.903 291.347 225.77 291.923 225.77 292.584C225.77 293.256 225.903 293.843 226.17 294.344C226.436 294.835 226.794 295.213 227.242 295.48C227.69 295.736 228.186 295.864 228.73 295.864C229.274 295.864 229.77 295.736 230.218 295.48C230.676 295.213 231.039 294.835 231.306 294.344C231.572 293.843 231.706 293.261 231.706 292.6ZM237.094 289.656C237.35 289.155 237.713 288.765 238.182 288.488C238.662 288.211 239.244 288.072 239.926 288.072V289.576H239.542C237.91 289.576 237.094 290.461 237.094 292.232V297H235.638V288.232H237.094V289.656ZM241.063 292.584C241.063 291.688 241.244 290.904 241.607 290.232C241.97 289.549 242.466 289.021 243.095 288.648C243.735 288.275 244.444 288.088 245.223 288.088C245.991 288.088 246.658 288.253 247.223 288.584C247.788 288.915 248.21 289.331 248.487 289.832V288.232H249.959V297H248.487V295.368C248.199 295.88 247.767 296.307 247.191 296.648C246.626 296.979 245.964 297.144 245.207 297.144C244.428 297.144 243.724 296.952 243.095 296.568C242.466 296.184 241.97 295.645 241.607 294.952C241.244 294.259 241.063 293.469 241.063 292.584ZM248.487 292.6C248.487 291.939 248.354 291.363 248.087 290.872C247.82 290.381 247.458 290.008 246.999 289.752C246.551 289.485 246.055 289.352 245.511 289.352C244.967 289.352 244.471 289.48 244.023 289.736C243.575 289.992 243.218 290.365 242.951 290.856C242.684 291.347 242.551 291.923 242.551 292.584C242.551 293.256 242.684 293.843 242.951 294.344C243.218 294.835 243.575 295.213 244.023 295.48C244.471 295.736 244.967 295.864 245.511 295.864C246.055 295.864 246.551 295.736 246.999 295.48C247.458 295.213 247.82 294.835 248.087 294.344C248.354 293.843 248.487 293.261 248.487 292.6ZM256.692 288.072C257.758 288.072 258.622 288.397 259.284 289.048C259.945 289.688 260.276 290.616 260.276 291.832V297H258.836V292.04C258.836 291.165 258.617 290.499 258.18 290.04C257.742 289.571 257.145 289.336 256.388 289.336C255.62 289.336 255.006 289.576 254.548 290.056C254.1 290.536 253.876 291.235 253.876 292.152V297H252.42V288.232H253.876V289.48C254.164 289.032 254.553 288.685 255.044 288.44C255.545 288.195 256.094 288.072 256.692 288.072ZM266.376 292.584C266.376 291.688 266.557 290.904 266.92 290.232C267.282 289.549 267.778 289.021 268.408 288.648C269.048 288.275 269.757 288.088 270.536 288.088C271.304 288.088 271.97 288.253 272.536 288.584C273.101 288.915 273.522 289.331 273.8 289.832V288.232H275.272V297H273.8V295.368C273.512 295.88 273.08 296.307 272.504 296.648C271.938 296.979 271.277 297.144 270.52 297.144C269.741 297.144 269.037 296.952 268.408 296.568C267.778 296.184 267.282 295.645 266.92 294.952C266.557 294.259 266.376 293.469 266.376 292.584ZM273.8 292.6C273.8 291.939 273.666 291.363 273.4 290.872C273.133 290.381 272.77 290.008 272.312 289.752C271.864 289.485 271.368 289.352 270.824 289.352C270.28 289.352 269.784 289.48 269.336 289.736C268.888 289.992 268.53 290.365 268.264 290.856C267.997 291.347 267.864 291.923 267.864 292.584C267.864 293.256 267.997 293.843 268.264 294.344C268.53 294.835 268.888 295.213 269.336 295.48C269.784 295.736 270.28 295.864 270.824 295.864C271.368 295.864 271.864 295.736 272.312 295.48C272.77 295.213 273.133 294.835 273.4 294.344C273.666 293.843 273.8 293.261 273.8 292.6ZM282.628 297L279.188 293.128V297H277.732V285.16H279.188V292.12L282.564 288.232H284.596L280.468 292.6L284.612 297H282.628ZM285.422 292.584C285.422 291.688 285.604 290.904 285.966 290.232C286.329 289.549 286.825 289.021 287.454 288.648C288.094 288.275 288.804 288.088 289.582 288.088C290.35 288.088 291.017 288.253 291.582 288.584C292.148 288.915 292.569 289.331 292.846 289.832V288.232H294.318V297H292.846V295.368C292.558 295.88 292.126 296.307 291.55 296.648C290.985 296.979 290.324 297.144 289.566 297.144C288.788 297.144 288.084 296.952 287.454 296.568C286.825 296.184 286.329 295.645 285.966 294.952C285.604 294.259 285.422 293.469 285.422 292.584ZM292.846 292.6C292.846 291.939 292.713 291.363 292.446 290.872C292.18 290.381 291.817 290.008 291.358 289.752C290.91 289.485 290.414 289.352 289.87 289.352C289.326 289.352 288.83 289.48 288.382 289.736C287.934 289.992 287.577 290.365 287.31 290.856C287.044 291.347 286.91 291.923 286.91 292.584C286.91 293.256 287.044 293.843 287.31 294.344C287.577 294.835 287.934 295.213 288.382 295.48C288.83 295.736 289.326 295.864 289.87 295.864C290.414 295.864 290.91 295.736 291.358 295.48C291.817 295.213 292.18 294.835 292.446 294.344C292.713 293.843 292.846 293.261 292.846 292.6ZM301.051 288.072C302.118 288.072 302.982 288.397 303.643 289.048C304.304 289.688 304.635 290.616 304.635 291.832V297H303.195V292.04C303.195 291.165 302.976 290.499 302.539 290.04C302.102 289.571 301.504 289.336 300.747 289.336C299.979 289.336 299.366 289.576 298.907 290.056C298.459 290.536 298.235 291.235 298.235 292.152V297H296.779V288.232H298.235V289.48C298.523 289.032 298.912 288.685 299.403 288.44C299.904 288.195 300.454 288.072 301.051 288.072ZM107.43 318.6C107.43 317.693 107.612 316.904 107.974 316.232C108.337 315.549 108.838 315.021 109.478 314.648C110.129 314.275 110.87 314.088 111.702 314.088C112.78 314.088 113.665 314.349 114.358 314.872C115.062 315.395 115.526 316.12 115.75 317.048H114.182C114.033 316.515 113.74 316.093 113.302 315.784C112.876 315.475 112.342 315.32 111.702 315.32C110.87 315.32 110.198 315.608 109.686 316.184C109.174 316.749 108.918 317.555 108.918 318.6C108.918 319.656 109.174 320.472 109.686 321.048C110.198 321.624 110.87 321.912 111.702 321.912C112.342 321.912 112.876 321.763 113.302 321.464C113.729 321.165 114.022 320.739 114.182 320.184H115.75C115.516 321.08 115.046 321.8 114.342 322.344C113.638 322.877 112.758 323.144 111.702 323.144C110.87 323.144 110.129 322.957 109.478 322.584C108.838 322.211 108.337 321.683 107.974 321C107.612 320.317 107.43 319.517 107.43 318.6ZM117.149 318.584C117.149 317.688 117.33 316.904 117.693 316.232C118.056 315.549 118.552 315.021 119.181 314.648C119.821 314.275 120.53 314.088 121.309 314.088C122.077 314.088 122.744 314.253 123.309 314.584C123.874 314.915 124.296 315.331 124.573 315.832V314.232H126.045V323H124.573V321.368C124.285 321.88 123.853 322.307 123.277 322.648C122.712 322.979 122.05 323.144 121.293 323.144C120.514 323.144 119.81 322.952 119.181 322.568C118.552 322.184 118.056 321.645 117.693 320.952C117.33 320.259 117.149 319.469 117.149 318.584ZM124.573 318.6C124.573 317.939 124.44 317.363 124.173 316.872C123.906 316.381 123.544 316.008 123.085 315.752C122.637 315.485 122.141 315.352 121.597 315.352C121.053 315.352 120.557 315.48 120.109 315.736C119.661 315.992 119.304 316.365 119.037 316.856C118.77 317.347 118.637 317.923 118.637 318.584C118.637 319.256 118.77 319.843 119.037 320.344C119.304 320.835 119.661 321.213 120.109 321.48C120.557 321.736 121.053 321.864 121.597 321.864C122.141 321.864 122.637 321.736 123.085 321.48C123.544 321.213 123.906 320.835 124.173 320.344C124.44 319.843 124.573 319.261 124.573 318.6ZM129.961 315.656C130.217 315.155 130.58 314.765 131.049 314.488C131.529 314.211 132.111 314.072 132.793 314.072V315.576H132.409C130.777 315.576 129.961 316.461 129.961 318.232V323H128.505V314.232H129.961V315.656ZM133.93 318.584C133.93 317.688 134.112 316.904 134.474 316.232C134.837 315.549 135.333 315.021 135.962 314.648C136.602 314.275 137.312 314.088 138.09 314.088C138.858 314.088 139.525 314.253 140.09 314.584C140.656 314.915 141.077 315.331 141.354 315.832V314.232H142.826V323H141.354V321.368C141.066 321.88 140.634 322.307 140.058 322.648C139.493 322.979 138.832 323.144 138.074 323.144C137.296 323.144 136.592 322.952 135.962 322.568C135.333 322.184 134.837 321.645 134.474 320.952C134.112 320.259 133.93 319.469 133.93 318.584ZM141.354 318.6C141.354 317.939 141.221 317.363 140.954 316.872C140.688 316.381 140.325 316.008 139.866 315.752C139.418 315.485 138.922 315.352 138.378 315.352C137.834 315.352 137.338 315.48 136.89 315.736C136.442 315.992 136.085 316.365 135.818 316.856C135.552 317.347 135.418 317.923 135.418 318.584C135.418 319.256 135.552 319.843 135.818 320.344C136.085 320.835 136.442 321.213 136.89 321.48C137.338 321.736 137.834 321.864 138.378 321.864C138.922 321.864 139.418 321.736 139.866 321.48C140.325 321.213 140.688 320.835 140.954 320.344C141.221 319.843 141.354 319.261 141.354 318.6ZM151.008 315.848C151.296 315.347 151.723 314.931 152.288 314.6C152.864 314.259 153.531 314.088 154.288 314.088C155.067 314.088 155.771 314.275 156.4 314.648C157.04 315.021 157.542 315.549 157.904 316.232C158.267 316.904 158.448 317.688 158.448 318.584C158.448 319.469 158.267 320.259 157.904 320.952C157.542 321.645 157.04 322.184 156.4 322.568C155.771 322.952 155.067 323.144 154.288 323.144C153.542 323.144 152.88 322.979 152.304 322.648C151.739 322.307 151.307 321.885 151.008 321.384V327.16H149.552V314.232H151.008V315.848ZM156.96 318.584C156.96 317.923 156.827 317.347 156.56 316.856C156.294 316.365 155.931 315.992 155.472 315.736C155.024 315.48 154.528 315.352 153.984 315.352C153.451 315.352 152.955 315.485 152.496 315.752C152.048 316.008 151.686 316.387 151.408 316.888C151.142 317.379 151.008 317.949 151.008 318.6C151.008 319.261 151.142 319.843 151.408 320.344C151.686 320.835 152.048 321.213 152.496 321.48C152.955 321.736 153.451 321.864 153.984 321.864C154.528 321.864 155.024 321.736 155.472 321.48C155.931 321.213 156.294 320.835 156.56 320.344C156.827 319.843 156.96 319.256 156.96 318.584ZM168.365 318.28C168.365 318.557 168.349 318.851 168.317 319.16H161.309C161.362 320.024 161.655 320.701 162.189 321.192C162.733 321.672 163.389 321.912 164.157 321.912C164.786 321.912 165.309 321.768 165.725 321.48C166.151 321.181 166.45 320.787 166.621 320.296H168.189C167.954 321.139 167.485 321.827 166.781 322.36C166.077 322.883 165.202 323.144 164.157 323.144C163.325 323.144 162.578 322.957 161.917 322.584C161.266 322.211 160.754 321.683 160.381 321C160.007 320.307 159.821 319.507 159.821 318.6C159.821 317.693 160.002 316.899 160.365 316.216C160.727 315.533 161.234 315.011 161.885 314.648C162.546 314.275 163.303 314.088 164.157 314.088C164.989 314.088 165.725 314.269 166.365 314.632C167.005 314.995 167.495 315.496 167.837 316.136C168.189 316.765 168.365 317.48 168.365 318.28ZM166.861 317.976C166.861 317.421 166.738 316.947 166.493 316.552C166.247 316.147 165.911 315.843 165.485 315.64C165.069 315.427 164.605 315.32 164.093 315.32C163.357 315.32 162.727 315.555 162.205 316.024C161.693 316.493 161.399 317.144 161.325 317.976H166.861ZM174.559 314.072C175.625 314.072 176.489 314.397 177.151 315.048C177.812 315.688 178.143 316.616 178.143 317.832V323H176.703V318.04C176.703 317.165 176.484 316.499 176.047 316.04C175.609 315.571 175.012 315.336 174.255 315.336C173.487 315.336 172.873 315.576 172.415 316.056C171.967 316.536 171.743 317.235 171.743 318.152V323H170.287V314.232H171.743V315.48C172.031 315.032 172.42 314.685 172.911 314.44C173.412 314.195 173.961 314.072 174.559 314.072ZM179.977 318.6C179.977 317.693 180.158 316.904 180.521 316.232C180.884 315.549 181.385 315.021 182.025 314.648C182.676 314.275 183.417 314.088 184.249 314.088C185.326 314.088 186.212 314.349 186.905 314.872C187.609 315.395 188.073 316.12 188.297 317.048H186.729C186.58 316.515 186.286 316.093 185.849 315.784C185.422 315.475 184.889 315.32 184.249 315.32C183.417 315.32 182.745 315.608 182.233 316.184C181.721 316.749 181.465 317.555 181.465 318.6C181.465 319.656 181.721 320.472 182.233 321.048C182.745 321.624 183.417 321.912 184.249 321.912C184.889 321.912 185.422 321.763 185.849 321.464C186.276 321.165 186.569 320.739 186.729 320.184H188.297C188.062 321.08 187.593 321.8 186.889 322.344C186.185 322.877 185.305 323.144 184.249 323.144C183.417 323.144 182.676 322.957 182.025 322.584C181.385 322.211 180.884 321.683 180.521 321C180.158 320.317 179.977 319.517 179.977 318.6ZM198.24 318.28C198.24 318.557 198.224 318.851 198.192 319.16H191.184C191.237 320.024 191.53 320.701 192.064 321.192C192.608 321.672 193.264 321.912 194.032 321.912C194.661 321.912 195.184 321.768 195.6 321.48C196.026 321.181 196.325 320.787 196.496 320.296H198.064C197.829 321.139 197.36 321.827 196.656 322.36C195.952 322.883 195.077 323.144 194.032 323.144C193.2 323.144 192.453 322.957 191.792 322.584C191.141 322.211 190.629 321.683 190.256 321C189.882 320.307 189.696 319.507 189.696 318.6C189.696 317.693 189.877 316.899 190.24 316.216C190.602 315.533 191.109 315.011 191.76 314.648C192.421 314.275 193.178 314.088 194.032 314.088C194.864 314.088 195.6 314.269 196.24 314.632C196.88 314.995 197.37 315.496 197.712 316.136C198.064 316.765 198.24 317.48 198.24 318.28ZM196.736 317.976C196.736 317.421 196.613 316.947 196.368 316.552C196.122 316.147 195.786 315.843 195.36 315.64C194.944 315.427 194.48 315.32 193.968 315.32C193.232 315.32 192.602 315.555 192.08 316.024C191.568 316.493 191.274 317.144 191.2 317.976H196.736ZM203.778 314.088C204.535 314.088 205.196 314.253 205.762 314.584C206.338 314.915 206.764 315.331 207.042 315.832V314.232H208.514V323.192C208.514 323.992 208.343 324.701 208.002 325.32C207.66 325.949 207.17 326.44 206.53 326.792C205.9 327.144 205.164 327.32 204.322 327.32C203.17 327.32 202.21 327.048 201.442 326.504C200.674 325.96 200.22 325.219 200.082 324.28H201.522C201.682 324.813 202.012 325.24 202.514 325.56C203.015 325.891 203.618 326.056 204.322 326.056C205.122 326.056 205.772 325.805 206.274 325.304C206.786 324.803 207.042 324.099 207.042 323.192V321.352C206.754 321.864 206.327 322.291 205.762 322.632C205.196 322.973 204.535 323.144 203.778 323.144C202.999 323.144 202.29 322.952 201.65 322.568C201.02 322.184 200.524 321.645 200.162 320.952C199.799 320.259 199.618 319.469 199.618 318.584C199.618 317.688 199.799 316.904 200.162 316.232C200.524 315.549 201.02 315.021 201.65 314.648C202.29 314.275 202.999 314.088 203.778 314.088ZM207.042 318.6C207.042 317.939 206.908 317.363 206.642 316.872C206.375 316.381 206.012 316.008 205.554 315.752C205.106 315.485 204.61 315.352 204.066 315.352C203.522 315.352 203.026 315.48 202.578 315.736C202.13 315.992 201.772 316.365 201.506 316.856C201.239 317.347 201.106 317.923 201.106 318.584C201.106 319.256 201.239 319.843 201.506 320.344C201.772 320.835 202.13 321.213 202.578 321.48C203.026 321.736 203.522 321.864 204.066 321.864C204.61 321.864 205.106 321.736 205.554 321.48C206.012 321.213 206.375 320.835 206.642 320.344C206.908 319.843 207.042 319.261 207.042 318.6ZM210.43 318.584C210.43 317.688 210.612 316.904 210.974 316.232C211.337 315.549 211.833 315.021 212.462 314.648C213.102 314.275 213.812 314.088 214.59 314.088C215.358 314.088 216.025 314.253 216.59 314.584C217.156 314.915 217.577 315.331 217.854 315.832V314.232H219.326V323H217.854V321.368C217.566 321.88 217.134 322.307 216.558 322.648C215.993 322.979 215.332 323.144 214.574 323.144C213.796 323.144 213.092 322.952 212.462 322.568C211.833 322.184 211.337 321.645 210.974 320.952C210.612 320.259 210.43 319.469 210.43 318.584ZM217.854 318.6C217.854 317.939 217.721 317.363 217.454 316.872C217.188 316.381 216.825 316.008 216.366 315.752C215.918 315.485 215.422 315.352 214.878 315.352C214.334 315.352 213.838 315.48 213.39 315.736C212.942 315.992 212.585 316.365 212.318 316.856C212.052 317.347 211.918 317.923 211.918 318.584C211.918 319.256 212.052 319.843 212.318 320.344C212.585 320.835 212.942 321.213 213.39 321.48C213.838 321.736 214.334 321.864 214.878 321.864C215.422 321.864 215.918 321.736 216.366 321.48C216.825 321.213 217.188 320.835 217.454 320.344C217.721 319.843 217.854 319.261 217.854 318.6ZM226.139 314.072C226.8 314.072 227.397 314.216 227.931 314.504C228.464 314.781 228.88 315.203 229.179 315.768C229.488 316.333 229.643 317.021 229.643 317.832V323H228.203V318.04C228.203 317.165 227.984 316.499 227.547 316.04C227.109 315.571 226.512 315.336 225.755 315.336C224.987 315.336 224.373 315.576 223.915 316.056C223.467 316.536 223.243 317.235 223.243 318.152V323H221.787V311.16H223.243V315.48C223.531 315.032 223.925 314.685 224.427 314.44C224.939 314.195 225.509 314.072 226.139 314.072ZM231.477 318.584C231.477 317.688 231.658 316.904 232.021 316.232C232.384 315.549 232.88 315.021 233.509 314.648C234.149 314.275 234.858 314.088 235.637 314.088C236.405 314.088 237.072 314.253 237.637 314.584C238.202 314.915 238.624 315.331 238.901 315.832V314.232H240.373V323H238.901V321.368C238.613 321.88 238.181 322.307 237.605 322.648C237.04 322.979 236.378 323.144 235.621 323.144C234.842 323.144 234.138 322.952 233.509 322.568C232.88 322.184 232.384 321.645 232.021 320.952C231.658 320.259 231.477 319.469 231.477 318.584ZM238.901 318.6C238.901 317.939 238.768 317.363 238.501 316.872C238.234 316.381 237.872 316.008 237.413 315.752C236.965 315.485 236.469 315.352 235.925 315.352C235.381 315.352 234.885 315.48 234.437 315.736C233.989 315.992 233.632 316.365 233.365 316.856C233.098 317.347 232.965 317.923 232.965 318.584C232.965 319.256 233.098 319.843 233.365 320.344C233.632 320.835 233.989 321.213 234.437 321.48C234.885 321.736 235.381 321.864 235.925 321.864C236.469 321.864 236.965 321.736 237.413 321.48C237.872 321.213 238.234 320.835 238.501 320.344C238.768 319.843 238.901 319.261 238.901 318.6ZM247.106 314.072C248.172 314.072 249.036 314.397 249.698 315.048C250.359 315.688 250.69 316.616 250.69 317.832V323H249.25V318.04C249.25 317.165 249.031 316.499 248.594 316.04C248.156 315.571 247.559 315.336 246.802 315.336C246.034 315.336 245.42 315.576 244.962 316.056C244.514 316.536 244.29 317.235 244.29 318.152V323H242.834V314.232H244.29V315.48C244.578 315.032 244.967 314.685 245.458 314.44C245.959 314.195 246.508 314.072 247.106 314.072ZM257.34 314.072C258.407 314.072 259.271 314.397 259.932 315.048C260.593 315.688 260.924 316.616 260.924 317.832V323H259.484V318.04C259.484 317.165 259.265 316.499 258.828 316.04C258.391 315.571 257.793 315.336 257.036 315.336C256.268 315.336 255.655 315.576 255.196 316.056C254.748 316.536 254.524 317.235 254.524 318.152V323H253.068V314.232H254.524V315.48C254.812 315.032 255.201 314.685 255.692 314.44C256.193 314.195 256.743 314.072 257.34 314.072ZM270.854 314.232L265.574 327.128H264.07L265.798 322.904L262.262 314.232H263.878L266.63 321.336L269.35 314.232H270.854ZM271.774 318.584C271.774 317.688 271.955 316.904 272.318 316.232C272.681 315.549 273.177 315.021 273.806 314.648C274.446 314.275 275.155 314.088 275.934 314.088C276.702 314.088 277.369 314.253 277.934 314.584C278.499 314.915 278.921 315.331 279.198 315.832V314.232H280.67V323H279.198V321.368C278.91 321.88 278.478 322.307 277.902 322.648C277.337 322.979 276.675 323.144 275.918 323.144C275.139 323.144 274.435 322.952 273.806 322.568C273.177 322.184 272.681 321.645 272.318 320.952C271.955 320.259 271.774 319.469 271.774 318.584ZM279.198 318.6C279.198 317.939 279.065 317.363 278.798 316.872C278.531 316.381 278.169 316.008 277.71 315.752C277.262 315.485 276.766 315.352 276.222 315.352C275.678 315.352 275.182 315.48 274.734 315.736C274.286 315.992 273.929 316.365 273.662 316.856C273.395 317.347 273.262 317.923 273.262 318.584C273.262 319.256 273.395 319.843 273.662 320.344C273.929 320.835 274.286 321.213 274.734 321.48C275.182 321.736 275.678 321.864 276.222 321.864C276.766 321.864 277.262 321.736 277.71 321.48C278.169 321.213 278.531 320.835 278.798 320.344C279.065 319.843 279.198 319.261 279.198 318.6ZM283.594 323.096C283.317 323.096 283.082 323 282.89 322.808C282.698 322.616 282.602 322.381 282.602 322.104C282.602 321.827 282.698 321.592 282.89 321.4C283.082 321.208 283.317 321.112 283.594 321.112C283.861 321.112 284.085 321.208 284.266 321.4C284.458 321.592 284.554 321.827 284.554 322.104C284.554 322.381 284.458 322.616 284.266 322.808C284.085 323 283.861 323.096 283.594 323.096Z" fill="#808080"/>
<path d="M196 117C196 114.878 195.157 112.843 193.657 111.343C192.157 109.843 190.122 109 188 109H176V139H190C191.591 139 193.117 139.632 194.243 140.757C195.368 141.883 196 143.409 196 145M196 117V145M196 117C196 114.878 196.843 112.843 198.343 111.343C199.843 109.843 201.878 109 204 109H216V139H202C200.409 139 198.883 139.632 197.757 140.757C196.632 141.883 196 143.409 196 145" stroke="white" stroke-width="4" stroke-linecap="round" stroke-linejoin="round"/>
<defs>
<filter id="filter0_d_2_273" x="0" y="0" width="400" height="423" filterUnits="userSpaceOnUse" color-interpolation-filters="sRGB">
<feFlood flood-opacity="0" result="BackgroundImageFix"/>
<feColorMatrix in="SourceAlpha" type="matrix" values="0 0 0 0 0 0 0 0 0 0 0 0 0 0 0 0 0 0 127 0" result="hardAlpha"/>
<feOffset dx="4" dy="10"/>
<feGaussianBlur stdDeviation="15"/>
<feComposite in2="hardAlpha" operator="out"/>
<feColorMatrix type="matrix" values="0 0 0 0 0 0 0 0 0 0 0 0 0 0 0 0 0 0 0.03 0"/>
<feBlend mode="normal" in2="BackgroundImageFix" result="effect1_dropShadow_2_273"/>
<feBlend mode="normal" in="SourceGraphic" in2="effect1_dropShadow_2_273" result="shape"/>
</filter>
<filter id="filter1_d_2_273" x="125" y="60" width="150" height="150" filterUnits="userSpaceOnUse" color-interpolation-filters="sRGB">
<feFlood flood-opacity="0" result="BackgroundImageFix"/>
<feColorMatrix in="SourceAlpha" type="matrix" values="0 0 0 0 0 0 0 0 0 0 0 0 0 0 0 0 0 0 127 0" result="hardAlpha"/>
<feOffset dx="4" dy="10"/>
<feGaussianBlur stdDeviation="15"/>
<feComposite in2="hardAlpha" operator="out"/>
<feColorMatrix type="matrix" values="0 0 0 0 0.262745 0 0 0 0 0.380392 0 0 0 0 0.933333 0 0 0 0.4 0"/>
<feBlend mode="normal" in2="BackgroundImageFix" result="effect1_dropShadow_2_273"/>
<feBlend mode="normal" in="SourceGraphic" in2="effect1_dropShadow_2_273" result="shape"/>
</filter>
</defs>
</svg>
