<svg width="400" height="423" viewBox="0 0 400 423" fill="none" xmlns="http://www.w3.org/2000/svg">
<g filter="url(#filter0_d_2_266)">
<rect x="26" y="20" width="340" height="363" rx="30" fill="white"/>
</g>
<g filter="url(#filter1_d_2_266)">
<circle cx="196" cy="125" r="45" fill="#4361EE"/>
</g>
<path d="M107.217 204.533C107.217 205.218 107.055 205.865 106.732 206.473C106.408 207.081 105.891 207.579 105.18 207.967C104.468 208.342 103.557 208.529 102.444 208.529H99.9999V214H97.7883V200.517H102.444C103.479 200.517 104.352 200.698 105.063 201.06C105.788 201.409 106.324 201.888 106.674 202.496C107.036 203.104 107.217 203.783 107.217 204.533ZM102.444 206.725C103.285 206.725 103.912 206.537 104.326 206.162C104.74 205.774 104.947 205.231 104.947 204.533C104.947 203.058 104.113 202.321 102.444 202.321H99.9999V206.725H102.444ZM108.589 208.607C108.589 207.533 108.809 206.583 109.248 205.755C109.701 204.927 110.309 204.287 111.072 203.834C111.848 203.369 112.702 203.136 113.633 203.136C114.473 203.136 115.204 203.304 115.825 203.64C116.459 203.964 116.963 204.371 117.338 204.863V203.311H119.569V214H117.338V212.409C116.963 212.914 116.452 213.334 115.806 213.67C115.159 214.006 114.422 214.175 113.594 214.175C112.676 214.175 111.835 213.942 111.072 213.476C110.309 212.998 109.701 212.338 109.248 211.497C108.809 210.644 108.589 209.68 108.589 208.607ZM117.338 208.646C117.338 207.908 117.183 207.268 116.873 206.725C116.575 206.182 116.181 205.768 115.689 205.483C115.198 205.199 114.667 205.057 114.098 205.057C113.529 205.057 112.999 205.199 112.508 205.483C112.016 205.755 111.615 206.162 111.305 206.706C111.007 207.236 110.859 207.87 110.859 208.607C110.859 209.344 111.007 209.991 111.305 210.547C111.615 211.103 112.016 211.53 112.508 211.827C113.012 212.112 113.542 212.254 114.098 212.254C114.667 212.254 115.198 212.112 115.689 211.827C116.181 211.543 116.575 211.129 116.873 210.586C117.183 210.029 117.338 209.383 117.338 208.646ZM127.867 203.136C128.708 203.136 129.458 203.311 130.118 203.66C130.79 204.009 131.314 204.526 131.689 205.212C132.064 205.897 132.252 206.725 132.252 207.695V214H130.059V208.025C130.059 207.068 129.82 206.337 129.342 205.833C128.863 205.315 128.21 205.057 127.382 205.057C126.555 205.057 125.895 205.315 125.403 205.833C124.925 206.337 124.686 207.068 124.686 208.025V214H122.474V203.311H124.686V204.533C125.048 204.093 125.507 203.75 126.063 203.505C126.632 203.259 127.234 203.136 127.867 203.136ZM137.653 205.115V211.032C137.653 211.433 137.743 211.724 137.924 211.905C138.118 212.073 138.442 212.157 138.894 212.157H140.252V214H138.506C137.511 214 136.748 213.767 136.217 213.302C135.687 212.836 135.422 212.079 135.422 211.032V205.115H134.161V203.311H135.422V200.653H137.653V203.311H140.252V205.115H137.653ZM141.554 208.607C141.554 207.533 141.774 206.583 142.213 205.755C142.666 204.927 143.274 204.287 144.037 203.834C144.813 203.369 145.666 203.136 146.598 203.136C147.438 203.136 148.169 203.304 148.79 203.64C149.424 203.964 149.928 204.371 150.303 204.863V203.311H152.534V214H150.303V212.409C149.928 212.914 149.417 213.334 148.77 213.67C148.124 214.006 147.387 214.175 146.559 214.175C145.641 214.175 144.8 213.942 144.037 213.476C143.274 212.998 142.666 212.338 142.213 211.497C141.774 210.644 141.554 209.68 141.554 208.607ZM150.303 208.646C150.303 207.908 150.148 207.268 149.837 206.725C149.54 206.182 149.146 205.768 148.654 205.483C148.163 205.199 147.632 205.057 147.063 205.057C146.494 205.057 145.964 205.199 145.472 205.483C144.981 205.755 144.58 206.162 144.27 206.706C143.972 207.236 143.823 207.87 143.823 208.607C143.823 209.344 143.972 209.991 144.27 210.547C144.58 211.103 144.981 211.53 145.472 211.827C145.977 212.112 146.507 212.254 147.063 212.254C147.632 212.254 148.163 212.112 148.654 211.827C149.146 211.543 149.54 211.129 149.837 210.586C150.148 210.029 150.303 209.383 150.303 208.646ZM165.119 203.311V214H162.908V212.739C162.559 213.179 162.1 213.528 161.53 213.787C160.974 214.032 160.379 214.155 159.746 214.155C158.905 214.155 158.148 213.981 157.476 213.631C156.816 213.282 156.292 212.765 155.904 212.079C155.529 211.394 155.342 210.566 155.342 209.596V203.311H157.534V209.266C157.534 210.223 157.773 210.961 158.252 211.478C158.73 211.982 159.384 212.235 160.211 212.235C161.039 212.235 161.692 211.982 162.171 211.478C162.662 210.961 162.908 210.223 162.908 209.266V203.311H165.119ZM167.3 208.607C167.3 207.533 167.52 206.583 167.96 205.755C168.413 204.927 169.02 204.287 169.784 203.834C170.56 203.369 171.413 203.136 172.344 203.136C173.185 203.136 173.916 203.304 174.537 203.64C175.17 203.964 175.675 204.371 176.05 204.863V203.311H178.281V214H176.05V212.409C175.675 212.914 175.164 213.334 174.517 213.67C173.87 214.006 173.133 214.175 172.306 214.175C171.387 214.175 170.547 213.942 169.784 213.476C169.02 212.998 168.413 212.338 167.96 211.497C167.52 210.644 167.3 209.68 167.3 208.607ZM176.05 208.646C176.05 207.908 175.895 207.268 175.584 206.725C175.287 206.182 174.892 205.768 174.401 205.483C173.909 205.199 173.379 205.057 172.81 205.057C172.241 205.057 171.711 205.199 171.219 205.483C170.728 205.755 170.327 206.162 170.016 206.706C169.719 207.236 169.57 207.87 169.57 208.607C169.57 209.344 169.719 209.991 170.016 210.547C170.327 211.103 170.728 211.53 171.219 211.827C171.724 212.112 172.254 212.254 172.81 212.254C173.379 212.254 173.909 212.112 174.401 211.827C174.892 211.543 175.287 211.129 175.584 210.586C175.895 210.029 176.05 209.383 176.05 208.646ZM186.579 203.136C187.419 203.136 188.17 203.311 188.829 203.66C189.502 204.009 190.026 204.526 190.401 205.212C190.776 205.897 190.963 206.725 190.963 207.695V214H188.771V208.025C188.771 207.068 188.532 206.337 188.053 205.833C187.575 205.315 186.922 205.057 186.094 205.057C185.266 205.057 184.606 205.315 184.115 205.833C183.636 206.337 183.397 207.068 183.397 208.025V214H181.186V203.311H183.397V204.533C183.759 204.093 184.218 203.75 184.775 203.505C185.344 203.259 185.945 203.136 186.579 203.136ZM206.254 214L201.035 207.967V214H198.824V200.517H201.035V206.667L206.273 200.517H209.047L203.189 207.268L209.144 214H206.254ZM220.897 208.393C220.897 208.794 220.871 209.156 220.82 209.48H212.652C212.717 210.333 213.034 211.019 213.603 211.536C214.172 212.054 214.87 212.312 215.698 212.312C216.888 212.312 217.729 211.814 218.22 210.818H220.606C220.283 211.801 219.694 212.61 218.841 213.243C218 213.864 216.953 214.175 215.698 214.175C214.676 214.175 213.758 213.948 212.943 213.496C212.141 213.03 211.508 212.383 211.042 211.556C210.589 210.715 210.363 209.745 210.363 208.646C210.363 207.546 210.583 206.583 211.023 205.755C211.475 204.914 212.103 204.268 212.904 203.815C213.719 203.362 214.65 203.136 215.698 203.136C216.707 203.136 217.606 203.356 218.395 203.796C219.184 204.235 219.798 204.856 220.238 205.658C220.677 206.447 220.897 207.359 220.897 208.393ZM218.589 207.695C218.576 206.88 218.285 206.227 217.716 205.736C217.147 205.244 216.442 204.998 215.601 204.998C214.838 204.998 214.185 205.244 213.642 205.736C213.098 206.214 212.775 206.867 212.672 207.695H218.589ZM226.954 214.175C226.113 214.175 225.356 214.026 224.684 213.728C224.024 213.418 223.5 213.004 223.112 212.487C222.724 211.957 222.518 211.368 222.492 210.721H224.781C224.82 211.174 225.033 211.556 225.421 211.866C225.822 212.163 226.32 212.312 226.915 212.312C227.536 212.312 228.014 212.196 228.35 211.963C228.7 211.717 228.874 211.407 228.874 211.032C228.874 210.631 228.68 210.333 228.292 210.139C227.917 209.945 227.316 209.732 226.488 209.499C225.686 209.279 225.033 209.066 224.529 208.859C224.024 208.652 223.585 208.335 223.209 207.908C222.847 207.482 222.666 206.919 222.666 206.221C222.666 205.652 222.834 205.134 223.171 204.669C223.507 204.19 223.985 203.815 224.606 203.543C225.24 203.272 225.964 203.136 226.779 203.136C227.995 203.136 228.971 203.446 229.708 204.067C230.459 204.675 230.86 205.509 230.911 206.57H228.7C228.661 206.091 228.467 205.71 228.118 205.425C227.768 205.141 227.296 204.998 226.701 204.998C226.119 204.998 225.673 205.108 225.363 205.328C225.052 205.548 224.897 205.839 224.897 206.201C224.897 206.486 225.001 206.725 225.208 206.919C225.415 207.113 225.667 207.268 225.964 207.385C226.262 207.488 226.701 207.624 227.283 207.792C228.059 207.999 228.693 208.212 229.185 208.432C229.689 208.639 230.122 208.95 230.484 209.363C230.847 209.777 231.034 210.327 231.047 211.012C231.047 211.62 230.879 212.163 230.543 212.642C230.206 213.121 229.728 213.496 229.107 213.767C228.499 214.039 227.781 214.175 226.954 214.175ZM243.234 208.393C243.234 208.794 243.208 209.156 243.156 209.48H234.989C235.053 210.333 235.37 211.019 235.939 211.536C236.508 212.054 237.207 212.312 238.035 212.312C239.224 212.312 240.065 211.814 240.557 210.818H242.943C242.619 211.801 242.031 212.61 241.177 213.243C240.337 213.864 239.289 214.175 238.035 214.175C237.013 214.175 236.095 213.948 235.28 213.496C234.478 213.03 233.844 212.383 233.379 211.556C232.926 210.715 232.7 209.745 232.7 208.646C232.7 207.546 232.919 206.583 233.359 205.755C233.812 204.914 234.439 204.268 235.241 203.815C236.056 203.362 236.987 203.136 238.035 203.136C239.043 203.136 239.942 203.356 240.731 203.796C241.52 204.235 242.134 204.856 242.574 205.658C243.014 206.447 243.234 207.359 243.234 208.393ZM240.925 207.695C240.912 206.88 240.621 206.227 240.052 205.736C239.483 205.244 238.778 204.998 237.938 204.998C237.174 204.998 236.521 205.244 235.978 205.736C235.435 206.214 235.112 206.867 235.008 207.695H240.925ZM250.939 203.136C251.754 203.136 252.478 203.311 253.112 203.66C253.759 204.009 254.263 204.526 254.625 205.212C255 205.897 255.188 206.725 255.188 207.695V214H252.996V208.025C252.996 207.068 252.756 206.337 252.278 205.833C251.799 205.315 251.146 205.057 250.318 205.057C249.491 205.057 248.831 205.315 248.34 205.833C247.861 206.337 247.622 207.068 247.622 208.025V214H245.41V199.644H247.622V204.552C247.997 204.1 248.469 203.75 249.038 203.505C249.62 203.259 250.254 203.136 250.939 203.136ZM257.272 208.607C257.272 207.533 257.491 206.583 257.931 205.755C258.384 204.927 258.992 204.287 259.755 203.834C260.531 203.369 261.384 203.136 262.316 203.136C263.156 203.136 263.887 203.304 264.508 203.64C265.142 203.964 265.646 204.371 266.021 204.863V203.311H268.252V214H266.021V212.409C265.646 212.914 265.135 213.334 264.488 213.67C263.842 214.006 263.105 214.175 262.277 214.175C261.359 214.175 260.518 213.942 259.755 213.476C258.992 212.998 258.384 212.338 257.931 211.497C257.491 210.644 257.272 209.68 257.272 208.607ZM266.021 208.646C266.021 207.908 265.866 207.268 265.555 206.725C265.258 206.182 264.863 205.768 264.372 205.483C263.881 205.199 263.35 205.057 262.781 205.057C262.212 205.057 261.682 205.199 261.19 205.483C260.699 205.755 260.298 206.162 259.988 206.706C259.69 207.236 259.541 207.87 259.541 208.607C259.541 209.344 259.69 209.991 259.988 210.547C260.298 211.103 260.699 211.53 261.19 211.827C261.695 212.112 262.225 212.254 262.781 212.254C263.35 212.254 263.881 212.112 264.372 211.827C264.863 211.543 265.258 211.129 265.555 210.586C265.866 210.029 266.021 209.383 266.021 208.646ZM273.737 205.115V211.032C273.737 211.433 273.828 211.724 274.009 211.905C274.203 212.073 274.526 212.157 274.979 212.157H276.337V214H274.591C273.595 214 272.832 213.767 272.301 213.302C271.771 212.836 271.506 212.079 271.506 211.032V205.115H270.245V203.311H271.506V200.653H273.737V203.311H276.337V205.115H273.737ZM277.638 208.607C277.638 207.533 277.858 206.583 278.297 205.755C278.75 204.927 279.358 204.287 280.121 203.834C280.897 203.369 281.751 203.136 282.682 203.136C283.522 203.136 284.253 203.304 284.874 203.64C285.508 203.964 286.012 204.371 286.387 204.863V203.311H288.618V214H286.387V212.409C286.012 212.914 285.501 213.334 284.855 213.67C284.208 214.006 283.471 214.175 282.643 214.175C281.725 214.175 280.884 213.942 280.121 213.476C279.358 212.998 278.75 212.338 278.297 211.497C277.858 210.644 277.638 209.68 277.638 208.607ZM286.387 208.646C286.387 207.908 286.232 207.268 285.922 206.725C285.624 206.182 285.23 205.768 284.738 205.483C284.247 205.199 283.716 205.057 283.147 205.057C282.578 205.057 282.048 205.199 281.557 205.483C281.065 205.755 280.664 206.162 280.354 206.706C280.056 207.236 279.908 207.87 279.908 208.607C279.908 209.344 280.056 209.991 280.354 210.547C280.664 211.103 281.065 211.53 281.557 211.827C282.061 212.112 282.591 212.254 283.147 212.254C283.716 212.254 284.247 212.112 284.738 211.827C285.23 211.543 285.624 211.129 285.922 210.586C286.232 210.029 286.387 209.383 286.387 208.646ZM296.916 203.136C297.757 203.136 298.507 203.311 299.167 203.66C299.839 204.009 300.363 204.526 300.738 205.212C301.113 205.897 301.301 206.725 301.301 207.695V214H299.108V208.025C299.108 207.068 298.869 206.337 298.391 205.833C297.912 205.315 297.259 205.057 296.431 205.057C295.604 205.057 294.944 205.315 294.452 205.833C293.974 206.337 293.735 207.068 293.735 208.025V214H291.523V203.311H293.735V204.533C294.097 204.093 294.556 203.75 295.112 203.505C295.681 203.259 296.283 203.136 296.916 203.136ZM102.898 229.517L98.9018 243H96.3992L93.5668 232.796L90.5598 243L88.0766 243.019L84.2548 229.517H86.6022L89.3958 240.497L92.4222 229.517H94.9054L97.7184 240.439L100.531 229.517H102.898ZM105.847 230.894C105.447 230.894 105.11 230.759 104.839 230.487C104.567 230.215 104.431 229.879 104.431 229.478C104.431 229.077 104.567 228.741 104.839 228.469C105.11 228.198 105.447 228.062 105.847 228.062C106.235 228.062 106.565 228.198 106.837 228.469C107.108 228.741 107.244 229.077 107.244 229.478C107.244 229.879 107.108 230.215 106.837 230.487C106.565 230.759 106.235 230.894 105.847 230.894ZM106.934 232.311V243H104.722V232.311H106.934ZM112.049 228.644V243H109.838V228.644H112.049ZM114.216 237.607C114.216 236.533 114.435 235.583 114.875 234.755C115.328 233.927 115.936 233.287 116.699 232.834C117.475 232.369 118.328 232.136 119.26 232.136C120.1 232.136 120.831 232.304 121.452 232.64C122.085 232.964 122.59 233.371 122.965 233.863V232.311H125.196V243H122.965V241.409C122.59 241.914 122.079 242.334 121.432 242.67C120.786 243.006 120.048 243.175 119.221 243.175C118.302 243.175 117.462 242.942 116.699 242.476C115.936 241.998 115.328 241.338 114.875 240.497C114.435 239.644 114.216 238.68 114.216 237.607ZM122.965 237.646C122.965 236.908 122.81 236.268 122.499 235.725C122.202 235.182 121.807 234.768 121.316 234.483C120.824 234.199 120.294 234.057 119.725 234.057C119.156 234.057 118.626 234.199 118.134 234.483C117.643 234.755 117.242 235.162 116.932 235.706C116.634 236.236 116.485 236.87 116.485 237.607C116.485 238.344 116.634 238.991 116.932 239.547C117.242 240.103 117.643 240.53 118.134 240.827C118.639 241.112 119.169 241.254 119.725 241.254C120.294 241.254 120.824 241.112 121.316 240.827C121.807 240.543 122.202 240.129 122.499 239.586C122.81 239.029 122.965 238.383 122.965 237.646ZM137.723 232.311L131.166 248.025H128.877L131.05 242.825L126.84 232.311H129.304L132.311 240.459L135.434 232.311H137.723ZM138.655 237.607C138.655 236.533 138.875 235.583 139.315 234.755C139.767 233.927 140.375 233.287 141.138 232.834C141.914 232.369 142.768 232.136 143.699 232.136C144.54 232.136 145.27 232.304 145.891 232.64C146.525 232.964 147.029 233.371 147.404 233.863V232.311H149.635V243H147.404V241.409C147.029 241.914 146.518 242.334 145.872 242.67C145.225 243.006 144.488 243.175 143.66 243.175C142.742 243.175 141.901 242.942 141.138 242.476C140.375 241.998 139.767 241.338 139.315 240.497C138.875 239.644 138.655 238.68 138.655 237.607ZM147.404 237.646C147.404 236.908 147.249 236.268 146.939 235.725C146.641 235.182 146.247 234.768 145.755 234.483C145.264 234.199 144.734 234.057 144.165 234.057C143.596 234.057 143.065 234.199 142.574 234.483C142.082 234.755 141.681 235.162 141.371 235.706C141.074 236.236 140.925 236.87 140.925 237.607C140.925 238.344 141.074 238.991 141.371 239.547C141.681 240.103 142.082 240.53 142.574 240.827C143.078 241.112 143.608 241.254 144.165 241.254C144.734 241.254 145.264 241.112 145.755 240.827C146.247 240.543 146.641 240.129 146.939 239.586C147.249 239.029 147.404 238.383 147.404 237.646ZM158.069 232.136C158.884 232.136 159.608 232.311 160.242 232.66C160.889 233.009 161.393 233.526 161.755 234.212C162.13 234.897 162.318 235.725 162.318 236.695V243H160.126V237.025C160.126 236.068 159.886 235.337 159.408 234.833C158.929 234.315 158.276 234.057 157.448 234.057C156.621 234.057 155.961 234.315 155.47 234.833C154.991 235.337 154.752 236.068 154.752 237.025V243H152.54V228.644H154.752V233.552C155.127 233.1 155.599 232.75 156.168 232.505C156.75 232.259 157.384 232.136 158.069 232.136ZM169.441 237.607C169.441 236.533 169.661 235.583 170.101 234.755C170.553 233.927 171.161 233.287 171.924 232.834C172.7 232.369 173.56 232.136 174.505 232.136C175.203 232.136 175.888 232.291 176.561 232.602C177.246 232.899 177.79 233.3 178.191 233.804V228.644H180.422V243H178.191V241.39C177.828 241.907 177.324 242.334 176.677 242.67C176.044 243.006 175.313 243.175 174.485 243.175C173.554 243.175 172.7 242.942 171.924 242.476C171.161 241.998 170.553 241.338 170.101 240.497C169.661 239.644 169.441 238.68 169.441 237.607ZM178.191 237.646C178.191 236.908 178.035 236.268 177.725 235.725C177.427 235.182 177.033 234.768 176.542 234.483C176.05 234.199 175.52 234.057 174.951 234.057C174.382 234.057 173.851 234.199 173.36 234.483C172.868 234.755 172.468 235.162 172.157 235.706C171.86 236.236 171.711 236.87 171.711 237.607C171.711 238.344 171.86 238.991 172.157 239.547C172.468 240.103 172.868 240.53 173.36 240.827C173.864 241.112 174.395 241.254 174.951 241.254C175.52 241.254 176.05 241.112 176.542 240.827C177.033 240.543 177.427 240.129 177.725 239.586C178.035 239.029 178.191 238.383 178.191 237.646ZM184.452 230.894C184.051 230.894 183.714 230.759 183.443 230.487C183.171 230.215 183.035 229.879 183.035 229.478C183.035 229.077 183.171 228.741 183.443 228.469C183.714 228.198 184.051 228.062 184.452 228.062C184.84 228.062 185.169 228.198 185.441 228.469C185.713 228.741 185.848 229.077 185.848 229.478C185.848 229.879 185.713 230.215 185.441 230.487C185.169 230.759 184.84 230.894 184.452 230.894ZM185.538 232.311V243H183.326V232.311H185.538ZM197.361 243.175C196.52 243.175 195.764 243.026 195.091 242.728C194.432 242.418 193.908 242.004 193.52 241.487C193.132 240.957 192.925 240.368 192.899 239.721H195.188C195.227 240.174 195.44 240.556 195.828 240.866C196.229 241.163 196.727 241.312 197.322 241.312C197.943 241.312 198.422 241.196 198.758 240.963C199.107 240.717 199.282 240.407 199.282 240.032C199.282 239.631 199.088 239.333 198.7 239.139C198.325 238.945 197.723 238.732 196.895 238.499C196.094 238.279 195.44 238.066 194.936 237.859C194.432 237.652 193.992 237.335 193.617 236.908C193.255 236.482 193.074 235.919 193.074 235.221C193.074 234.652 193.242 234.134 193.578 233.669C193.914 233.19 194.393 232.815 195.014 232.543C195.647 232.272 196.372 232.136 197.186 232.136C198.402 232.136 199.379 232.446 200.116 233.067C200.866 233.675 201.267 234.509 201.319 235.57H199.107C199.068 235.091 198.874 234.71 198.525 234.425C198.176 234.141 197.704 233.998 197.109 233.998C196.527 233.998 196.081 234.108 195.77 234.328C195.46 234.548 195.305 234.839 195.305 235.201C195.305 235.486 195.408 235.725 195.615 235.919C195.822 236.113 196.074 236.268 196.372 236.385C196.669 236.488 197.109 236.624 197.691 236.792C198.467 236.999 199.101 237.212 199.592 237.432C200.096 237.639 200.53 237.95 200.892 238.363C201.254 238.777 201.442 239.327 201.454 240.012C201.454 240.62 201.286 241.163 200.95 241.642C200.614 242.121 200.135 242.496 199.514 242.767C198.907 243.039 198.189 243.175 197.361 243.175ZM213.641 237.393C213.641 237.794 213.615 238.156 213.564 238.48H205.396C205.461 239.333 205.778 240.019 206.347 240.536C206.916 241.054 207.614 241.312 208.442 241.312C209.632 241.312 210.472 240.814 210.964 239.818H213.35C213.027 240.801 212.438 241.61 211.585 242.243C210.744 242.864 209.696 243.175 208.442 243.175C207.42 243.175 206.502 242.948 205.687 242.496C204.885 242.03 204.252 241.383 203.786 240.556C203.333 239.715 203.107 238.745 203.107 237.646C203.107 236.546 203.327 235.583 203.767 234.755C204.219 233.914 204.846 233.268 205.648 232.815C206.463 232.362 207.394 232.136 208.442 232.136C209.451 232.136 210.35 232.356 211.139 232.796C211.927 233.235 212.542 233.856 212.982 234.658C213.421 235.447 213.641 236.359 213.641 237.393ZM211.333 236.695C211.32 235.88 211.029 235.227 210.46 234.736C209.89 234.244 209.186 233.998 208.345 233.998C207.582 233.998 206.929 234.244 206.386 234.736C205.842 235.214 205.519 235.867 205.416 236.695H211.333ZM220.047 237.665L224.974 243H221.987L218.029 238.402V243H215.818V228.644H218.029V236.986L221.909 232.311H224.974L220.047 237.665ZM227.685 230.894C227.284 230.894 226.948 230.759 226.676 230.487C226.404 230.215 226.269 229.879 226.269 229.478C226.269 229.077 226.404 228.741 226.676 228.469C226.948 228.198 227.284 228.062 227.685 228.062C228.073 228.062 228.403 228.198 228.674 228.469C228.946 228.741 229.082 229.077 229.082 229.478C229.082 229.879 228.946 230.215 228.674 230.487C228.403 230.759 228.073 230.894 227.685 230.894ZM228.771 232.311V243H226.56V232.311H228.771ZM234.255 234.115V240.032C234.255 240.433 234.346 240.724 234.527 240.905C234.721 241.073 235.044 241.157 235.497 241.157H236.855V243H235.109C234.113 243 233.35 242.767 232.819 242.302C232.289 241.836 232.024 241.079 232.024 240.032V234.115H230.763V232.311H232.024V229.653H234.255V232.311H236.855V234.115H234.255ZM238.156 237.607C238.156 236.533 238.376 235.583 238.815 234.755C239.268 233.927 239.876 233.287 240.639 232.834C241.415 232.369 242.269 232.136 243.2 232.136C244.04 232.136 244.771 232.304 245.392 232.64C246.026 232.964 246.53 233.371 246.905 233.863V232.311H249.136V243H246.905V241.409C246.53 241.914 246.019 242.334 245.373 242.67C244.726 243.006 243.989 243.175 243.161 243.175C242.243 243.175 241.402 242.942 240.639 242.476C239.876 241.998 239.268 241.338 238.815 240.497C238.376 239.644 238.156 238.68 238.156 237.607ZM246.905 237.646C246.905 236.908 246.75 236.268 246.44 235.725C246.142 235.182 245.748 234.768 245.256 234.483C244.765 234.199 244.234 234.057 243.665 234.057C243.096 234.057 242.566 234.199 242.075 234.483C241.583 234.755 241.182 235.162 240.872 235.706C240.574 236.236 240.426 236.87 240.426 237.607C240.426 238.344 240.574 238.991 240.872 239.547C241.182 240.103 241.583 240.53 242.075 240.827C242.579 241.112 243.109 241.254 243.665 241.254C244.234 241.254 244.765 241.112 245.256 240.827C245.748 240.543 246.142 240.129 246.44 239.586C246.75 239.029 246.905 238.383 246.905 237.646ZM254.253 233.863C254.576 233.319 255.003 232.899 255.533 232.602C256.076 232.291 256.716 232.136 257.454 232.136V234.425H256.891C256.024 234.425 255.365 234.645 254.912 235.085C254.472 235.525 254.253 236.288 254.253 237.374V243H252.041V232.311H254.253V233.863ZM263.789 237.607C263.789 236.533 264.009 235.583 264.448 234.755C264.901 233.927 265.509 233.287 266.272 232.834C267.048 232.369 267.902 232.136 268.833 232.136C269.673 232.136 270.404 232.304 271.025 232.64C271.659 232.964 272.163 233.371 272.538 233.863V232.311H274.769V243H272.538V241.409C272.163 241.914 271.652 242.334 271.006 242.67C270.359 243.006 269.622 243.175 268.794 243.175C267.876 243.175 267.035 242.942 266.272 242.476C265.509 241.998 264.901 241.338 264.448 240.497C264.009 239.644 263.789 238.68 263.789 237.607ZM272.538 237.646C272.538 236.908 272.383 236.268 272.073 235.725C271.775 235.182 271.381 234.768 270.889 234.483C270.398 234.199 269.867 234.057 269.298 234.057C268.729 234.057 268.199 234.199 267.708 234.483C267.216 234.755 266.815 235.162 266.505 235.706C266.207 236.236 266.059 236.87 266.059 237.607C266.059 238.344 266.207 238.991 266.505 239.547C266.815 240.103 267.216 240.53 267.708 240.827C268.212 241.112 268.742 241.254 269.298 241.254C269.867 241.254 270.398 241.112 270.889 240.827C271.381 240.543 271.775 240.129 272.073 239.586C272.383 239.029 272.538 238.383 272.538 237.646ZM283.067 232.136C283.908 232.136 284.658 232.311 285.318 232.66C285.99 233.009 286.514 233.526 286.889 234.212C287.264 234.897 287.452 235.725 287.452 236.695V243H285.259V237.025C285.259 236.068 285.02 235.337 284.542 234.833C284.063 234.315 283.41 234.057 282.582 234.057C281.755 234.057 281.095 234.315 280.603 234.833C280.125 235.337 279.886 236.068 279.886 237.025V243H277.674V232.311H279.886V233.533C280.248 233.093 280.707 232.75 281.263 232.505C281.832 232.259 282.434 232.136 283.067 232.136ZM289.535 237.607C289.535 236.533 289.755 235.583 290.195 234.755C290.648 233.927 291.256 233.287 292.019 232.834C292.795 232.369 293.655 232.136 294.599 232.136C295.297 232.136 295.983 232.291 296.655 232.602C297.341 232.899 297.884 233.3 298.285 233.804V228.644H300.516V243H298.285V241.39C297.923 241.907 297.418 242.334 296.772 242.67C296.138 243.006 295.407 243.175 294.579 243.175C293.648 243.175 292.795 242.942 292.019 242.476C291.256 241.998 290.648 241.338 290.195 240.497C289.755 239.644 289.535 238.68 289.535 237.607ZM298.285 237.646C298.285 236.908 298.13 236.268 297.819 235.725C297.522 235.182 297.127 234.768 296.636 234.483C296.144 234.199 295.614 234.057 295.045 234.057C294.476 234.057 293.946 234.199 293.454 234.483C292.963 234.755 292.562 235.162 292.251 235.706C291.954 236.236 291.805 236.87 291.805 237.607C291.805 238.344 291.954 238.991 292.251 239.547C292.562 240.103 292.963 240.53 293.454 240.827C293.959 241.112 294.489 241.254 295.045 241.254C295.614 241.254 296.144 241.112 296.636 240.827C297.127 240.543 297.522 240.129 297.819 239.586C298.13 239.029 298.285 238.383 298.285 237.646ZM302.684 237.607C302.684 236.533 302.903 235.583 303.343 234.755C303.796 233.927 304.404 233.287 305.167 232.834C305.943 232.369 306.796 232.136 307.728 232.136C308.568 232.136 309.299 232.304 309.92 232.64C310.553 232.964 311.058 233.371 311.433 233.863V232.311H313.664V243H311.433V241.409C311.058 241.914 310.547 242.334 309.9 242.67C309.254 243.006 308.516 243.175 307.689 243.175C306.77 243.175 305.93 242.942 305.167 242.476C304.404 241.998 303.796 241.338 303.343 240.497C302.903 239.644 302.684 238.68 302.684 237.607ZM311.433 237.646C311.433 236.908 311.278 236.268 310.967 235.725C310.67 235.182 310.275 234.768 309.784 234.483C309.292 234.199 308.762 234.057 308.193 234.057C307.624 234.057 307.094 234.199 306.602 234.483C306.111 234.755 305.71 235.162 305.4 235.706C305.102 236.236 304.953 236.87 304.953 237.607C304.953 238.344 305.102 238.991 305.4 239.547C305.71 240.103 306.111 240.53 306.602 240.827C307.107 241.112 307.637 241.254 308.193 241.254C308.762 241.254 309.292 241.112 309.784 240.827C310.275 240.543 310.67 240.129 310.967 239.586C311.278 239.029 311.433 238.383 311.433 237.646Z" fill="#2B2B2B"/>
<path d="M93.3915 259.848C94.6075 259.848 95.6582 260.077 96.5435 260.536C97.4395 260.984 98.1222 261.629 98.5915 262.472C99.0715 263.315 99.3115 264.307 99.3115 265.448C99.3115 266.589 99.0715 267.581 98.5915 268.424C98.1222 269.256 97.4395 269.896 96.5435 270.344C95.6582 270.781 94.6075 271 93.3915 271H89.9195V259.848H93.3915ZM93.3915 269.8C94.8315 269.8 95.9302 269.421 96.6875 268.664C97.4448 267.896 97.8235 266.824 97.8235 265.448C97.8235 264.061 97.4395 262.979 96.6715 262.2C95.9142 261.421 94.8208 261.032 93.3915 261.032H91.3755V269.8H93.3915ZM100.688 266.584C100.688 265.688 100.869 264.904 101.232 264.232C101.595 263.549 102.091 263.021 102.72 262.648C103.36 262.275 104.069 262.088 104.848 262.088C105.616 262.088 106.283 262.253 106.848 262.584C107.413 262.915 107.835 263.331 108.112 263.832V262.232H109.584V271H108.112V269.368C107.824 269.88 107.392 270.307 106.816 270.648C106.251 270.979 105.589 271.144 104.832 271.144C104.053 271.144 103.349 270.952 102.72 270.568C102.091 270.184 101.595 269.645 101.232 268.952C100.869 268.259 100.688 267.469 100.688 266.584ZM108.112 266.6C108.112 265.939 107.979 265.363 107.712 264.872C107.445 264.381 107.083 264.008 106.624 263.752C106.176 263.485 105.68 263.352 105.136 263.352C104.592 263.352 104.096 263.48 103.648 263.736C103.2 263.992 102.843 264.365 102.576 264.856C102.309 265.347 102.176 265.923 102.176 266.584C102.176 267.256 102.309 267.843 102.576 268.344C102.843 268.835 103.2 269.213 103.648 269.48C104.096 269.736 104.592 269.864 105.136 269.864C105.68 269.864 106.176 269.736 106.624 269.48C107.083 269.213 107.445 268.835 107.712 268.344C107.979 267.843 108.112 267.261 108.112 266.6ZM113.501 263.848C113.789 263.347 114.215 262.931 114.781 262.6C115.357 262.259 116.023 262.088 116.781 262.088C117.559 262.088 118.263 262.275 118.892 262.648C119.532 263.021 120.034 263.549 120.397 264.232C120.759 264.904 120.941 265.688 120.941 266.584C120.941 267.469 120.759 268.259 120.397 268.952C120.034 269.645 119.532 270.184 118.892 270.568C118.263 270.952 117.559 271.144 116.781 271.144C116.034 271.144 115.373 270.979 114.797 270.648C114.231 270.307 113.799 269.885 113.501 269.384V275.16H112.045V262.232H113.501V263.848ZM119.453 266.584C119.453 265.923 119.319 265.347 119.053 264.856C118.786 264.365 118.423 263.992 117.965 263.736C117.517 263.48 117.021 263.352 116.477 263.352C115.943 263.352 115.447 263.485 114.989 263.752C114.541 264.008 114.178 264.387 113.901 264.888C113.634 265.379 113.501 265.949 113.501 266.6C113.501 267.261 113.634 267.843 113.901 268.344C114.178 268.835 114.541 269.213 114.989 269.48C115.447 269.736 115.943 269.864 116.477 269.864C117.021 269.864 117.517 269.736 117.965 269.48C118.423 269.213 118.786 268.835 119.053 268.344C119.319 267.843 119.453 267.256 119.453 266.584ZM122.313 266.584C122.313 265.688 122.494 264.904 122.857 264.232C123.22 263.549 123.716 263.021 124.345 262.648C124.985 262.275 125.694 262.088 126.473 262.088C127.241 262.088 127.908 262.253 128.473 262.584C129.038 262.915 129.46 263.331 129.737 263.832V262.232H131.209V271H129.737V269.368C129.449 269.88 129.017 270.307 128.441 270.648C127.876 270.979 127.214 271.144 126.457 271.144C125.678 271.144 124.974 270.952 124.345 270.568C123.716 270.184 123.22 269.645 122.857 268.952C122.494 268.259 122.313 267.469 122.313 266.584ZM129.737 266.6C129.737 265.939 129.604 265.363 129.337 264.872C129.07 264.381 128.708 264.008 128.249 263.752C127.801 263.485 127.305 263.352 126.761 263.352C126.217 263.352 125.721 263.48 125.273 263.736C124.825 263.992 124.468 264.365 124.201 264.856C123.934 265.347 123.801 265.923 123.801 266.584C123.801 267.256 123.934 267.843 124.201 268.344C124.468 268.835 124.825 269.213 125.273 269.48C125.721 269.736 126.217 269.864 126.761 269.864C127.305 269.864 127.801 269.736 128.249 269.48C128.708 269.213 129.07 268.835 129.337 268.344C129.604 267.843 129.737 267.261 129.737 266.6ZM135.446 263.432V268.6C135.446 269.027 135.536 269.331 135.718 269.512C135.899 269.683 136.214 269.768 136.661 269.768H137.734V271H136.422C135.611 271 135.003 270.813 134.598 270.44C134.192 270.067 133.99 269.453 133.99 268.6V263.432H132.854V262.232H133.99V260.024H135.446V262.232H137.734V263.432H135.446ZM144.394 271L140.954 267.128V271H139.498V259.16H140.954V266.12L144.33 262.232H146.362L142.234 266.6L146.378 271H144.394ZM147.188 266.584C147.188 265.688 147.369 264.904 147.732 264.232C148.095 263.549 148.591 263.021 149.22 262.648C149.86 262.275 150.569 262.088 151.348 262.088C152.116 262.088 152.783 262.253 153.348 262.584C153.913 262.915 154.335 263.331 154.612 263.832V262.232H156.084V271H154.612V269.368C154.324 269.88 153.892 270.307 153.316 270.648C152.751 270.979 152.089 271.144 151.332 271.144C150.553 271.144 149.849 270.952 149.22 270.568C148.591 270.184 148.095 269.645 147.732 268.952C147.369 268.259 147.188 267.469 147.188 266.584ZM154.612 266.6C154.612 265.939 154.479 265.363 154.212 264.872C153.945 264.381 153.583 264.008 153.124 263.752C152.676 263.485 152.18 263.352 151.636 263.352C151.092 263.352 150.596 263.48 150.148 263.736C149.7 263.992 149.343 264.365 149.076 264.856C148.809 265.347 148.676 265.923 148.676 266.584C148.676 267.256 148.809 267.843 149.076 268.344C149.343 268.835 149.7 269.213 150.148 269.48C150.596 269.736 151.092 269.864 151.636 269.864C152.18 269.864 152.676 269.736 153.124 269.48C153.583 269.213 153.945 268.835 154.212 268.344C154.479 267.843 154.612 267.261 154.612 266.6ZM162.817 262.072C163.883 262.072 164.747 262.397 165.409 263.048C166.07 263.688 166.401 264.616 166.401 265.832V271H164.961V266.04C164.961 265.165 164.742 264.499 164.305 264.04C163.867 263.571 163.27 263.336 162.513 263.336C161.745 263.336 161.131 263.576 160.673 264.056C160.225 264.536 160.001 265.235 160.001 266.152V271H158.545V262.232H160.001V263.48C160.289 263.032 160.678 262.685 161.169 262.44C161.67 262.195 162.219 262.072 162.817 262.072ZM173.797 260.808C173.519 260.808 173.285 260.712 173.093 260.52C172.901 260.328 172.805 260.093 172.805 259.816C172.805 259.539 172.901 259.304 173.093 259.112C173.285 258.92 173.519 258.824 173.797 258.824C174.063 258.824 174.287 258.92 174.469 259.112C174.661 259.304 174.757 259.539 174.757 259.816C174.757 260.093 174.661 260.328 174.469 260.52C174.287 260.712 174.063 260.808 173.797 260.808ZM174.501 262.232V271H173.045V262.232H174.501ZM181.254 262.072C182.321 262.072 183.185 262.397 183.846 263.048C184.507 263.688 184.838 264.616 184.838 265.832V271H183.398V266.04C183.398 265.165 183.179 264.499 182.742 264.04C182.305 263.571 181.707 263.336 180.95 263.336C180.182 263.336 179.569 263.576 179.11 264.056C178.662 264.536 178.438 265.235 178.438 266.152V271H176.982V262.232H178.438V263.48C178.726 263.032 179.115 262.685 179.606 262.44C180.107 262.195 180.657 262.072 181.254 262.072ZM190.784 263.432H188.944V271H187.488V263.432H186.352V262.232H187.488V261.608C187.488 260.627 187.739 259.912 188.24 259.464C188.752 259.005 189.568 258.776 190.688 258.776V259.992C190.048 259.992 189.595 260.12 189.328 260.376C189.072 260.621 188.944 261.032 188.944 261.608V262.232H190.784V263.432ZM196.306 271.144C195.485 271.144 194.738 270.957 194.066 270.584C193.405 270.211 192.882 269.683 192.498 269C192.125 268.307 191.938 267.507 191.938 266.6C191.938 265.704 192.13 264.915 192.514 264.232C192.909 263.539 193.442 263.011 194.114 262.648C194.786 262.275 195.538 262.088 196.37 262.088C197.202 262.088 197.954 262.275 198.626 262.648C199.298 263.011 199.826 263.533 200.21 264.216C200.605 264.899 200.802 265.693 200.802 266.6C200.802 267.507 200.599 268.307 200.194 269C199.799 269.683 199.261 270.211 198.578 270.584C197.895 270.957 197.138 271.144 196.306 271.144ZM196.306 269.864C196.829 269.864 197.319 269.741 197.778 269.496C198.237 269.251 198.605 268.883 198.882 268.392C199.17 267.901 199.314 267.304 199.314 266.6C199.314 265.896 199.175 265.299 198.898 264.808C198.621 264.317 198.258 263.955 197.81 263.72C197.362 263.475 196.877 263.352 196.354 263.352C195.821 263.352 195.33 263.475 194.882 263.72C194.445 263.955 194.093 264.317 193.826 264.808C193.559 265.299 193.426 265.896 193.426 266.6C193.426 267.315 193.554 267.917 193.81 268.408C194.077 268.899 194.429 269.267 194.866 269.512C195.303 269.747 195.783 269.864 196.306 269.864ZM204.172 263.656C204.428 263.155 204.791 262.765 205.26 262.488C205.74 262.211 206.322 262.072 207.004 262.072V263.576H206.62C204.988 263.576 204.172 264.461 204.172 266.232V271H202.716V262.232H204.172V263.656ZM219.229 262.072C219.912 262.072 220.52 262.216 221.053 262.504C221.586 262.781 222.008 263.203 222.317 263.768C222.626 264.333 222.781 265.021 222.781 265.832V271H221.341V266.04C221.341 265.165 221.122 264.499 220.685 264.04C220.258 263.571 219.677 263.336 218.941 263.336C218.184 263.336 217.581 263.581 217.133 264.072C216.685 264.552 216.461 265.251 216.461 266.168V271H215.021V266.04C215.021 265.165 214.802 264.499 214.365 264.04C213.938 263.571 213.357 263.336 212.621 263.336C211.864 263.336 211.261 263.581 210.813 264.072C210.365 264.552 210.141 265.251 210.141 266.168V271H208.685V262.232H210.141V263.496C210.429 263.037 210.813 262.685 211.293 262.44C211.784 262.195 212.322 262.072 212.909 262.072C213.645 262.072 214.296 262.237 214.861 262.568C215.426 262.899 215.848 263.384 216.125 264.024C216.37 263.405 216.776 262.925 217.341 262.584C217.906 262.243 218.536 262.072 219.229 262.072ZM224.626 266.584C224.626 265.688 224.807 264.904 225.17 264.232C225.532 263.549 226.028 263.021 226.658 262.648C227.298 262.275 228.007 262.088 228.786 262.088C229.554 262.088 230.22 262.253 230.786 262.584C231.351 262.915 231.772 263.331 232.05 263.832V262.232H233.522V271H232.05V269.368C231.762 269.88 231.33 270.307 230.754 270.648C230.188 270.979 229.527 271.144 228.77 271.144C227.991 271.144 227.287 270.952 226.658 270.568C226.028 270.184 225.532 269.645 225.17 268.952C224.807 268.259 224.626 267.469 224.626 266.584ZM232.05 266.6C232.05 265.939 231.916 265.363 231.65 264.872C231.383 264.381 231.02 264.008 230.562 263.752C230.114 263.485 229.618 263.352 229.074 263.352C228.53 263.352 228.034 263.48 227.586 263.736C227.138 263.992 226.78 264.365 226.514 264.856C226.247 265.347 226.114 265.923 226.114 266.584C226.114 267.256 226.247 267.843 226.514 268.344C226.78 268.835 227.138 269.213 227.586 269.48C228.034 269.736 228.53 269.864 229.074 269.864C229.618 269.864 230.114 269.736 230.562 269.48C231.02 269.213 231.383 268.835 231.65 268.344C231.916 267.843 232.05 267.261 232.05 266.6ZM239.086 271.144C238.414 271.144 237.811 271.032 237.278 270.808C236.745 270.573 236.323 270.253 236.014 269.848C235.705 269.432 235.534 268.957 235.502 268.424H237.006C237.049 268.861 237.251 269.219 237.614 269.496C237.987 269.773 238.473 269.912 239.07 269.912C239.625 269.912 240.062 269.789 240.382 269.544C240.702 269.299 240.862 268.989 240.862 268.616C240.862 268.232 240.691 267.949 240.35 267.768C240.009 267.576 239.481 267.389 238.766 267.208C238.115 267.037 237.582 266.867 237.166 266.696C236.761 266.515 236.409 266.253 236.11 265.912C235.822 265.56 235.678 265.101 235.678 264.536C235.678 264.088 235.811 263.677 236.078 263.304C236.345 262.931 236.723 262.637 237.214 262.424C237.705 262.2 238.265 262.088 238.894 262.088C239.865 262.088 240.649 262.333 241.246 262.824C241.843 263.315 242.163 263.987 242.206 264.84H240.75C240.718 264.381 240.531 264.013 240.19 263.736C239.859 263.459 239.411 263.32 238.846 263.32C238.323 263.32 237.907 263.432 237.598 263.656C237.289 263.88 237.134 264.173 237.134 264.536C237.134 264.824 237.225 265.064 237.406 265.256C237.598 265.437 237.833 265.587 238.11 265.704C238.398 265.811 238.793 265.933 239.294 266.072C239.923 266.243 240.435 266.413 240.83 266.584C241.225 266.744 241.561 266.989 241.838 267.32C242.126 267.651 242.275 268.083 242.286 268.616C242.286 269.096 242.153 269.528 241.886 269.912C241.619 270.296 241.241 270.6 240.75 270.824C240.27 271.037 239.715 271.144 239.086 271.144ZM245.093 260.808C244.816 260.808 244.581 260.712 244.389 260.52C244.197 260.328 244.101 260.093 244.101 259.816C244.101 259.539 244.197 259.304 244.389 259.112C244.581 258.92 244.816 258.824 245.093 258.824C245.36 258.824 245.584 258.92 245.765 259.112C245.957 259.304 246.053 259.539 246.053 259.816C246.053 260.093 245.957 260.328 245.765 260.52C245.584 260.712 245.36 260.808 245.093 260.808ZM245.797 262.232V271H244.341V262.232H245.797ZM256.897 262.072C257.558 262.072 258.155 262.216 258.689 262.504C259.222 262.781 259.638 263.203 259.937 263.768C260.246 264.333 260.401 265.021 260.401 265.832V271H258.961V266.04C258.961 265.165 258.742 264.499 258.305 264.04C257.867 263.571 257.27 263.336 256.513 263.336C255.745 263.336 255.131 263.576 254.673 264.056C254.225 264.536 254.001 265.235 254.001 266.152V271H252.545V259.16H254.001V263.48C254.289 263.032 254.683 262.685 255.185 262.44C255.697 262.195 256.267 262.072 256.897 262.072ZM262.235 266.584C262.235 265.688 262.416 264.904 262.779 264.232C263.142 263.549 263.638 263.021 264.267 262.648C264.907 262.275 265.616 262.088 266.395 262.088C267.163 262.088 267.83 262.253 268.395 262.584C268.96 262.915 269.382 263.331 269.659 263.832V262.232H271.131V271H269.659V269.368C269.371 269.88 268.939 270.307 268.363 270.648C267.798 270.979 267.136 271.144 266.379 271.144C265.6 271.144 264.896 270.952 264.267 270.568C263.638 270.184 263.142 269.645 262.779 268.952C262.416 268.259 262.235 267.469 262.235 266.584ZM269.659 266.6C269.659 265.939 269.526 265.363 269.259 264.872C268.992 264.381 268.63 264.008 268.171 263.752C267.723 263.485 267.227 263.352 266.683 263.352C266.139 263.352 265.643 263.48 265.195 263.736C264.747 263.992 264.39 264.365 264.123 264.856C263.856 265.347 263.723 265.923 263.723 266.584C263.723 267.256 263.856 267.843 264.123 268.344C264.39 268.835 264.747 269.213 265.195 269.48C265.643 269.736 266.139 269.864 266.683 269.864C267.227 269.864 267.723 269.736 268.171 269.48C268.63 269.213 268.992 268.835 269.259 268.344C269.526 267.843 269.659 267.261 269.659 266.6ZM275.047 263.656C275.303 263.155 275.666 262.765 276.135 262.488C276.615 262.211 277.197 262.072 277.879 262.072V263.576H277.495C275.863 263.576 275.047 264.461 275.047 266.232V271H273.591V262.232H275.047V263.656ZM280.312 260.808C280.035 260.808 279.8 260.712 279.608 260.52C279.416 260.328 279.32 260.093 279.32 259.816C279.32 259.539 279.416 259.304 279.608 259.112C279.8 258.92 280.035 258.824 280.312 258.824C280.579 258.824 280.803 258.92 280.984 259.112C281.176 259.304 281.272 259.539 281.272 259.816C281.272 260.093 281.176 260.328 280.984 260.52C280.803 260.712 280.579 260.808 280.312 260.808ZM281.016 262.232V271H279.56V262.232H281.016ZM282.954 266.584C282.954 265.688 283.135 264.904 283.498 264.232C283.86 263.549 284.356 263.021 284.986 262.648C285.626 262.275 286.335 262.088 287.114 262.088C287.882 262.088 288.548 262.253 289.114 262.584C289.679 262.915 290.1 263.331 290.378 263.832V262.232H291.85V271H290.378V269.368C290.09 269.88 289.658 270.307 289.082 270.648C288.516 270.979 287.855 271.144 287.098 271.144C286.319 271.144 285.615 270.952 284.986 270.568C284.356 270.184 283.86 269.645 283.498 268.952C283.135 268.259 282.954 267.469 282.954 266.584ZM290.378 266.6C290.378 265.939 290.244 265.363 289.978 264.872C289.711 264.381 289.348 264.008 288.89 263.752C288.442 263.485 287.946 263.352 287.402 263.352C286.858 263.352 286.362 263.48 285.914 263.736C285.466 263.992 285.108 264.365 284.842 264.856C284.575 265.347 284.442 265.923 284.442 266.584C284.442 267.256 284.575 267.843 284.842 268.344C285.108 268.835 285.466 269.213 285.914 269.48C286.362 269.736 286.858 269.864 287.402 269.864C287.946 269.864 288.442 269.736 288.89 269.48C289.348 269.213 289.711 268.835 289.978 268.344C290.244 267.843 290.378 267.261 290.378 266.6ZM298.582 262.072C299.649 262.072 300.513 262.397 301.174 263.048C301.835 263.688 302.166 264.616 302.166 265.832V271H300.726V266.04C300.726 265.165 300.507 264.499 300.07 264.04C299.633 263.571 299.035 263.336 298.278 263.336C297.51 263.336 296.897 263.576 296.438 264.056C295.99 264.536 295.766 265.235 295.766 266.152V271H294.31V262.232H295.766V263.48C296.054 263.032 296.443 262.685 296.934 262.44C297.435 262.195 297.985 262.072 298.582 262.072ZM137.526 288.072C138.209 288.072 138.817 288.216 139.35 288.504C139.883 288.781 140.305 289.203 140.614 289.768C140.923 290.333 141.078 291.021 141.078 291.832V297H139.638V292.04C139.638 291.165 139.419 290.499 138.982 290.04C138.555 289.571 137.974 289.336 137.238 289.336C136.481 289.336 135.878 289.581 135.43 290.072C134.982 290.552 134.758 291.251 134.758 292.168V297H133.318V292.04C133.318 291.165 133.099 290.499 132.662 290.04C132.235 289.571 131.654 289.336 130.918 289.336C130.161 289.336 129.558 289.581 129.11 290.072C128.662 290.552 128.438 291.251 128.438 292.168V297H126.982V288.232H128.438V289.496C128.726 289.037 129.11 288.685 129.59 288.44C130.081 288.195 130.619 288.072 131.206 288.072C131.942 288.072 132.593 288.237 133.158 288.568C133.723 288.899 134.145 289.384 134.422 290.024C134.667 289.405 135.073 288.925 135.638 288.584C136.203 288.243 136.833 288.072 137.526 288.072ZM151.466 292.28C151.466 292.557 151.45 292.851 151.418 293.16H144.41C144.464 294.024 144.757 294.701 145.29 295.192C145.834 295.672 146.49 295.912 147.258 295.912C147.888 295.912 148.41 295.768 148.826 295.48C149.253 295.181 149.552 294.787 149.722 294.296H151.29C151.056 295.139 150.586 295.827 149.882 296.36C149.178 296.883 148.304 297.144 147.258 297.144C146.426 297.144 145.68 296.957 145.018 296.584C144.368 296.211 143.856 295.683 143.482 295C143.109 294.307 142.922 293.507 142.922 292.6C142.922 291.693 143.104 290.899 143.466 290.216C143.829 289.533 144.336 289.011 144.986 288.648C145.648 288.275 146.405 288.088 147.258 288.088C148.09 288.088 148.826 288.269 149.466 288.632C150.106 288.995 150.597 289.496 150.938 290.136C151.29 290.765 151.466 291.48 151.466 292.28ZM149.962 291.976C149.962 291.421 149.84 290.947 149.594 290.552C149.349 290.147 149.013 289.843 148.586 289.64C148.17 289.427 147.706 289.32 147.194 289.32C146.458 289.32 145.829 289.555 145.306 290.024C144.794 290.493 144.501 291.144 144.426 291.976H149.962ZM157.66 288.072C158.727 288.072 159.591 288.397 160.252 289.048C160.914 289.688 161.244 290.616 161.244 291.832V297H159.804V292.04C159.804 291.165 159.586 290.499 159.148 290.04C158.711 289.571 158.114 289.336 157.356 289.336C156.588 289.336 155.975 289.576 155.516 290.056C155.068 290.536 154.844 291.235 154.844 292.152V297H153.388V288.232H154.844V289.48C155.132 289.032 155.522 288.685 156.012 288.44C156.514 288.195 157.063 288.072 157.66 288.072ZM167.239 288.088C167.996 288.088 168.657 288.253 169.223 288.584C169.799 288.915 170.225 289.331 170.503 289.832V288.232H171.975V297.192C171.975 297.992 171.804 298.701 171.463 299.32C171.121 299.949 170.631 300.44 169.991 300.792C169.361 301.144 168.625 301.32 167.783 301.32C166.631 301.32 165.671 301.048 164.903 300.504C164.135 299.96 163.681 299.219 163.543 298.28H164.983C165.143 298.813 165.473 299.24 165.975 299.56C166.476 299.891 167.079 300.056 167.783 300.056C168.583 300.056 169.233 299.805 169.735 299.304C170.247 298.803 170.503 298.099 170.503 297.192V295.352C170.215 295.864 169.788 296.291 169.223 296.632C168.657 296.973 167.996 297.144 167.239 297.144C166.46 297.144 165.751 296.952 165.111 296.568C164.481 296.184 163.985 295.645 163.623 294.952C163.26 294.259 163.079 293.469 163.079 292.584C163.079 291.688 163.26 290.904 163.623 290.232C163.985 289.549 164.481 289.021 165.111 288.648C165.751 288.275 166.46 288.088 167.239 288.088ZM170.503 292.6C170.503 291.939 170.369 291.363 170.103 290.872C169.836 290.381 169.473 290.008 169.015 289.752C168.567 289.485 168.071 289.352 167.527 289.352C166.983 289.352 166.487 289.48 166.039 289.736C165.591 289.992 165.233 290.365 164.967 290.856C164.7 291.347 164.567 291.923 164.567 292.584C164.567 293.256 164.7 293.843 164.967 294.344C165.233 294.835 165.591 295.213 166.039 295.48C166.487 295.736 166.983 295.864 167.527 295.864C168.071 295.864 168.567 295.736 169.015 295.48C169.473 295.213 169.836 294.835 170.103 294.344C170.369 293.843 170.503 293.261 170.503 292.6ZM182.435 292.28C182.435 292.557 182.419 292.851 182.387 293.16H175.379C175.432 294.024 175.726 294.701 176.259 295.192C176.803 295.672 177.459 295.912 178.227 295.912C178.856 295.912 179.379 295.768 179.795 295.48C180.222 295.181 180.52 294.787 180.691 294.296H182.259C182.024 295.139 181.555 295.827 180.851 296.36C180.147 296.883 179.272 297.144 178.227 297.144C177.395 297.144 176.648 296.957 175.987 296.584C175.336 296.211 174.824 295.683 174.451 295C174.078 294.307 173.891 293.507 173.891 292.6C173.891 291.693 174.072 290.899 174.435 290.216C174.798 289.533 175.304 289.011 175.955 288.648C176.616 288.275 177.374 288.088 178.227 288.088C179.059 288.088 179.795 288.269 180.435 288.632C181.075 288.995 181.566 289.496 181.907 290.136C182.259 290.765 182.435 291.48 182.435 292.28ZM180.931 291.976C180.931 291.421 180.808 290.947 180.563 290.552C180.318 290.147 179.982 289.843 179.555 289.64C179.139 289.427 178.675 289.32 178.163 289.32C177.427 289.32 176.798 289.555 176.275 290.024C175.763 290.493 175.47 291.144 175.395 291.976H180.931ZM188.629 288.072C189.696 288.072 190.56 288.397 191.221 289.048C191.882 289.688 192.213 290.616 192.213 291.832V297H190.773V292.04C190.773 291.165 190.554 290.499 190.117 290.04C189.68 289.571 189.082 289.336 188.325 289.336C187.557 289.336 186.944 289.576 186.485 290.056C186.037 290.536 185.813 291.235 185.813 292.152V297H184.357V288.232H185.813V289.48C186.101 289.032 186.49 288.685 186.981 288.44C187.482 288.195 188.032 288.072 188.629 288.072ZM194.047 292.584C194.047 291.688 194.229 290.904 194.591 290.232C194.954 289.549 195.45 289.021 196.079 288.648C196.719 288.275 197.429 288.088 198.207 288.088C198.975 288.088 199.642 288.253 200.207 288.584C200.773 288.915 201.194 289.331 201.471 289.832V288.232H202.943V297H201.471V295.368C201.183 295.88 200.751 296.307 200.175 296.648C199.61 296.979 198.949 297.144 198.191 297.144C197.413 297.144 196.709 296.952 196.079 296.568C195.45 296.184 194.954 295.645 194.591 294.952C194.229 294.259 194.047 293.469 194.047 292.584ZM201.471 292.6C201.471 291.939 201.338 291.363 201.071 290.872C200.805 290.381 200.442 290.008 199.983 289.752C199.535 289.485 199.039 289.352 198.495 289.352C197.951 289.352 197.455 289.48 197.007 289.736C196.559 289.992 196.202 290.365 195.935 290.856C195.669 291.347 195.535 291.923 195.535 292.584C195.535 293.256 195.669 293.843 195.935 294.344C196.202 294.835 196.559 295.213 197.007 295.48C197.455 295.736 197.951 295.864 198.495 295.864C199.039 295.864 199.535 295.736 199.983 295.48C200.442 295.213 200.805 294.835 201.071 294.344C201.338 293.843 201.471 293.261 201.471 292.6ZM206.156 286.808C205.879 286.808 205.644 286.712 205.452 286.52C205.26 286.328 205.164 286.093 205.164 285.816C205.164 285.539 205.26 285.304 205.452 285.112C205.644 284.92 205.879 284.824 206.156 284.824C206.423 284.824 206.647 284.92 206.828 285.112C207.02 285.304 207.116 285.539 207.116 285.816C207.116 286.093 207.02 286.328 206.828 286.52C206.647 286.712 206.423 286.808 206.156 286.808ZM206.86 288.232V297H205.404V288.232H206.86ZM214.359 286.808C214.082 286.808 213.847 286.712 213.655 286.52C213.463 286.328 213.367 286.093 213.367 285.816C213.367 285.539 213.463 285.304 213.655 285.112C213.847 284.92 214.082 284.824 214.359 284.824C214.626 284.824 214.85 284.92 215.031 285.112C215.223 285.304 215.319 285.539 215.319 285.816C215.319 286.093 215.223 286.328 215.031 286.52C214.85 286.712 214.626 286.808 214.359 286.808ZM215.063 288.232V297H213.607V288.232H215.063ZM220.649 297.144C219.977 297.144 219.374 297.032 218.841 296.808C218.307 296.573 217.886 296.253 217.577 295.848C217.267 295.432 217.097 294.957 217.065 294.424H218.569C218.611 294.861 218.814 295.219 219.177 295.496C219.55 295.773 220.035 295.912 220.633 295.912C221.187 295.912 221.625 295.789 221.945 295.544C222.265 295.299 222.425 294.989 222.425 294.616C222.425 294.232 222.254 293.949 221.913 293.768C221.571 293.576 221.043 293.389 220.329 293.208C219.678 293.037 219.145 292.867 218.729 292.696C218.323 292.515 217.971 292.253 217.673 291.912C217.385 291.56 217.241 291.101 217.241 290.536C217.241 290.088 217.374 289.677 217.641 289.304C217.907 288.931 218.286 288.637 218.777 288.424C219.267 288.2 219.827 288.088 220.457 288.088C221.427 288.088 222.211 288.333 222.809 288.824C223.406 289.315 223.726 289.987 223.769 290.84H222.313C222.281 290.381 222.094 290.013 221.753 289.736C221.422 289.459 220.974 289.32 220.409 289.32C219.886 289.32 219.47 289.432 219.161 289.656C218.851 289.88 218.697 290.173 218.697 290.536C218.697 290.824 218.787 291.064 218.969 291.256C219.161 291.437 219.395 291.587 219.673 291.704C219.961 291.811 220.355 291.933 220.857 292.072C221.486 292.243 221.998 292.413 222.393 292.584C222.787 292.744 223.123 292.989 223.401 293.32C223.689 293.651 223.838 294.083 223.849 294.616C223.849 295.096 223.715 295.528 223.449 295.912C223.182 296.296 222.803 296.6 222.313 296.824C221.833 297.037 221.278 297.144 220.649 297.144ZM233.68 288.232V297H232.224V295.704C231.947 296.152 231.557 296.504 231.056 296.76C230.565 297.005 230.021 297.128 229.424 297.128C228.741 297.128 228.128 296.989 227.584 296.712C227.04 296.424 226.608 295.997 226.288 295.432C225.979 294.867 225.824 294.179 225.824 293.368V288.232H227.264V293.176C227.264 294.04 227.483 294.707 227.92 295.176C228.357 295.635 228.955 295.864 229.712 295.864C230.491 295.864 231.104 295.624 231.552 295.144C232 294.664 232.224 293.965 232.224 293.048V288.232H233.68ZM242.218 290.52V291.752H235.834V290.52H242.218ZM245.703 286.808C245.425 286.808 245.191 286.712 244.999 286.52C244.807 286.328 244.711 286.093 244.711 285.816C244.711 285.539 244.807 285.304 244.999 285.112C245.191 284.92 245.425 284.824 245.703 284.824C245.969 284.824 246.193 284.92 246.375 285.112C246.567 285.304 246.663 285.539 246.663 285.816C246.663 286.093 246.567 286.328 246.375 286.52C246.193 286.712 245.969 286.808 245.703 286.808ZM246.407 288.232V297H244.951V288.232H246.407ZM251.992 297.144C251.32 297.144 250.718 297.032 250.184 296.808C249.651 296.573 249.23 296.253 248.92 295.848C248.611 295.432 248.44 294.957 248.408 294.424H249.912C249.955 294.861 250.158 295.219 250.52 295.496C250.894 295.773 251.379 295.912 251.976 295.912C252.531 295.912 252.968 295.789 253.288 295.544C253.608 295.299 253.768 294.989 253.768 294.616C253.768 294.232 253.598 293.949 253.256 293.768C252.915 293.576 252.387 293.389 251.672 293.208C251.022 293.037 250.488 292.867 250.072 292.696C249.667 292.515 249.315 292.253 249.016 291.912C248.728 291.56 248.584 291.101 248.584 290.536C248.584 290.088 248.718 289.677 248.984 289.304C249.251 288.931 249.63 288.637 250.12 288.424C250.611 288.2 251.171 288.088 251.8 288.088C252.771 288.088 253.555 288.333 254.152 288.824C254.75 289.315 255.07 289.987 255.112 290.84H253.656C253.624 290.381 253.438 290.013 253.096 289.736C252.766 289.459 252.318 289.32 251.752 289.32C251.23 289.32 250.814 289.432 250.504 289.656C250.195 289.88 250.04 290.173 250.04 290.536C250.04 290.824 250.131 291.064 250.312 291.256C250.504 291.437 250.739 291.587 251.016 291.704C251.304 291.811 251.699 291.933 252.2 292.072C252.83 292.243 253.342 292.413 253.736 292.584C254.131 292.744 254.467 292.989 254.744 293.32C255.032 293.651 255.182 294.083 255.192 294.616C255.192 295.096 255.059 295.528 254.792 295.912C254.526 296.296 254.147 296.6 253.656 296.824C253.176 297.037 252.622 297.144 251.992 297.144ZM265.024 288.232V297H263.568V295.704C263.29 296.152 262.901 296.504 262.4 296.76C261.909 297.005 261.365 297.128 260.768 297.128C260.085 297.128 259.472 296.989 258.928 296.712C258.384 296.424 257.952 295.997 257.632 295.432C257.322 294.867 257.168 294.179 257.168 293.368V288.232H258.608V293.176C258.608 294.04 258.826 294.707 259.264 295.176C259.701 295.635 260.298 295.864 261.056 295.864C261.834 295.864 262.448 295.624 262.896 295.144C263.344 294.664 263.568 293.965 263.568 293.048V288.232H265.024ZM110.636 323L107.196 319.128V323H105.74V311.16H107.196V318.12L110.572 314.232H112.604L108.476 318.6L112.62 323H110.636ZM121.974 318.28C121.974 318.557 121.958 318.851 121.926 319.16H114.918C114.972 320.024 115.265 320.701 115.798 321.192C116.342 321.672 116.998 321.912 117.766 321.912C118.396 321.912 118.918 321.768 119.334 321.48C119.761 321.181 120.06 320.787 120.23 320.296H121.798C121.564 321.139 121.094 321.827 120.39 322.36C119.686 322.883 118.812 323.144 117.766 323.144C116.934 323.144 116.188 322.957 115.526 322.584C114.876 322.211 114.364 321.683 113.99 321C113.617 320.307 113.43 319.507 113.43 318.6C113.43 317.693 113.612 316.899 113.974 316.216C114.337 315.533 114.844 315.011 115.494 314.648C116.156 314.275 116.913 314.088 117.766 314.088C118.598 314.088 119.334 314.269 119.974 314.632C120.614 314.995 121.105 315.496 121.446 316.136C121.798 316.765 121.974 317.48 121.974 318.28ZM120.47 317.976C120.47 317.421 120.348 316.947 120.102 316.552C119.857 316.147 119.521 315.843 119.094 315.64C118.678 315.427 118.214 315.32 117.702 315.32C116.966 315.32 116.337 315.555 115.814 316.024C115.302 316.493 115.009 317.144 114.934 317.976H120.47ZM127 323.144C126.328 323.144 125.725 323.032 125.192 322.808C124.659 322.573 124.237 322.253 123.928 321.848C123.619 321.432 123.448 320.957 123.416 320.424H124.92C124.963 320.861 125.165 321.219 125.528 321.496C125.901 321.773 126.387 321.912 126.984 321.912C127.539 321.912 127.976 321.789 128.296 321.544C128.616 321.299 128.776 320.989 128.776 320.616C128.776 320.232 128.605 319.949 128.264 319.768C127.923 319.576 127.395 319.389 126.68 319.208C126.029 319.037 125.496 318.867 125.08 318.696C124.675 318.515 124.323 318.253 124.024 317.912C123.736 317.56 123.592 317.101 123.592 316.536C123.592 316.088 123.725 315.677 123.992 315.304C124.259 314.931 124.637 314.637 125.128 314.424C125.619 314.2 126.179 314.088 126.808 314.088C127.779 314.088 128.563 314.333 129.16 314.824C129.757 315.315 130.077 315.987 130.12 316.84H128.664C128.632 316.381 128.445 316.013 128.104 315.736C127.773 315.459 127.325 315.32 126.76 315.32C126.237 315.32 125.821 315.432 125.512 315.656C125.203 315.88 125.048 316.173 125.048 316.536C125.048 316.824 125.139 317.064 125.32 317.256C125.512 317.437 125.747 317.587 126.024 317.704C126.312 317.811 126.707 317.933 127.208 318.072C127.837 318.243 128.349 318.413 128.744 318.584C129.139 318.744 129.475 318.989 129.752 319.32C130.04 319.651 130.189 320.083 130.2 320.616C130.2 321.096 130.067 321.528 129.8 321.912C129.533 322.296 129.155 322.6 128.664 322.824C128.184 323.037 127.629 323.144 127 323.144ZM140.255 318.28C140.255 318.557 140.239 318.851 140.207 319.16H133.199C133.253 320.024 133.546 320.701 134.079 321.192C134.623 321.672 135.279 321.912 136.047 321.912C136.677 321.912 137.199 321.768 137.615 321.48C138.042 321.181 138.341 320.787 138.511 320.296H140.079C139.845 321.139 139.375 321.827 138.671 322.36C137.967 322.883 137.093 323.144 136.047 323.144C135.215 323.144 134.469 322.957 133.807 322.584C133.157 322.211 132.645 321.683 132.271 321C131.898 320.307 131.711 319.507 131.711 318.6C131.711 317.693 131.893 316.899 132.255 316.216C132.618 315.533 133.125 315.011 133.775 314.648C134.437 314.275 135.194 314.088 136.047 314.088C136.879 314.088 137.615 314.269 138.255 314.632C138.895 314.995 139.386 315.496 139.727 316.136C140.079 316.765 140.255 317.48 140.255 318.28ZM138.751 317.976C138.751 317.421 138.629 316.947 138.383 316.552C138.138 316.147 137.802 315.843 137.375 315.64C136.959 315.427 136.495 315.32 135.983 315.32C135.247 315.32 134.618 315.555 134.095 316.024C133.583 316.493 133.29 317.144 133.215 317.976H138.751ZM146.529 314.072C147.191 314.072 147.788 314.216 148.321 314.504C148.855 314.781 149.271 315.203 149.569 315.768C149.879 316.333 150.033 317.021 150.033 317.832V323H148.593V318.04C148.593 317.165 148.375 316.499 147.937 316.04C147.5 315.571 146.903 315.336 146.145 315.336C145.377 315.336 144.764 315.576 144.305 316.056C143.857 316.536 143.633 317.235 143.633 318.152V323H142.177V311.16H143.633V315.48C143.921 315.032 144.316 314.685 144.817 314.44C145.329 314.195 145.9 314.072 146.529 314.072ZM151.868 318.584C151.868 317.688 152.049 316.904 152.412 316.232C152.774 315.549 153.27 315.021 153.9 314.648C154.54 314.275 155.249 314.088 156.028 314.088C156.796 314.088 157.462 314.253 158.028 314.584C158.593 314.915 159.014 315.331 159.292 315.832V314.232H160.764V323H159.292V321.368C159.004 321.88 158.572 322.307 157.996 322.648C157.43 322.979 156.769 323.144 156.012 323.144C155.233 323.144 154.529 322.952 153.9 322.568C153.27 322.184 152.774 321.645 152.412 320.952C152.049 320.259 151.868 319.469 151.868 318.584ZM159.292 318.6C159.292 317.939 159.158 317.363 158.892 316.872C158.625 316.381 158.262 316.008 157.804 315.752C157.356 315.485 156.86 315.352 156.316 315.352C155.772 315.352 155.276 315.48 154.828 315.736C154.38 315.992 154.022 316.365 153.756 316.856C153.489 317.347 153.356 317.923 153.356 318.584C153.356 319.256 153.489 319.843 153.756 320.344C154.022 320.835 154.38 321.213 154.828 321.48C155.276 321.736 155.772 321.864 156.316 321.864C156.86 321.864 157.356 321.736 157.804 321.48C158.262 321.213 158.625 320.835 158.892 320.344C159.158 319.843 159.292 319.261 159.292 318.6ZM165 315.432V320.6C165 321.027 165.091 321.331 165.272 321.512C165.454 321.683 165.768 321.768 166.216 321.768H167.288V323H165.976C165.166 323 164.558 322.813 164.152 322.44C163.747 322.067 163.544 321.453 163.544 320.6V315.432H162.408V314.232H163.544V312.024H165V314.232H167.288V315.432H165ZM168.508 318.584C168.508 317.688 168.69 316.904 169.052 316.232C169.415 315.549 169.911 315.021 170.54 314.648C171.18 314.275 171.89 314.088 172.668 314.088C173.436 314.088 174.103 314.253 174.668 314.584C175.234 314.915 175.655 315.331 175.932 315.832V314.232H177.404V323H175.932V321.368C175.644 321.88 175.212 322.307 174.636 322.648C174.071 322.979 173.41 323.144 172.652 323.144C171.874 323.144 171.17 322.952 170.54 322.568C169.911 322.184 169.415 321.645 169.052 320.952C168.69 320.259 168.508 319.469 168.508 318.584ZM175.932 318.6C175.932 317.939 175.799 317.363 175.532 316.872C175.266 316.381 174.903 316.008 174.444 315.752C173.996 315.485 173.5 315.352 172.956 315.352C172.412 315.352 171.916 315.48 171.468 315.736C171.02 315.992 170.663 316.365 170.396 316.856C170.13 317.347 169.996 317.923 169.996 318.584C169.996 319.256 170.13 319.843 170.396 320.344C170.663 320.835 171.02 321.213 171.468 321.48C171.916 321.736 172.412 321.864 172.956 321.864C173.5 321.864 173.996 321.736 174.444 321.48C174.903 321.213 175.266 320.835 175.532 320.344C175.799 319.843 175.932 319.261 175.932 318.6ZM184.137 314.072C185.203 314.072 186.067 314.397 186.729 315.048C187.39 315.688 187.721 316.616 187.721 317.832V323H186.281V318.04C186.281 317.165 186.062 316.499 185.625 316.04C185.187 315.571 184.59 315.336 183.833 315.336C183.065 315.336 182.451 315.576 181.993 316.056C181.545 316.536 181.321 317.235 181.321 318.152V323H179.865V314.232H181.321V315.48C181.609 315.032 181.998 314.685 182.489 314.44C182.99 314.195 183.539 314.072 184.137 314.072ZM193.821 318.584C193.821 317.688 194.002 316.904 194.365 316.232C194.727 315.549 195.223 315.021 195.853 314.648C196.493 314.275 197.207 314.088 197.997 314.088C198.679 314.088 199.314 314.248 199.901 314.568C200.487 314.877 200.935 315.288 201.245 315.8V311.16H202.717V323H201.245V321.352C200.957 321.875 200.53 322.307 199.965 322.648C199.399 322.979 198.738 323.144 197.981 323.144C197.202 323.144 196.493 322.952 195.853 322.568C195.223 322.184 194.727 321.645 194.365 320.952C194.002 320.259 193.821 319.469 193.821 318.584ZM201.245 318.6C201.245 317.939 201.111 317.363 200.845 316.872C200.578 316.381 200.215 316.008 199.757 315.752C199.309 315.485 198.813 315.352 198.269 315.352C197.725 315.352 197.229 315.48 196.781 315.736C196.333 315.992 195.975 316.365 195.709 316.856C195.442 317.347 195.309 317.923 195.309 318.584C195.309 319.256 195.442 319.843 195.709 320.344C195.975 320.835 196.333 321.213 196.781 321.48C197.229 321.736 197.725 321.864 198.269 321.864C198.813 321.864 199.309 321.736 199.757 321.48C200.215 321.213 200.578 320.835 200.845 320.344C201.111 319.843 201.245 319.261 201.245 318.6ZM204.633 318.584C204.633 317.688 204.815 316.904 205.177 316.232C205.54 315.549 206.036 315.021 206.665 314.648C207.305 314.275 208.015 314.088 208.793 314.088C209.561 314.088 210.228 314.253 210.793 314.584C211.359 314.915 211.78 315.331 212.057 315.832V314.232H213.529V323H212.057V321.368C211.769 321.88 211.337 322.307 210.761 322.648C210.196 322.979 209.535 323.144 208.777 323.144C207.999 323.144 207.295 322.952 206.665 322.568C206.036 322.184 205.54 321.645 205.177 320.952C204.815 320.259 204.633 319.469 204.633 318.584ZM212.057 318.6C212.057 317.939 211.924 317.363 211.657 316.872C211.391 316.381 211.028 316.008 210.569 315.752C210.121 315.485 209.625 315.352 209.081 315.352C208.537 315.352 208.041 315.48 207.593 315.736C207.145 315.992 206.788 316.365 206.521 316.856C206.255 317.347 206.121 317.923 206.121 318.584C206.121 319.256 206.255 319.843 206.521 320.344C206.788 320.835 207.145 321.213 207.593 321.48C208.041 321.736 208.537 321.864 209.081 321.864C209.625 321.864 210.121 321.736 210.569 321.48C211.028 321.213 211.391 320.835 211.657 320.344C211.924 319.843 212.057 319.261 212.057 318.6ZM217.446 315.656C217.702 315.155 218.064 314.765 218.534 314.488C219.014 314.211 219.595 314.072 220.278 314.072V315.576H219.894C218.262 315.576 217.446 316.461 217.446 318.232V323H215.99V314.232H217.446V315.656ZM222.711 312.808C222.433 312.808 222.199 312.712 222.007 312.52C221.815 312.328 221.719 312.093 221.719 311.816C221.719 311.539 221.815 311.304 222.007 311.112C222.199 310.92 222.433 310.824 222.711 310.824C222.977 310.824 223.201 310.92 223.383 311.112C223.575 311.304 223.671 311.539 223.671 311.816C223.671 312.093 223.575 312.328 223.383 312.52C223.201 312.712 222.977 312.808 222.711 312.808ZM223.415 314.232V323H221.959V314.232H223.415ZM229.618 318.584C229.618 317.688 229.799 316.904 230.162 316.232C230.524 315.549 231.02 315.021 231.65 314.648C232.29 314.275 233.004 314.088 233.794 314.088C234.476 314.088 235.111 314.248 235.698 314.568C236.284 314.877 236.732 315.288 237.042 315.8V311.16H238.514V323H237.042V321.352C236.754 321.875 236.327 322.307 235.762 322.648C235.196 322.979 234.535 323.144 233.778 323.144C232.999 323.144 232.29 322.952 231.65 322.568C231.02 322.184 230.524 321.645 230.162 320.952C229.799 320.259 229.618 319.469 229.618 318.584ZM237.042 318.6C237.042 317.939 236.908 317.363 236.642 316.872C236.375 316.381 236.012 316.008 235.554 315.752C235.106 315.485 234.61 315.352 234.066 315.352C233.522 315.352 233.026 315.48 232.578 315.736C232.13 315.992 231.772 316.365 231.506 316.856C231.239 317.347 231.106 317.923 231.106 318.584C231.106 319.256 231.239 319.843 231.506 320.344C231.772 320.835 232.13 321.213 232.578 321.48C233.026 321.736 233.522 321.864 234.066 321.864C234.61 321.864 235.106 321.736 235.554 321.48C236.012 321.213 236.375 320.835 236.642 320.344C236.908 319.843 237.042 319.261 237.042 318.6ZM240.43 318.584C240.43 317.688 240.612 316.904 240.974 316.232C241.337 315.549 241.833 315.021 242.462 314.648C243.102 314.275 243.812 314.088 244.59 314.088C245.358 314.088 246.025 314.253 246.59 314.584C247.156 314.915 247.577 315.331 247.854 315.832V314.232H249.326V323H247.854V321.368C247.566 321.88 247.134 322.307 246.558 322.648C245.993 322.979 245.332 323.144 244.574 323.144C243.796 323.144 243.092 322.952 242.462 322.568C241.833 322.184 241.337 321.645 240.974 320.952C240.612 320.259 240.43 319.469 240.43 318.584ZM247.854 318.6C247.854 317.939 247.721 317.363 247.454 316.872C247.188 316.381 246.825 316.008 246.366 315.752C245.918 315.485 245.422 315.352 244.878 315.352C244.334 315.352 243.838 315.48 243.39 315.736C242.942 315.992 242.585 316.365 242.318 316.856C242.052 317.347 241.918 317.923 241.918 318.584C241.918 319.256 242.052 319.843 242.318 320.344C242.585 320.835 242.942 321.213 243.39 321.48C243.838 321.736 244.334 321.864 244.878 321.864C245.422 321.864 245.918 321.736 246.366 321.48C246.825 321.213 247.188 320.835 247.454 320.344C247.721 319.843 247.854 319.261 247.854 318.6ZM259.787 318.28C259.787 318.557 259.771 318.851 259.739 319.16H252.731C252.784 320.024 253.077 320.701 253.611 321.192C254.155 321.672 254.811 321.912 255.579 321.912C256.208 321.912 256.731 321.768 257.147 321.48C257.573 321.181 257.872 320.787 258.043 320.296H259.611C259.376 321.139 258.907 321.827 258.203 322.36C257.499 322.883 256.624 323.144 255.579 323.144C254.747 323.144 254 322.957 253.339 322.584C252.688 322.211 252.176 321.683 251.803 321C251.429 320.307 251.243 319.507 251.243 318.6C251.243 317.693 251.424 316.899 251.787 316.216C252.149 315.533 252.656 315.011 253.307 314.648C253.968 314.275 254.725 314.088 255.579 314.088C256.411 314.088 257.147 314.269 257.787 314.632C258.427 314.995 258.917 315.496 259.259 316.136C259.611 316.765 259.787 317.48 259.787 318.28ZM258.283 317.976C258.283 317.421 258.16 316.947 257.915 316.552C257.669 316.147 257.333 315.843 256.907 315.64C256.491 315.427 256.027 315.32 255.515 315.32C254.779 315.32 254.149 315.555 253.627 316.024C253.115 316.493 252.821 317.144 252.747 317.976H258.283ZM263.165 315.656C263.421 315.155 263.783 314.765 264.253 314.488C264.733 314.211 265.314 314.072 265.997 314.072V315.576H265.613C263.981 315.576 263.165 316.461 263.165 318.232V323H261.709V314.232H263.165V315.656ZM267.133 318.584C267.133 317.688 267.315 316.904 267.677 316.232C268.04 315.549 268.536 315.021 269.165 314.648C269.805 314.275 270.515 314.088 271.293 314.088C272.061 314.088 272.728 314.253 273.293 314.584C273.859 314.915 274.28 315.331 274.557 315.832V314.232H276.029V323H274.557V321.368C274.269 321.88 273.837 322.307 273.261 322.648C272.696 322.979 272.035 323.144 271.277 323.144C270.499 323.144 269.795 322.952 269.165 322.568C268.536 322.184 268.04 321.645 267.677 320.952C267.315 320.259 267.133 319.469 267.133 318.584ZM274.557 318.6C274.557 317.939 274.424 317.363 274.157 316.872C273.891 316.381 273.528 316.008 273.069 315.752C272.621 315.485 272.125 315.352 271.581 315.352C271.037 315.352 270.541 315.48 270.093 315.736C269.645 315.992 269.288 316.365 269.021 316.856C268.755 317.347 268.621 317.923 268.621 318.584C268.621 319.256 268.755 319.843 269.021 320.344C269.288 320.835 269.645 321.213 270.093 321.48C270.541 321.736 271.037 321.864 271.581 321.864C272.125 321.864 272.621 321.736 273.069 321.48C273.528 321.213 273.891 320.835 274.157 320.344C274.424 319.843 274.557 319.261 274.557 318.6ZM282.842 314.072C283.503 314.072 284.1 314.216 284.634 314.504C285.167 314.781 285.583 315.203 285.882 315.768C286.191 316.333 286.346 317.021 286.346 317.832V323H284.906V318.04C284.906 317.165 284.687 316.499 284.25 316.04C283.812 315.571 283.215 315.336 282.458 315.336C281.69 315.336 281.076 315.576 280.618 316.056C280.17 316.536 279.946 317.235 279.946 318.152V323H278.49V311.16H279.946V315.48C280.234 315.032 280.628 314.685 281.13 314.44C281.642 314.195 282.212 314.072 282.842 314.072ZM173.805 349.144C173.133 349.144 172.53 349.032 171.997 348.808C171.463 348.573 171.042 348.253 170.733 347.848C170.423 347.432 170.253 346.957 170.221 346.424H171.725C171.767 346.861 171.97 347.219 172.333 347.496C172.706 347.773 173.191 347.912 173.789 347.912C174.343 347.912 174.781 347.789 175.101 347.544C175.421 347.299 175.581 346.989 175.581 346.616C175.581 346.232 175.41 345.949 175.069 345.768C174.727 345.576 174.199 345.389 173.485 345.208C172.834 345.037 172.301 344.867 171.885 344.696C171.479 344.515 171.127 344.253 170.829 343.912C170.541 343.56 170.397 343.101 170.397 342.536C170.397 342.088 170.53 341.677 170.797 341.304C171.063 340.931 171.442 340.637 171.933 340.424C172.423 340.2 172.983 340.088 173.613 340.088C174.583 340.088 175.367 340.333 175.965 340.824C176.562 341.315 176.882 341.987 176.925 342.84H175.469C175.437 342.381 175.25 342.013 174.909 341.736C174.578 341.459 174.13 341.32 173.565 341.32C173.042 341.32 172.626 341.432 172.317 341.656C172.007 341.88 171.853 342.173 171.853 342.536C171.853 342.824 171.943 343.064 172.125 343.256C172.317 343.437 172.551 343.587 172.829 343.704C173.117 343.811 173.511 343.933 174.013 344.072C174.642 344.243 175.154 344.413 175.549 344.584C175.943 344.744 176.279 344.989 176.557 345.32C176.845 345.651 176.994 346.083 177.005 346.616C177.005 347.096 176.871 347.528 176.605 347.912C176.338 348.296 175.959 348.6 175.469 348.824C174.989 349.037 174.434 349.144 173.805 349.144ZM187.06 344.28C187.06 344.557 187.044 344.851 187.012 345.16H180.004C180.057 346.024 180.351 346.701 180.884 347.192C181.428 347.672 182.084 347.912 182.852 347.912C183.481 347.912 184.004 347.768 184.42 347.48C184.847 347.181 185.145 346.787 185.316 346.296H186.884C186.649 347.139 186.18 347.827 185.476 348.36C184.772 348.883 183.897 349.144 182.852 349.144C182.02 349.144 181.273 348.957 180.612 348.584C179.961 348.211 179.449 347.683 179.076 347C178.703 346.307 178.516 345.507 178.516 344.6C178.516 343.693 178.697 342.899 179.06 342.216C179.423 341.533 179.929 341.011 180.58 340.648C181.241 340.275 181.999 340.088 182.852 340.088C183.684 340.088 184.42 340.269 185.06 340.632C185.7 340.995 186.191 341.496 186.532 342.136C186.884 342.765 187.06 343.48 187.06 344.28ZM185.556 343.976C185.556 343.421 185.433 342.947 185.188 342.552C184.943 342.147 184.607 341.843 184.18 341.64C183.764 341.427 183.3 341.32 182.788 341.32C182.052 341.32 181.423 341.555 180.9 342.024C180.388 342.493 180.095 343.144 180.02 343.976H185.556ZM193.878 349L190.438 345.128V349H188.982V337.16H190.438V344.12L193.814 340.232H195.846L191.718 344.6L195.862 349H193.878ZM197.968 338.808C197.691 338.808 197.456 338.712 197.264 338.52C197.072 338.328 196.976 338.093 196.976 337.816C196.976 337.539 197.072 337.304 197.264 337.112C197.456 336.92 197.691 336.824 197.968 336.824C198.235 336.824 198.459 336.92 198.64 337.112C198.832 337.304 198.928 337.539 198.928 337.816C198.928 338.093 198.832 338.328 198.64 338.52C198.459 338.712 198.235 338.808 197.968 338.808ZM198.672 340.232V349H197.216V340.232H198.672ZM202.93 341.432V346.6C202.93 347.027 203.021 347.331 203.202 347.512C203.383 347.683 203.698 347.768 204.146 347.768H205.218V349H203.906C203.095 349 202.487 348.813 202.082 348.44C201.677 348.067 201.474 347.453 201.474 346.6V341.432H200.338V340.232H201.474V338.024H202.93V340.232H205.218V341.432H202.93ZM206.438 344.584C206.438 343.688 206.619 342.904 206.982 342.232C207.345 341.549 207.841 341.021 208.47 340.648C209.11 340.275 209.819 340.088 210.598 340.088C211.366 340.088 212.033 340.253 212.598 340.584C213.163 340.915 213.585 341.331 213.862 341.832V340.232H215.334V349H213.862V347.368C213.574 347.88 213.142 348.307 212.566 348.648C212.001 348.979 211.339 349.144 210.582 349.144C209.803 349.144 209.099 348.952 208.47 348.568C207.841 348.184 207.345 347.645 206.982 346.952C206.619 346.259 206.438 345.469 206.438 344.584ZM213.862 344.6C213.862 343.939 213.729 343.363 213.462 342.872C213.195 342.381 212.833 342.008 212.374 341.752C211.926 341.485 211.43 341.352 210.886 341.352C210.342 341.352 209.846 341.48 209.398 341.736C208.95 341.992 208.593 342.365 208.326 342.856C208.059 343.347 207.926 343.923 207.926 344.584C207.926 345.256 208.059 345.843 208.326 346.344C208.593 346.835 208.95 347.213 209.398 347.48C209.846 347.736 210.342 347.864 210.886 347.864C211.43 347.864 211.926 347.736 212.374 347.48C212.833 347.213 213.195 346.835 213.462 346.344C213.729 345.843 213.862 345.261 213.862 344.6ZM219.251 341.656C219.507 341.155 219.869 340.765 220.339 340.488C220.819 340.211 221.4 340.072 222.083 340.072V341.576H221.699C220.067 341.576 219.251 342.461 219.251 344.232V349H217.795V340.232H219.251V341.656Z" fill="#808080"/>
<path d="M215.077 121.114L197.346 104.802C196.77 104.271 196.011 103.984 195.228 104.001C194.445 104.017 193.698 104.335 193.144 104.889L176.837 121.197L176 122.033V146.074H191.714V131.074H200.286V146.074H216V121.963L215.077 121.114ZM195.289 106.857C195.314 106.857 195.299 106.863 195.288 106.873C195.277 106.863 195.264 106.857 195.289 106.857ZM213.143 143.217H203.143V131.074C203.143 130.316 202.842 129.59 202.306 129.054C201.77 128.518 201.043 128.217 200.286 128.217H191.714C190.957 128.217 190.23 128.518 189.694 129.054C189.158 129.59 188.857 130.316 188.857 131.074V143.217H178.857L178.857 123.217L195.289 106.909L195.291 106.906L213.143 123.217V143.217Z" fill="white" stroke="white" stroke-width="0.6"/>
<defs>
<filter id="filter0_d_2_266" x="0" y="0" width="400" height="423" filterUnits="userSpaceOnUse" color-interpolation-filters="sRGB">
<feFlood flood-opacity="0" result="BackgroundImageFix"/>
<feColorMatrix in="SourceAlpha" type="matrix" values="0 0 0 0 0 0 0 0 0 0 0 0 0 0 0 0 0 0 127 0" result="hardAlpha"/>
<feOffset dx="4" dy="10"/>
<feGaussianBlur stdDeviation="15"/>
<feComposite in2="hardAlpha" operator="out"/>
<feColorMatrix type="matrix" values="0 0 0 0 0 0 0 0 0 0 0 0 0 0 0 0 0 0 0.03 0"/>
<feBlend mode="normal" in2="BackgroundImageFix" result="effect1_dropShadow_2_266"/>
<feBlend mode="normal" in="SourceGraphic" in2="effect1_dropShadow_2_266" result="shape"/>
</filter>
<filter id="filter1_d_2_266" x="125" y="60" width="150" height="150" filterUnits="userSpaceOnUse" color-interpolation-filters="sRGB">
<feFlood flood-opacity="0" result="BackgroundImageFix"/>
<feColorMatrix in="SourceAlpha" type="matrix" values="0 0 0 0 0 0 0 0 0 0 0 0 0 0 0 0 0 0 127 0" result="hardAlpha"/>
<feOffset dx="4" dy="10"/>
<feGaussianBlur stdDeviation="15"/>
<feComposite in2="hardAlpha" operator="out"/>
<feColorMatrix type="matrix" values="0 0 0 0 0.262745 0 0 0 0 0.380392 0 0 0 0 0.933333 0 0 0 0.4 0"/>
<feBlend mode="normal" in2="BackgroundImageFix" result="effect1_dropShadow_2_266"/>
<feBlend mode="normal" in="SourceGraphic" in2="effect1_dropShadow_2_266" result="shape"/>
</filter>
</defs>
</svg>
